<svg width="239" height="19" fill="none" xmlns="http://www.w3.org/2000/svg"><path d="M6.82 13.795c-.923.102-1.743.307-2.461.513-.205.512-.513.923-.615 1.333-.103.41-.41.82-.513 1.23a1.415 1.415 0 01-.308.411c-.102 0-.308 0-.615-.102-.205-.103-.308-.103-.513-.206l-.616-.307c-.102-.103-.307-.206-.41-.206-.102 0-.205-.102-.307-.205-.103-.102-.103-.205-.103-.41s0-.41.103-.615c.307-.82.717-1.846 1.128-2.975.513-1.128 1.025-2.359 1.538-3.59.513-1.23 1.128-2.46 1.641-3.59.616-1.23 1.128-2.255 1.641-3.179.205-.307.41-.615.718-.82.308-.205.718-.308 1.334-.205.512 0 .923.102 1.333.102.41.103.718.103 1.128.205.308.103.616.103.923.206.308.102.513.205.82.205.41.102.616.307.719.513.102.205.102.512.102.82-.102.82-.102 1.846-.205 2.974-.102 1.129-.102 2.36-.102 3.59v7.18c0 .205 0 .41-.103.512-.103.103-.308.103-.616.103h-.922c-.308 0-.513-.102-.821-.205-.308-.103-.513-.205-.615-.308-.103-.102-.206-.41-.206-.718-.102-.41-.102-.718-.102-1.128 0-.41-.103-.923-.103-1.436a255.26 255.26 0 00-2.871.308zm.924-3.18c.512-.102 1.128-.102 1.743-.102 0-1.026 0-2.051-.102-2.975-.103-.923 0-1.948 0-2.974-.513.923-1.026 1.846-1.641 2.974C7.128 8.667 6.615 9.795 6 10.923c.615-.103 1.128-.205 1.744-.308zm10.051 4.41c-.103.616-.205 1.334-.308 1.95-.102.204-.102.307-.307.41-.206.102-.308.102-.616 0-.308-.103-.615-.206-.923-.206-.308-.102-.615-.205-.82-.307a1.236 1.236 0 01-.513-.513c-.103-.205-.103-.41-.103-.82.103-.309.205-.821.308-1.54.102-.717.205-1.538.205-2.358.102-.923.102-1.846.205-2.77.103-.923.103-1.846.205-2.666.103-.82.205-1.539.205-2.051.103-.513.206-.82.308-.923.513-.206 1.026-.513 1.539-.718a12.512 12.512 0 011.743-.718c.616-.206 1.23-.41 1.846-.513.616-.103 1.231-.205 1.744-.205.513 0 1.128.102 1.538.205.41.102.923.41 1.231.718.41.513.82.923 1.128 1.538.308.513.616 1.231.82 1.949.103.41.103.718.103 1.026 0 .307-.102.615-.307.923-.206.307-.308.615-.513.82-.205.205-.41.513-.718.82-.41.41-.923.821-1.539 1.231-.615.41-1.23.718-1.948 1.129-.718.41-1.436.615-2.154.923-.718.307-1.539.512-2.257.718.206.615.103 1.23-.102 1.948zm3.487-6.564c.615-.41 1.23-.82 1.641-1.23.41-.41.718-.821.923-1.231.205-.41.205-.718.103-1.026 0-.102-.205-.308-.41-.308-.206-.102-.513-.102-.821-.102-.308 0-.718.102-1.23.205-.411.103-.924.205-1.334.41-.205.718-.41 1.334-.616 2.052-.205.717-.41 1.435-.512 2.256.923-.308 1.64-.615 2.256-1.026zm8.923-6.666c.616-.103 1.334-.308 2.051-.41l2.154-.308c.718-.103 1.539-.103 2.257-.205.718 0 1.128.307 1.333.82.205.308.308.615.308.82.102.206.102.513.205.821 0 .308 0 .513-.103.616-.102.102-.307.205-.718.205-.718.102-1.538.205-2.256.307l-2.462.308c-.205.513-.307 1.128-.512 1.744-.206.615-.308 1.23-.513 1.846.41-.103.718-.103 1.128-.103.41 0 .718 0 1.23-.102.308 0 .616 0 .821.102.205.103.41.205.513.513.103.205.308.513.308.718 0 .205.102.513.205.718.102.308.102.513 0 .615-.103.103-.308.205-.616.308-.717.103-1.538.308-2.256.41-.718.103-1.538.308-2.256.41-.103.41-.206.718-.308 1.129-.103.307-.205.718-.308 1.025.616-.102 1.128-.205 1.641-.205.513-.102 1.128-.102 1.744-.102.308 0 .615 0 .82.102.206.103.308.205.513.41.103.206.308.513.308.718l.308.616c.102.205.102.41 0 .513-.103.102-.308.205-.616.205-.82.102-1.538.307-2.359.513-.82.205-1.538.307-2.359.41-.513.102-.82.205-1.128.102-.205-.102-.513-.205-.615-.307-.205-.103-.41-.308-.616-.41-.205-.103-.41-.308-.718-.513-.205-.206-.41-.41-.512-.616-.103-.205-.206-.513-.103-.82L28.462 2.41a4.393 4.393 0 011.743-.615zm19.59 4.615c-.308 1.128-.718 2.36-1.026 3.487a47.052 47.052 0 01-1.025 3.59c-.41 1.23-.616 2.256-.82 3.282 0 .205 0 .308-.103.308-.103.102-.206.102-.41.102-.206 0-.308 0-.514-.102-.205-.103-.41-.103-.718-.205a3.423 3.423 0 01-1.23-.513c-.308-.205-.41-.513-.205-1.026 0-.41.102-.923.205-1.538.102-.616.205-1.231.307-1.949-.512.103-1.025.103-1.538.205-.513.103-1.026.103-1.539.205-.205.82-.41 1.641-.512 2.36a94.72 94.72 0 01-.308 2.05c0 .206-.103.308-.205.41-.103.103-.308.103-.616 0l-.923-.307c-.307-.102-.615-.205-.82-.308a1.05 1.05 0 01-.616-.512c-.102-.206-.102-.41-.102-.718.205-.82.41-1.847.513-2.975.205-1.128.307-2.359.41-3.59.103-1.23.308-2.461.41-3.692.103-1.23.308-2.359.41-3.384.103-.41.206-.616.41-.718.206-.103.411 0 .821.102.41.103.82.308 1.231.41.41.206.82.41 1.128.616.205.102.308.205.41.308.103.102.206.205.206.307 0 .103.102.205 0 .308 0 .103 0 .308-.103.41-.205.718-.41 1.539-.615 2.462-.205.923-.41 1.948-.718 3.077.513-.103 1.025-.103 1.538-.103.513 0 1.026-.102 1.436-.102.308-1.334.615-2.565.923-3.898.308-1.333.616-2.461.82-3.487.103-.41.308-.615.514-.718.205-.103.512 0 .923.103.307.102.718.205 1.128.41.41.205.718.41 1.128.615.308.205.513.41.615.616.103.205 0 .41 0 .718-.102 1.23-.512 2.256-.82 3.384zM56.564.872h.308c.513 0 1.538.307 2.974 1.025.513.308.923.82 1.23 1.539.821 3.59 1.232 5.846 1.232 6.564l.41 2.872c1.128 0 1.641.205 1.641.41l.103.513v.615c-.308 1.949-.718 2.872-1.231 2.872-3.693-.205-6.872-.308-9.641-.308l-4.205.103c-.308 0-.41-.205-.513-.513v-1.539c0-.307.102-.615.307-1.025.206-.205.616-.308 1.334-.513.82-2.462 1.846-4.82 2.872-7.077l2.461-5.128c.103-.205.41-.41.718-.41zm1.333 4.41a77.524 77.524 0 00-3.076 7.897c1.23-.102 2.461-.205 3.897-.307-.103-2.154-.41-4.616-.82-7.59z" fill="#fff"/><path d="M69.897 13.795c-.923.102-1.743.307-2.461.513-.205.512-.513.923-.616 1.333-.102.41-.41.82-.512 1.23a1.415 1.415 0 01-.308.411c-.103.103-.308 0-.615-.102-.206-.103-.308-.103-.513-.206l-.616-.307c-.102-.103-.307-.206-.41-.206-.102 0-.205-.102-.307-.205-.103-.102-.103-.205-.103-.41s0-.41.102-.615c.308-.82.718-1.846 1.129-2.975.513-1.128 1.025-2.359 1.538-3.59.513-1.23 1.128-2.46 1.641-3.59.615-1.23 1.128-2.255 1.641-3.179.205-.307.41-.615.718-.82.308-.205.718-.308 1.334-.205.512 0 .922.102 1.333.102.41.103.718.103 1.128.205.308.103.615.103.923.206.308.102.513.205.82.205.41.102.616.307.719.513.102.205.102.512.102.82-.102.82-.102 1.846-.205 2.974-.103 1.129-.103 2.36-.103 3.59v7.18c0 .205 0 .41-.102.512-.103.103-.308.103-.615.103h-.924c-.307 0-.512-.102-.82-.205-.308-.103-.513-.205-.615-.308-.103-.102-.206-.41-.206-.718-.102-.41-.102-.718-.102-1.128 0-.41-.103-.923-.103-1.436-1.025.103-1.949.205-2.872.308zm.923-3.18c.513-.102 1.129-.102 1.744-.102 0-1.026 0-2.051-.102-2.975-.103-.923 0-1.948 0-2.974-.513.923-1.026 1.846-1.642 2.974-.615 1.129-1.128 2.257-1.743 3.385.615-.103 1.23-.205 1.743-.308zm21.95 3.18c-.924.102-1.744.307-2.462.513-.205.512-.513.923-.616 1.333-.102.41-.41.82-.512 1.23a1.415 1.415 0 01-.308.411c-.103.103-.308 0-.616-.102-.205-.103-.307-.103-.512-.206l-.616-.307c-.102-.103-.308-.206-.41-.206-.103 0-.205-.102-.308-.205-.102-.102-.102-.205-.102-.41s0-.41.102-.615c.308-.82.718-1.846 1.129-2.975.512-1.128 1.025-2.359 1.538-3.59.513-1.23 1.128-2.46 1.641-3.59.615-1.23 1.128-2.255 1.641-3.179.205-.307.41-.615.718-.82.308-.205.718-.308 1.333-.205.513 0 .923.102 1.334.102.41.103.718.103 1.128.205.308.103.615.103.923.206.308.102.513.205.82.205.41.102.616.307.718.513.103.205.103.512.103.82-.103.82-.103 1.846-.205 2.974-.103 1.129-.103 2.36-.103 3.59v7.18c0 .205 0 .41-.102.512-.103.103-.308.103-.616.103h-.923c-.307 0-.513-.102-.82-.205-.308-.103-.513-.205-.616-.308-.102-.102-.205-.41-.205-.718-.102-.41-.102-.718-.102-1.128 0-.41-.103-.923-.103-1.436a253.04 253.04 0 00-2.872.308zm.922-3.18c.513-.102 1.129-.102 1.744-.102 0-1.026 0-2.051-.103-2.975-.102-.923 0-1.948 0-2.974-.513.923-1.025 1.846-1.64 2.974-.616 1.129-1.129 2.257-1.744 3.385.615-.103 1.23-.205 1.743-.308zm17.231-6.461c-.615.102-1.128.102-1.744.205-.307 1.025-.512 2.154-.82 3.18-.308 1.127-.513 2.256-.821 3.281-.307 1.026-.512 2.154-.717 3.18-.206 1.025-.411 2.051-.616 2.872 0 .205-.102.307-.205.307-.103.103-.205.103-.41.103s-.308 0-.513-.103c-.205-.102-.41-.102-.718-.205-.308-.102-.513-.102-.718-.205-.205-.102-.41-.205-.513-.308-.102-.102-.205-.307-.307-.41a.651.651 0 010-.615c0-.616.102-1.334.205-2.154.102-.82.205-1.744.41-2.77.205-.922.308-1.948.513-2.871.205-1.026.41-1.846.513-2.77-.308.103-.718.103-1.026.103-.308 0-.615.103-.821.103-.307.102-.512.102-.718 0-.205-.103-.41-.205-.615-.513a3.675 3.675 0 01-.718-1.026c-.205-.41-.41-.718-.513-1.025-.102-.308-.205-.513-.102-.513.102-.103.205-.205.41-.205.718-.103 1.538-.308 2.462-.41l2.769-.308c.923-.103 1.846-.205 2.769-.205.923-.103 1.744-.103 2.462-.103.41 0 .615 0 .82.103.205.102.308.205.41.307l.616.923c.205.308.307.616.41 1.026.102.308.102.513 0 .615-.103.103-.308.206-.718.206-.308.102-.821.102-1.436.205z" fill="#fff"/><path d="M123.641 4.154c-.615.102-1.128.102-1.744.205-.307 1.025-.512 2.154-.82 3.18-.308 1.127-.513 2.256-.821 3.281-.307 1.026-.512 2.154-.718 3.18-.205 1.025-.41 2.051-.615 2.872 0 .205-.102.307-.205.307-.103.103-.205.103-.41.103s-.308 0-.513-.103c-.205-.102-.41-.102-.718-.205-.308-.102-.513-.102-.718-.205-.205-.102-.41-.205-.513-.308-.102-.102-.205-.307-.308-.41a.657.657 0 010-.615c0-.616.103-1.334.206-2.154.102-.82.205-1.744.41-2.77.205-.922.308-1.948.513-2.871.205-.923.41-1.846.512-2.77-.307.103-.717.103-1.025.103-.308 0-.616.103-.821.103-.307.102-.512.102-.718 0-.205-.103-.41-.205-.615-.513a3.675 3.675 0 01-.718-1.026c-.205-.41-.41-.718-.513-1.025-.102-.308-.205-.513-.102-.513.102-.103.205-.205.41-.205.718-.103 1.538-.308 2.461-.41l2.77-.308c.923-.103 1.846-.205 2.769-.205.923-.103 1.744-.103 2.461-.103.411 0 .616 0 .821.103.205.102.308.205.41.307l.616.923c.205.308.307.616.41 1.026.102.308.102.513 0 .615-.103.103-.308.206-.718.206-.41.102-.923.102-1.436.205zm4.718 10.871c-.103.616-.205 1.334-.308 1.95-.102.204-.102.307-.307.41-.206.102-.308.102-.616 0-.307-.103-.615-.206-.923-.206-.308-.102-.615-.205-.82-.307a1.228 1.228 0 01-.513-.513c-.103-.205-.103-.41-.103-.82.103-.309.205-.821.308-1.54.102-.717.205-1.538.205-2.358.103-.923.103-1.846.205-2.77.103-.923.103-1.846.205-2.666.103-.82.205-1.539.205-2.051.103-.513.206-.82.308-.923.513-.206 1.026-.513 1.539-.718a12.506 12.506 0 011.743-.718c.616-.206 1.231-.41 1.846-.513.616-.103 1.231-.205 1.744-.205a6.97 6.97 0 011.538.205c.411.102.923.41 1.231.718.41.513.821.923 1.128 1.538.308.513.616 1.231.821 1.949.102.41.102.718.102 1.026 0 .307-.102.615-.307.923a2.24 2.24 0 01-.513.82c-.205.205-.41.513-.718.82-.41.41-.923.821-1.538 1.231-.616.41-1.231.718-1.949 1.129-.718.41-1.436.615-2.154.923-.718.307-1.539.512-2.256.718.205.615 0 1.23-.103 1.948zm3.487-6.564c.616-.41 1.231-.82 1.641-1.23.41-.41.718-.821.923-1.231.205-.41.205-.718.103-1.026 0-.102-.205-.308-.41-.308-.206-.102-.513-.102-.821-.102-.308 0-.718.102-1.231.205-.41.103-.923.205-1.333.41-.205.718-.41 1.334-.615 2.052-.206.717-.411 1.435-.513 2.256.82-.308 1.641-.615 2.256-1.026zm10.359 5.334c-.923.102-1.743.307-2.461.513-.206.512-.513.923-.616 1.333-.102.41-.41.82-.513 1.23a1.4 1.4 0 01-.307.411c-.103.103-.308 0-.616-.102-.205-.103-.307-.103-.513-.206l-.615-.307c-.102-.103-.308-.206-.41-.206-.103 0-.205-.102-.308-.205-.102-.102-.102-.205-.102-.41s0-.41.102-.615c.308-.82.718-1.846 1.128-2.975.513-1.128 1.026-2.359 1.539-3.59.513-1.23 1.128-2.46 1.641-3.59.615-1.23 1.128-2.255 1.641-3.179.205-.307.41-.615.718-.82.308-.205.718-.308 1.333-.205.513 0 .923.102 1.333.102.411.103.718.103 1.129.205.307.103.615.103.923.206.307.102.513.205.82.205.411.102.616.307.718.513.103.205.103.512.103.82-.103.82-.103 1.846-.205 2.974-.103 1.129-.103 2.36-.103 3.59v7.18c0 .205 0 .41-.102.512-.103.103-.308.103-.616.103h-.923c-.308 0-.513-.102-.82-.205-.308-.103-.513-.205-.616-.308-.102-.102-.205-.41-.205-.718-.103-.41-.103-.718-.103-1.128 0-.41-.102-.923-.102-1.436a253.04 253.04 0 00-2.872.308zm.923-3.18c.513-.102 1.128-.102 1.744-.102 0-1.026 0-2.051-.103-2.975-.102-.923 0-1.948 0-2.974a430.49 430.49 0 00-1.641 2.974c-.615 1.129-1.128 2.257-1.743 3.385.615-.103 1.128-.205 1.743-.308zm14.359 1.949c.308.41.616.82.821 1.23.205.41.513.719.82 1.129.308.307.513.615.718.82.205.205.308.41.205.513a2.779 2.779 0 01-.513.41c-.205.103-.307.206-.512.206-.205.102-.411.102-.616.102-.307.103-.615.103-1.025.103-.308 0-.616-.205-1.026-.616a3.874 3.874 0 01-.513-.615c-.205-.308-.513-.513-.718-.923a7.22 7.22 0 01-.82-1.026c-.205-.308-.616-.718-.821-1.128-.205.82-.307 1.538-.41 2.256a34.38 34.38 0 01-.308 1.847c0 .205 0 .307-.102.41-.103.102-.205.102-.411.102-.205 0-.307 0-.615-.102-.205-.103-.513-.103-.718-.205a3.426 3.426 0 01-1.231-.513c-.307-.205-.307-.513-.307-1.026 0-.41 0-1.025.102-1.64.103-.719.103-1.437.205-2.257.103-.82.205-1.744.308-2.667.103-.923.205-1.846.41-2.667.103-.923.308-1.743.411-2.461.102-.82.307-1.436.41-2.051.102-.308.205-.513.41-.616.205-.102.513-.102.821 0 .41.103.82.205 1.23.41.411.206.821.41 1.129.616.205.102.307.205.41.308.102.102.205.205.205.307 0 .103.102.205.102.308 0 .103 0 .308-.102.41-.205.616-.41 1.334-.513 2.154-.102.82-.41 1.641-.615 2.667.513-.616 1.128-1.128 1.641-1.846a29.695 29.695 0 001.743-1.95c.513-.615 1.129-1.23 1.641-1.743.513-.513.923-1.025 1.231-1.436.205-.307.41-.41.615-.41.206 0 .411.103.718.308.308.205.513.513.718.82.206.308.308.616.513.923.103.308.103.513.103.82 0 .309-.205.616-.41.924-.308.513-.616 1.026-1.129 1.538-.513.616-1.025 1.129-1.538 1.744a13.974 13.974 0 01-1.744 1.744c-.615.615-1.128 1.128-1.743 1.64.307.308.615.719.82 1.129zM172.667.872h.82c.821 0 1.436.307 1.744.82l.102.513v.308c0 .205-.307 1.743-.923 4.615-.615 2.667-1.025 5.128-1.436 7.282.923 0 1.334.205 1.334.615-.205 1.436-.616 2.667-1.128 3.488-.103.205-.308.307-.411.307h-.102c-.923 0-1.846-.307-2.667-.923l-.103-.41v-.718h-1.948c-3.487-.205-5.231-.41-5.436-.82 0-.103-.103-.206-.308-.41-.102-.103-.102-.206-.102-.308v-.206c.512-2.974.923-6.974 1.333-12.102.102-1.026.308-1.436.718-1.436l3.384-.41h.103c.41 0 .615.205.615.513 0 .512-.41 2.461-1.23 5.948l-1.129 6.051 3.59-.102c.41-3.692.821-6.974 1.436-9.846l.615-2.36c0-.204.513-.41 1.129-.41z" fill="#fff"/><path d="M177.179 1.282c.411 0 1.436.307 2.975.923l.41.205a356.86 356.86 0 00-1.538 7.18c2.769-3.693 4.512-5.95 5.025-6.77.205-.205.411-.615.821-1.436.102-.102.307-.102.41-.102h.205c.616 0 1.539.307 2.564 1.025.205.206.411.41.411.616v.307l-1.334 4.718-2.154 8.718c-.205.206-.41.206-.615.206-.513 0-1.333-.206-2.564-.718l.82-5.231c-1.641 1.846-3.282 3.795-5.025 5.846l-.308.103h-.205c-1.846-.308-2.769-.821-2.769-1.436v-.103c0-2.051.615-6.461 1.743-13.333.103-.513.411-.82.821-.82h.307v.102zm22.154 2.256c.205.41.411.923.513 1.436.103.923.205 1.846.103 2.974-.103 1.026-.205 2.052-.513 3.18a12.937 12.937 0 01-1.231 2.974c-.513.923-1.128 1.744-1.846 2.36a3.491 3.491 0 01-1.538.717c-.513.103-1.129.205-1.847.103-.512 0-.923-.103-1.436-.205-.512-.103-.923-.308-1.333-.513-.308-.205-.615-.41-1.026-.718-.41-.308-.615-.616-.717-.923a6.192 6.192 0 01-.616-1.949c-.102-.718-.205-1.436-.205-2.256 0-.82.103-1.641.308-2.462.205-.82.41-1.64.718-2.359a7.38 7.38 0 011.23-2.154c.513-.718 1.026-1.333 1.641-1.846.411-.308.924-.615 1.539-.718.615-.205 1.128-.205 1.744-.102.717.102 1.333.307 2.051.512.718.206 1.128.513 1.538.821.308.308.718.718.923 1.128zm-4.923 1.026c-.307.308-.615.718-.923 1.23-.308.513-.615 1.129-.923 1.744-.308.616-.513 1.231-.718 1.846-.205.616-.308 1.128-.41 1.846-.103.616-.103 1.231-.103 1.744 0 .513.103 1.026.308 1.333.103.41.41.616.615.718.308.103.513 0 .821-.205.308-.205.615-.513.82-.923.206-.41.513-.923.821-1.538a6.171 6.171 0 00.615-1.949c.205-.615.308-1.23.411-1.949.102-.718.102-1.333.102-1.948 0-.616-.102-1.129-.205-1.539-.103-.41-.308-.718-.513-.718-.102-.102-.307 0-.718.308zm18.154 1.846c-.308 1.128-.718 2.36-1.026 3.487a46.909 46.909 0 01-1.025 3.59c-.41 1.23-.616 2.256-.821 3.282 0 .205 0 .308-.102.308-.103.102-.205.102-.411.102-.205 0-.307 0-.512-.102-.205-.103-.411-.103-.718-.205a3.425 3.425 0 01-1.231-.513c-.308-.205-.41-.513-.205-1.026 0-.41.102-.923.205-1.538.103-.616.205-1.231.308-1.949-.513.103-1.026.103-1.539.205-.513.103-1.025.103-1.538.205-.205.82-.411 1.641-.513 2.36-.103.717-.205 1.435-.308 2.05 0 .206-.102.308-.205.41-.102.103-.308.103-.615 0l-.923-.307c-.308-.102-.616-.205-.821-.308a1.047 1.047 0 01-.615-.512c-.103-.206-.103-.41-.103-.718a19.8 19.8 0 00.513-2.975c.205-1.128.308-2.359.41-3.59.103-1.23.308-2.461.41-3.692.103-1.23.308-2.359.411-3.384.102-.41.205-.616.41-.718.205-.103.41 0 .821.102.41.103.82.308 1.23.41.411.206.821.41 1.128.616.206.102.308.205.411.308.102.102.205.205.205.307 0 .103.102.205 0 .308 0 .103 0 .308-.103.41-.205.718-.41 1.539-.615 2.462-.205.923-.41 1.948-.718 3.077.513-.103 1.026-.103 1.538-.103.513 0 1.026-.102 1.436-.102.308-1.334.616-2.565.923-3.898.308-1.333.616-2.461.821-3.487.102-.41.308-.615.513-.718.205-.103.513 0 .923.103.308.102.718.205 1.128.41.41.205.718.41 1.128.615.308.205.513.41.616.616.102.205 0 .41 0 .718-.206 1.23-.513 2.256-.821 3.384zm11.59-2.872c.205.41.41.923.513 1.436.102.923.205 1.846.102 2.974-.102 1.026-.205 2.052-.513 3.18-.307 1.128-.718 2.051-1.23 2.974-.513.923-1.129 1.744-1.847 2.36a3.481 3.481 0 01-1.538.717c-.513.103-1.128.205-1.846.103-.513 0-.923-.103-1.436-.205-.513-.103-.923-.308-1.333-.513-.308-.205-.616-.41-1.026-.718-.308-.308-.615-.616-.718-.923a6.165 6.165 0 01-.615-1.949c-.103-.718-.205-1.436-.205-2.256 0-.82.102-1.641.307-2.462.205-.82.41-1.64.718-2.359a7.381 7.381 0 011.231-2.154c.513-.718 1.026-1.333 1.641-1.846.41-.308.923-.615 1.538-.718.616-.205 1.129-.205 1.744-.102.718.102 1.333.307 2.051.512.718.206 1.129.513 1.539.821.307.308.718.718.923 1.128zm-4.923 1.026c-.308.308-.616.718-.923 1.23-.308.513-.616 1.129-.923 1.744-.308.616-.513 1.231-.718 1.846-.205.616-.308 1.128-.411 1.846-.102.616-.102 1.231-.102 1.744 0 .513.102 1.026.308 1.333.102.41.41.616.615.718.308.103.513 0 .82-.205a2.42 2.42 0 00.821-.923c.205-.41.513-.923.82-1.538a6.198 6.198 0 00.616-1.949c.205-.615.308-1.23.41-1.949.103-.718.103-1.333.103-1.948 0-.616-.103-1.129-.205-1.539-.103-.41-.308-.718-.513-.718-.103-.102-.411 0-.718.308zm16.513 6.359c.307.41.512.923.615 1.333.103.513 0 1.026-.205 1.436-.205.41-.513.718-1.026 1.128-.307.308-.718.513-1.128.82-.41.309-.923.514-1.333.719-.513.205-1.026.41-1.436.513-.41.102-.923.307-1.436.41-.205.102-.41.102-.616.102h-.512c-.205 0-.308 0-.411-.102-.102 0-.307-.103-.512-.205-.411-.205-.718-.308-.923-.513-.308-.205-.616-.41-.924-.718l-.41-.41c-.102-.103-.205-.205-.205-.308-.103-.103-.103-.205-.103-.41v-.616c0-.718.103-1.64.206-2.564.102-.923.205-1.948.307-2.974.103-1.026.205-2.051.308-3.18.103-1.128.103-2.05.205-2.974.513-.308 1.026-.513 1.641-.718.616-.205 1.231-.41 1.949-.615.718-.205 1.333-.308 2.051-.308.718 0 1.333-.102 1.949-.102.615 0 1.231.102 1.743.307.513.205.924.41 1.231.718.41.41.821.923 1.128 1.333.308.513.513 1.026.616 1.744.102.308.102.718 0 1.026l-.308.923a1.595 1.595 0 01-.615.82c-.308.205-.513.513-.718.718-.308.205-.616.41-.923.718-.308.308-.718.41-1.128.616.205.512.615.82.923 1.333zm-7.077 2.154c-.103.513-.205.923-.308 1.436.615-.206 1.231-.308 1.744-.616a7.855 7.855 0 001.333-.718c.308-.205.615-.513.82-.718.206-.205.206-.512.206-.718-.103-.102-.206-.205-.411-.307-.205-.103-.41-.205-.718-.205h-1.025c-.411.102-.821.205-1.334.307a20.26 20.26 0 01-.307 1.539zm3.077-5.436a5.975 5.975 0 001.538-1.128c.41-.41.718-.718.923-1.026.205-.308.308-.615.205-.82 0-.206-.205-.308-.41-.308-.205-.103-.513-.103-.821-.103-.307 0-.717.103-1.23.205-.411.103-.923.308-1.436.513-.205.513-.308 1.128-.41 1.641-.103.513-.308 1.231-.411 1.846a12.25 12.25 0 002.052-.82z" fill="#fff"/></svg>