<?xml version="1.0" encoding="UTF-8"?>
<svg id="_Слой_1" data-name="Слой 1" xmlns="http://www.w3.org/2000/svg" width="48.78" height="48.19" viewBox="0 0 138.26 136.61">
  <path d="m2.35,71.28c1.16-4.23,3.5-7.53,7.5-9.55,2.2-1.11,4.55-1.44,6.96-1.44,10.67-.02,21.34,0,32.01,0,2.61,0,2.36.16,2.37-2.43,0-7.8,0-15.59,0-23.39,0-3.62,1.04-6.87,3.46-9.6,2.55-2.86,5.74-4.6,9.6-4.61,19.69-.05,39.37-.05,59.06-.01,6.85.01,12.94,6.19,12.95,13.02.02,10.63.02,21.25,0,31.88-.01,5.98-3.94,11.14-9.71,12.77-.95.27-1.37.7-1.32,1.72.07,1.56.04,3.14,0,4.7-.02,1.18-.26,2.31-1.48,2.83-1.25.53-2.26,0-3.16-.91-2.23-2.26-4.51-4.48-6.73-6.76-.62-.64-1.28-.93-2.18-.93-7.58.02-15.16.04-22.73,0-1.26,0-1.64.42-1.64,1.66.04,8.06.04,16.11.02,24.17,0,3.45-.93,6.6-3.2,9.3-2.75,3.26-6.24,4.97-10.49,4.97-15.37.03-30.75.03-46.12-.02-1.33,0-2.28.37-3.2,1.33-2.06,2.19-4.23,4.27-6.36,6.39-.87.87-1.82,1.54-3.13.98-1.29-.55-1.54-1.68-1.56-2.91-.02-1.65-.02-3.31,0-4.96,0-.64-.18-1.08-.85-1.27-5.38-1.47-8.58-5.04-9.98-10.35-.02-.08-.07-.16-.1-.24,0-12.11,0-24.22,0-36.33Zm15.77,47.66c.12.07.23.15.35.22.9-.93,1.87-1.81,2.68-2.81,1.58-1.97,3.53-2.58,6.06-2.57,15.33.1,30.67-.03,46,.1,4.65.04,9.3-3.29,9.3-9.28,0-10.02,0-20.04,0-30.06,0-1.48-.2-2.96-.87-4.32-1.75-3.56-4.76-5.07-8.58-5.11-4.88-.05-9.76-.01-14.64-.01-13.98,0-27.97-.01-41.95,0-5.46,0-9.29,3.37-9.35,8.6-.14,10.54-.13,21.08,0,31.62.06,4.87,3.32,8.03,8.2,8.49,1.97.18,2.78,1.06,2.81,3.04,0,.69,0,1.39,0,2.08Zm101.96-39.84c.11-.06.23-.12.34-.18,0-.82-.02-1.64,0-2.46.04-1.62.69-2.38,2.28-2.68.81-.15,1.65-.2,2.43-.43,4.06-1.14,6.34-4.37,6.36-9.07.03-9.93.01-19.86,0-29.8,0-.91-.02-1.84-.21-2.73-.85-3.85-4.19-6.66-8.15-6.67-19.56-.04-39.12-.02-58.67,0-.56,0-1.14.05-1.68.2-4.28,1.14-6.74,4.44-6.75,9.09-.02,8.06,0,16.12,0,24.18,0,1.72,0,1.7,1.74,1.73,5.79.1,11.58-.23,17.37.18,5.93.42,11.45,5.74,11.96,11.63.12,1.34.58,1.74,1.93,1.73,8.1-.06,16.2-.02,24.31-.05,1.08,0,1.93.31,2.67,1.09,1.34,1.43,2.71,2.82,4.07,4.22Z"/>
  <path d="m26.94,82.7c3.72.01,6.82,3.12,6.82,6.84,0,3.63-3.24,6.86-6.87,6.85-3.78-.01-6.87-3.16-6.85-6.96.03-3.74,3.1-6.74,6.89-6.72Zm1.97,6.85c.01-1.1-.83-1.96-1.96-2-1.16-.04-2.01.73-2.04,1.86-.03,1.16.88,2.15,1.98,2.13,1.03-.01,2.01-.99,2.02-2Z"/>
  <path d="m44.72,82.7c3.78,0,6.83,3.03,6.84,6.78,0,3.79-3.16,6.96-6.9,6.91-3.66-.05-6.87-3.29-6.82-6.9.05-3.74,3.14-6.79,6.87-6.79Zm1.98,6.77c0-1.14-.83-1.93-1.99-1.92-1.14.01-2,.83-2.02,1.94-.02,1.06,1.03,2.1,2.1,2.06,1.05-.03,1.91-.97,1.91-2.08Z"/>
  <path d="m69.35,89.47c0,3.8-2.93,6.83-6.7,6.91-3.71.08-6.9-3.1-6.9-6.89,0-3.77,3.03-6.78,6.81-6.79,3.81,0,6.79,2.96,6.79,6.77Zm-4.83.01c-.01-1.15-.82-1.94-1.97-1.93-1.13.01-1.99.84-2.01,1.95-.02,1.05,1.04,2.09,2.1,2.05,1.07-.04,1.9-.94,1.88-2.07Z"/>
  <path d="m93.84,56.21c-9.14,0-18.28,0-27.43,0-1.79,0-1.82-.03-1.83-1.83-.01-3.56-.11-3,3.02-3,17.72-.02,35.44,0,53.15,0,2.17,0,2.19,0,2.17,2.11-.02,3.07.35,2.72-2.71,2.72-8.79.01-17.59,0-26.38,0Z"/>
  <path d="m84.94,33.57c6.19,0,12.37.03,18.56-.02,1.23,0,1.7.35,1.66,1.63-.1,3.72.42,3.23-3.17,3.24-11.8.02-23.61,0-35.41,0-1.97,0-1.99-.02-2-1.94-.02-3.51-.02-2.88,2.85-2.9,5.84-.03,11.67,0,17.51,0Z"/>
  <path d="m95.92,47.31c-3.96,0-7.92-.04-11.88.02-1.22.02-1.58-.41-1.55-1.59.11-3.79-.5-3.26,3.24-3.27,7.35-.03,14.71,0,22.06,0,1.79,0,1.81.01,1.8,1.83-.03,3.42.4,2.99-2.96,3.01-3.57.02-7.14,0-10.71,0Z"/>
  <path d="m95.92,65.1c-2.53,0-5.05-.03-7.57.01-.97.02-1.43-.24-1.41-1.31.1-4.04-.56-3.48,3.41-3.51,4.35-.03,8.71.03,13.06-.03,1.26-.02,1.8.31,1.76,1.68-.12,3.67.41,3.1-3.11,3.14-2.05.03-4.09,0-6.14,0Z"/>
  <path d="m71.5,47.31c-1.83,0-3.66-.04-5.48.02-.99.03-1.43-.32-1.44-1.33,0-4.37-.22-3.46,3.28-3.52,3.04-.05,6.09.02,9.14-.02.99-.01,1.43.31,1.42,1.34-.04,4.3.38,3.43-3.39,3.52-1.17.03-2.35,0-3.52,0Z"/>
  <path d="m116.02,33.57c1.87,0,3.73.03,5.6-.01.93-.02,1.34.3,1.32,1.27-.09,4.25.55,3.52-3.43,3.58-2.95.04-5.91-.02-8.86.02-1.04.02-1.49-.32-1.47-1.42.08-4.08-.44-3.38,3.33-3.44,1.17-.02,2.34,0,3.52,0Z"/>
  <path d="m116.03,65.1c-1.87,0-3.74-.03-5.61.01-.9.02-1.24-.34-1.23-1.23.05-4.17-.49-3.55,3.33-3.58,2.96-.03,5.92.03,8.87-.02,1.2-.02,1.57.41,1.56,1.6-.04,3.23.01,3.23-3.27,3.23-1.22,0-2.44,0-3.65,0Z"/>
  <path d="m118.31,47.31c-1.18,0-2.35-.02-3.53,0-.75.01-1.15-.3-1.13-1.07,0-.04,0-.09,0-.13.02-4.37-.47-3.57,3.4-3.64,1.57-.03,3.14.02,4.7,0,.81-.01,1.19.29,1.18,1.15-.07,4.48.58,3.6-3.45,3.7-.39,0-.78,0-1.18,0h0Z"/>
</svg>