<?xml version="1.0" encoding="UTF-8"?>
<svg id="_Слой_1" data-name="Слой 1" xmlns="http://www.w3.org/2000/svg" width="48.78" height="48.19" viewBox="0 0 138.26 136.61">
  <path d="m1.99,72.56c0-16.89,0-33.78,0-50.68,0-7.15,3.94-11.08,11.08-11.08,3.56,0,7.13-.08,10.69.03,1.71.06,2.27-.58,2.11-2.19-.09-.91-.05-1.84.02-2.75.19-2.29,1.23-3.3,3.55-3.32,3.85-.04,7.7-.02,11.55-.02,9.82,0,19.65,0,29.47,0,3.41,0,4.36.97,4.39,4.44q.03,3.81,3.87,3.81c3.33,0,6.66-.02,10,0,5.67.04,9.94,4.23,9.96,9.92.04,14.59.02,29.19.01,43.78,0,2.24-1.1,3.61-2.82,3.62-1.69.01-2.86-1.4-2.86-3.62-.02-14.25,0-28.5-.01-42.75,0-4.01-1.24-5.26-5.22-5.27-3.68,0-7.36.05-11.03-.02-1.39-.03-2.03.39-1.92,1.86.08,1.03.06,2.07-.03,3.1-.18,2.04-1.22,3.02-3.24,3.02-14.13.02-28.27.02-42.4,0-2.03,0-2.97-.81-3.21-2.82-.15-1.25-.11-2.52-.11-3.78,0-.94-.42-1.35-1.36-1.35-4.37.02-8.73-.03-13.1.04-1.92.03-3.43,1.56-3.66,3.49-.08.68-.05,1.38-.05,2.07,0,33.67,0,67.34,0,101.01,0,4.32,1.3,5.61,5.67,5.61,24.71,0,49.41,0,74.12,0,4.29,0,5.53-1.25,5.53-5.54,0-3.05-.02-6.09,0-9.14.02-2.23,1.14-3.58,2.87-3.57,1.74.02,2.8,1.35,2.81,3.62.02,3.33.02,6.66,0,10-.03,5.99-4.16,10.19-10.16,10.31-2.87.06-5.75.01-8.62.01-22.35,0-44.7,0-67.05,0-3.72,0-6.89-1.14-9.1-4.3-1.37-1.96-1.79-4.18-1.79-6.53.01-17.01,0-34.01,0-51.02ZM50.34,18.8c5.69,0,11.38-.03,17.06.02,1.32.01,1.86-.4,1.81-1.78-.09-2.35-.07-4.71,0-7.07.03-1.21-.29-1.76-1.63-1.75-11.49.04-22.98.04-34.47,0-1.34,0-1.66.54-1.63,1.75.07,2.3.1,4.6-.01,6.89-.07,1.54.5,1.98,1.99,1.96,5.63-.07,11.26-.03,16.89-.03Z"/>
  <path d="m127.79,33.91c3.33.27,6.29,1.66,8.13,4.89,1.94,3.4,1.85,6.83-.28,10.1-2.16,3.32-4.41,6.59-6.73,9.8-.8,1.11-.71,1.66.42,2.43,4.67,3.16,4.7,3.42,1.52,8.05-4.43,6.43-8.87,12.85-13.31,19.28-.13.19-.26.38-.4.56-1.14,1.49-2.71,1.87-4.04.96-1.3-.89-1.59-2.6-.56-4.12,2.11-3.15,4.29-6.25,6.44-9.37,2.15-3.12,4.31-6.23,6.45-9.36.37-.55,1.18-1.08.11-1.82-1.08-.75-1.3.23-1.67.76-9.37,13.55-18.87,27.03-28.01,40.74-2.97,4.45-6.72,6.93-11.84,7.56-1.54.19-2.54.83-3.3,2.1-.47.78-1,1.55-1.6,2.24-.98,1.13-2.58,1.33-3.74.55-1.18-.8-1.79-2.5-.79-3.61,2.53-2.81,2.67-5.81,1.94-9.34-.7-3.35.36-6.43,2.41-9.36,13.31-19.07,26.5-38.22,39.66-57.4,2.22-3.23,4.88-5.44,9.19-5.64Zm-45.71,71.08c.1,1.02.04,2.06.34,3.07.16.54.39.81.96.69,2.51-.56,4.95-.98,6.62-3.44,7.61-11.22,15.37-22.34,23.07-33.49,3.85-5.58,7.68-11.17,11.56-16.73.74-1.05.84-1.74-.41-2.46-1.29-.74-2.52-1.61-3.68-2.55-1.18-.96-1.85-.76-2.71.5-11.48,16.72-23,33.41-34.55,50.07-.94,1.36-1.41,2.73-1.2,4.36Zm45.43-65.36c-1.69.03-5.06,3.01-5.13,4.54-.02.41.29.59.57.79,1.69,1.18,3.39,2.34,5.08,3.52.49.34.9.45,1.28-.17.65-1.07,1.48-2.06,1.97-3.2,1.14-2.64-.9-5.51-3.77-5.47Z"/>
  <path d="m50.24,93.06c-8.9,0-17.8,0-26.7,0-.63,0-1.28.04-1.89-.08-1.4-.27-2.29-1.17-2.36-2.58-.06-1.32.64-2.27,1.92-2.76.66-.25,1.34-.27,2.03-.27,18.08,0,36.17,0,54.25,0,.69,0,1.37.03,2.03.29,1.26.51,1.97,1.43,1.86,2.78-.11,1.34-.93,2.22-2.24,2.51-.6.14-1.26.1-1.88.1-9.01,0-18.03,0-27.04,0Z"/>
  <path d="m50.24,54.57c9.3,0,18.61,0,27.91,0,1.31,0,2.36.38,2.97,1.63.49,1,.28,1.9-.32,2.75-.42.58-.98.98-1.71,1.06-.85.09-1.71.2-2.57.2-17.46.01-34.92.01-52.38,0-.8,0-1.61-.03-2.4-.17-1.54-.28-2.55-1.48-2.48-2.84.07-1.47,1.23-2.57,2.89-2.6,2.7-.05,5.4-.02,8.1-.02,6.66,0,13.33,0,19.99,0Z"/>
  <path d="m50.26,76.52c-9.25,0-18.49,0-27.74,0-1.24,0-2.26-.34-2.89-1.48-.54-.95-.43-1.88.15-2.77.42-.65,1.02-1.1,1.81-1.19.85-.1,1.71-.2,2.57-.2,17.46-.01,34.92,0,52.38-.01.98,0,1.96-.03,2.9.28,1.29.43,2.02,1.41,1.95,2.73-.07,1.41-.93,2.33-2.35,2.57-.56.1-1.15.05-1.72.05-9.02,0-18.03,0-27.05,0Z"/>
  <path d="m50.38,38.04c8.96,0,17.91,0,26.87,0,2.27,0,3.46.91,3.54,2.64.08,1.54-.74,2.62-2.32,2.93-.67.13-1.37.12-2.06.12-17.4,0-34.79,0-52.19,0-.74,0-1.51,0-2.22-.18-1.47-.37-2.2-1.4-2.11-2.93.09-1.49,1.04-2.24,2.4-2.51.55-.11,1.14-.06,1.72-.06,8.78,0,17.57,0,26.35,0Z"/>
  <path d="m38.72,103.89c5.05,0,10.1,0,15.14,0,2.26,0,3.62,1.07,3.62,2.78,0,1.74-1.35,2.89-3.56,2.9-10.21.02-20.42.02-30.63,0-2.24,0-3.46-1.15-3.4-3,.06-1.71,1.28-2.67,3.51-2.68,5.11-.02,10.21,0,15.32,0Z"/>
</svg>