<?xml version="1.0" encoding="UTF-8"?>
<svg id="_Слой_1" data-name="Слой 1" xmlns="http://www.w3.org/2000/svg" width="48.78" height="48.19" viewBox="0 0 138.26 136.61">
  <path d="m77.89,1.35c11.84,0,23.69,0,35.53,0,2.67,0,2.99.45,2.7,3.07-.46,4.06-.79,8.14-1.18,12.21-.3,3.18-.58,6.37-.92,9.55-.11,1.03-.29,2.18-1.74,2.02-1.39-.15-1.32-1.26-1.24-2.25.29-3.36.62-6.73.93-10.09.32-3.45.63-6.9.98-10.35.08-.8-.11-1.2-.97-1.1-.09.01-.18,0-.27,0-2.09-.03-2.13-.03-2.34,2.06-.58,5.97-1.1,11.95-1.68,17.92-.67,6.85-1.39,13.7-2.05,20.56-.49,5.04-.92,10.09-1.41,15.13-.58,5.97-1.19,11.94-1.79,17.9-.37,3.76-.73,7.52-1.11,11.27-.08.78.21,1.19,1.03,1.17.49-.01.98,0,1.47-.01.62-.02.98-.29,1.04-.96.44-4.73.89-9.47,1.35-14.2.5-5.17,1.02-10.35,1.52-15.52.48-4.95.95-9.91,1.42-14.86.29-3.1.58-6.19.88-9.29.03-.35.12-.7.21-1.05.2-.82.75-1.19,1.57-1.1.86.09,1.27.63,1.24,1.45-.06,1.42-.14,2.84-.28,4.25-.58,5.92-1.2,11.85-1.78,17.77-.57,5.79-.91,11.62-1.73,17.37-.79,5.57.84,10.76,1.81,16.05,1.94,10.58,4.03,21.13,6.05,31.69.31,1.64-.25,2.36-1.91,2.37-4.14.02-8.28,0-12.42.02-1.35,0-1.98-.6-2.23-1.93-1.73-9.17-3.52-18.33-5.29-27.49-.29-1.5-.94-1.91-2.43-1.53-.22.06-.51.12-.52.34-.05,1.41-.98,2.69-.71,4.12,2.21,11.57,4.44,23.13,6.67,34.7.48,2.5.07,3.02-2.5,3.02-3.74,0-7.48,0-11.22,0-2.14,0-2.44-.23-2.85-2.32-1.82-9.43-3.62-18.85-5.43-28.28-.42-2.18-.93-4.35-1.25-6.55-.17-1.12-.69-1.36-1.69-1.34-2.67.05-5.34.07-8.01-.01-1.1-.03-1.47.43-1.65,1.4-1.33,7.08-2.7,14.14-4.05,21.22-.9,4.67-1.8,9.34-2.68,14.01-.24,1.3-.91,1.9-2.28,1.89-4.1-.05-8.19,0-12.29-.02-1.79,0-2.35-.69-2.03-2.4,2.23-11.56,4.45-23.13,6.69-34.69.13-.66.2-1.19-.51-1.59-.87-.48-.75-1.36-.68-2.15.1-1.06-.3-1.4-1.36-1.39-3.65.05-7.3.02-10.95.02-2.43,0-2.74-.43-2.48-2.85.43-4.02.77-8.05,1.15-12.07.31-3.23.63-6.46.95-9.68.03-.35.26-.79-.03-1.02-.4-.32-.72.16-1.02.36-5.27,3.5-10.66,6.8-16.45,9.38-2.16.96-4.36,1.77-6.73,2.1-3.09.44-5.02-1.66-4.24-4.67.5-1.93,1.57-3.59,2.72-5.17,5.4-7.38,11.85-13.74,18.9-19.52,1.36-1.12,2.97-1.8,4.76-1.9.62-.04.97-.31,1.25-.82.62-1.1,1.41-2.06,2.57-2.64.61-.31.7-.9.75-1.47.56-5.97,1.09-11.95,1.67-17.92.66-6.85,1.34-13.71,2.07-20.55.39-3.64.46-3.64,4.16-3.64,11.44,0,22.89,0,34.33,0Zm24.15,48.68c.08-.23.15-.34.16-.46.35-3.49.71-6.98,1.05-10.48.29-2.96.55-5.93.84-8.89.1-.97-.13-1.51-1.28-1.45-1.56.07-3.11-.21-4.63-.54-5.5-1.2-9.79-3.97-11.88-9.45-1.59-4.16-1.46-8.45-.75-12.76.14-.86.44-1.61-1.02-1.61-13.58.04-27.16.03-40.74.01-1.08,0-1.48.39-1.54,1.47-.15,2.39-.38,4.78-.68,7.16-.12.97.09.95.87.65,2.95-1.11,5.68-.61,7.87,1.61.92.93,1.84,1.36,3.05,1.59,4.09.79,6.55,3.12,7.23,6.71.39,2.04,0,2.78-1.98,3.37-5.63,1.69-11.35,2.59-17.23,1.57-.8-.14-1.29.08-1.37.97-.13,1.59-.29,3.18-.44,4.78-.1,1.12-.45,2.24-.11,3.54,1.89-1.57,4-2.34,6.26-2.73,2.52-.44,4.92-1.06,7-2.72,1.31-1.04,2.98-.47,3.78,1.12.84,1.67,1.46,3.44,1.79,5.29.54,3.13.58,6.21-1.09,9.07-1.07,1.83-.97,2.15,1.1,2.9.45.17.94.25,1.43.31,2.41.31,4.46-.66,6.38-1.92,2.72-1.78,5.35-3.69,8.1-5.43,2.89-1.82,5.96-3.16,9.5-3.13,4.32.03,8.21,1.36,11.8,3.68,2.43,1.58,4.57,3.49,6.54,5.74Zm-32.6,17.84c9.89-.14,19.72.63,29.5,2.08.84.12,1.33,0,1.42-1.02.39-4.42.85-8.84,1.29-13.26.07-.7-.05-1.31-.49-1.88-2.45-3.17-5.27-5.92-8.82-7.84-5.67-3.07-11.28-3.25-16.77.45-1.03.7-2.07,1.39-3.09,2.1-2.35,1.61-4.6,3.36-7.21,4.56-3.76,1.72-7.35,1.52-10.7-.97-.64-.48-1.1-.5-1.76-.06-1.92,1.27-3.97,2.2-6.35,2.14-.47-.01-.92.04-.96.66-.19,2.48-1.85,3.6-3.98,4.28-.53.17-.97.35-1.14.97-.48,1.79-1.61,3.15-3,4.32-.5.42-.89.87-.95,1.54-.11,1.24-.18,2.48-.32,3.72-.12,1.11.14,1.48,1.39,1.21,10.53-2.22,21.18-3.16,31.93-2.99Zm-1.7,2.93c-4.85.19-9.34.25-13.81.67-5.8.55-11.55,1.37-17.24,2.63-.81.18-1.07.52-1.14,1.33-.19,2.34-.5,4.68-.72,7.02-.22,2.25-.39,4.51-.59,6.77-.08.86.3,1.21,1.15,1.21,3.29-.02,6.59-.01,9.88,0,.79,0,1.09-.36,1.12-1.14.04-1.06.17-2.12.28-3.18.14-1.38.67-1.89,2.05-1.92,1.6-.02,3.21-.05,4.8,0,.93.03,1.56-.25,2.15-1,2.96-3.69,6.26-7.05,9.7-10.28.7-.66,1.44-1.28,2.37-2.11ZM97.62,4.41c-2.44,0-4.89.04-7.33-.02-1.04-.02-1.47.35-1.67,1.39-.54,2.87-.7,5.76-.33,8.62.54,4.21,2.58,7.54,6.49,9.48,2.76,1.37,5.72,1.85,8.79,1.81.72,0,.99-.29,1.06-1.02.59-6.27,1.21-12.54,1.84-18.8.11-1.11-.27-1.5-1.39-1.48-2.49.06-4.98.02-7.47.02ZM31.35,51.46c-1.53-.02-2.71.8-3.81,1.71-5.31,4.43-10.17,9.31-14.67,14.56-1.88,2.2-3.72,4.44-4.93,7.1-.23.5-.67,1.09-.18,1.61.44.47,1.08.25,1.65.13,1.35-.29,2.67-.72,3.93-1.28,7.88-3.51,15.19-7.98,22.06-13.19,1.95-1.48,2.76-3.38,1.98-5.09-1.15-2.52-2.52-4.96-5.63-5.55-.13-.02-.27,0-.4,0Zm52.79,32.71c2.27,0,4.53-.02,6.8,0,1.63.02,2.22.74,2.03,2.38-.11.93-.12,1.87-.29,2.78-.17.9.23,1.1,1,1.09.98-.02,1.96-.08,2.93.02,1.29.13,1.73-.5,1.84-1.66.44-4.73.87-9.45,1.37-14.17.13-1.24-.4-1.65-1.53-1.77-1.76-.17-3.52-.49-5.28-.67-3.22-.33-6.45-.61-9.67-.92-.72-.07-1.25.1-1.64.82-1.94,3.55-3.69,7.19-5.2,10.95-.38.94-.07,1.17.84,1.16,2.27-.03,4.53-.01,6.8,0Zm-18.42,9.93c5.16,0,10.32-.02,15.48.02,1.01,0,1.56-.19,1.57-1.37.01-1.28.25-2.56.42-3.84.19-1.45.03-1.66-1.4-1.66-2.63-.01-5.25,0-7.88,0-7.52,0-15.04.02-22.56-.02-1.29,0-2,.22-1.92,1.73.06,1.14-.16,2.3-.31,3.44-.22,1.69-.24,1.7,1.52,1.7,5.03,0,10.06,0,15.08,0Zm14.99,3.06c-.4,0-.8,0-1.2,0-1.66,0-1.68.02-1.37,1.62,2.04,10.6,4.08,21.2,6.13,31.79.38,1.99.39,1.99,2.5,1.99.62,0,1.25-.05,1.87.01,1.29.14,1.56-.31,1.31-1.59-2.06-10.41-4.05-20.84-6.08-31.26-.58-2.99.03-2.52-3.16-2.57Zm-27.58,0c-.22,0-.45,0-.67,0-2.16.07-1.99-.47-2.48,2.09-.65,3.4-1.31,6.8-1.97,10.21-1.4,7.29-2.77,14.58-4.21,21.85-.2,1,.06,1.3,1.01,1.26,1.02-.04,2.05-.04,3.07,0,.94.04,1.3-.36,1.47-1.29,1.99-10.47,4.03-20.94,6.05-31.41.53-2.73.54-2.72-2.28-2.72Zm47.66-3.73q-2.75,0-2.22,2.65c.03.13.04.26.07.39,1.52,7.89,3.05,15.78,4.54,23.68.16.87.56,1.22,1.44,1.18.98-.05,1.96-.05,2.93,0,1.04.05,1.4-.19,1.17-1.37-1.58-7.88-3.05-15.78-4.6-23.67-.64-3.25.04-2.83-3.33-2.87Zm-41.96-9.27c4.66,0,8.97,0,13.28,0,.51,0,.83-.24,1-.72,1.44-3.98,3.29-7.79,5.25-11.53.39-.74.1-.94-.63-.94-1.25,0-2.49-.04-3.74-.06-.67-.01-1.34-.09-1.93.35-4.84,3.68-9.1,7.96-13.24,12.89Zm-12.45-58.25c1.41.19,2.95-.14,4.49-.31,1.71-.2,3.4-.62,5.08-1,1.83-.42,2.01-.96.84-2.48-1.29-1.67-3.14-2.27-5.14-2.42-1.36-.11-2.42-.39-3.1-1.8-.69-1.42-2.91-2.02-4.6-1.53-1.79.52-2.9,1.89-3.02,3.59-.09,1.41-.19,2.84-.43,4.23-.15.89.15,1.22.96,1.34,1.58.22,3.16.49,4.92.39Zm-6,17.97c.28,2.39,1.8,4.75,4.11,6.66.49.41,1.11.51,1.75.56,2.45.17,4.33-1.08,6.17-2.44.26-.19.5-.49.3-.8-1.17-1.85-1.62-4.18-3.59-5.52-1.36-.93-2.69-1.9-3.4-3.47-.17-.37-.46-.48-.87-.45-2.34.14-4.5,2.46-4.47,5.47Zm12.75,88.68c1.05.12,1.11-.69,1.24-1.37.7-3.57,1.37-7.15,2.06-10.73,1.42-7.37,2.83-14.74,4.25-22.1.07-.39.27-.84-.18-1.08-.4-.21-.88-.19-1.29.02-.42.22-.36.68-.43,1.06-1.41,7.28-2.81,14.56-4.22,21.84-.72,3.75-1.43,7.5-2.16,11.25-.12.64-.21,1.2.73,1.1Zm41.07,0c1.26.1.86-.78.75-1.34-2.1-11-4.24-21.99-6.34-32.98-.16-.84-.56-1.17-1.36-1.05-.92.15-.61.83-.51,1.36.66,3.54,1.35,7.07,2.03,10.6,1.43,7.42,2.86,14.83,4.28,22.25.13.66.32,1.23,1.15,1.16Zm13.79-42.17c-.31.87-.14,1.79-.74,2.46-.49.54-.49,1.05-.36,1.7,1.65,8.54,3.28,17.07,4.9,25.62.17.92.65,1.35,1.56,1.13.99-.23.39-.99.31-1.41-.84-4.63-1.75-9.24-2.64-13.85-1.01-5.21-2.02-10.42-3.03-15.64Zm-52.98-44.9c1.35-3.41.41-6.49-.73-9.54-.22-.59-.63-.48-1.07-.2-1.13.71-2.34,1.27-3.64,1.59-1.08.26-1.11.7-.32,1.35.27.23.55.45.85.64,1.79,1.11,3.1,2.62,3.97,4.53.23.51.35,1.1.94,1.62Zm-12.62,9.05c.01-.53-.2-.98-.43-1.41-.97-1.83-2.25-3.42-3.82-4.76-.33-.28-.73-.51-1.14-.67-.88-.35-1.28.32-1.7.9-.45.62-.05.96.4,1.31,1.82,1.42,3.23,3.17,4.19,5.27.24.52.45,1.14,1.25.83.68-.27,1.34-.58,1.24-1.48Zm47.3,34.42c-.08-.73.33-1.61-.93-1.71-1.98-.15-2.32-.05-2.52,1.38-.19,1.36-.29,2.73-.4,4.1-.06.68-.09,1.47.92,1.36.92-.1,2.29.67,2.51-1.08.17-1.36.29-2.73.42-4.05Z"/>
  <path d="m111.95,29.39c.96,0,1.52.49,1.55,1.34.03.92-.54,1.48-1.49,1.48-.9,0-1.42-.56-1.42-1.41,0-.86.53-1.36,1.36-1.42Z"/>
  <path d="m72.5,27.23c0-.65.35-1.08.9-1.38,2.33-1.29,4.66-2.58,7-3.87.87-.48,1.66-.4,2.19.48.57.93.12,1.65-.69,2.11-2.36,1.33-4.73,2.65-7.13,3.9-1.16.61-2.29-.07-2.26-1.25Z"/>
  <path d="m73.96,9.9c1.16,0,2.32-.01,3.47,0,.92.01,1.58.44,1.65,1.39.07.98-.6,1.54-1.47,1.56-2.49.07-4.98.07-7.47,0-.87-.02-1.57-.55-1.52-1.53.05-1.02.76-1.44,1.74-1.44,1.2,0,2.4,0,3.61,0Z"/>
  <path d="m88.86,37.86c-.8-.1-1.29-.79-1.03-1.73.58-2.09,1.46-4.09,2.4-6.05.36-.75,1.14-.86,1.85-.57.74.31,1.09.97.8,1.75-.74,1.95-1.54,3.87-2.35,5.79-.24.57-.76.85-1.67.8Z"/>
</svg>