<?xml version="1.0" encoding="UTF-8"?>
<svg id="_Слой_1" data-name="Слой 1" xmlns="http://www.w3.org/2000/svg" width="23.1" height="22.92" viewBox="0 0 65.74 64.96">
  <defs>
    <style>
      .cls-1 {
        fill: none;
        stroke: #000;
        stroke-linecap: round;
        stroke-linejoin: round;
        stroke-width: 2px;
      }
    </style>
  </defs>
  <path class="cls-1" d="m36.93,45.98c-1.12.08-1.97-.51-2.79-1.16-4.03-3.19-7.72-6.75-11.17-10.56-1.13-1.25-2.24-2.53-3.25-3.89-1.3-1.75-1.07-3.86.53-5.03.36-.27.8-.38,1.24-.47.98-.21,1.91-.57,2.71-1.17,1.09-.83,1.51-2.59,1.01-4.1-.27-.81-.59-1.61-1.07-2.34-2.13-3.24-3.88-6.69-5.61-10.15-.61-1.21-1.22-2.46-2.23-3.42-1.81-1.74-3.83-1.96-5.88-.52-2.27,1.59-4.45,3.32-6.3,5.41-1.69,1.9-2.42,4.16-2.24,6.67.14,1.87.86,3.59,1.62,5.28,2.62,5.85,5.75,11.41,9.63,16.53,3.01,3.97,6.34,7.65,10.09,10.94,6.05,5.31,12.74,9.62,20.09,12.89,1.72.77,3.41,1.6,5.27,2.04,3.23.76,5.95-.18,8.3-2.35,1.8-1.66,3.27-3.62,4.74-5.58,1.88-2.5.7-5.73-1.55-7.22-1.75-1.16-3.61-2.15-5.44-3.18-2.42-1.37-4.85-2.72-7.3-4.03-.96-.51-1.96-.92-3.1-.96-1.78-.06-2.85.83-3.58,2.34-.29.6-.4,1.25-.61,1.87-.49,1.46-1.49,2.17-3.03,2.17"/>
</svg>