<svg width="25" height="22" viewBox="0 0 25 22" fill="none" xmlns="http://www.w3.org/2000/svg">
<path d="M23.7548 0.921519C23.653 0.83363 23.5292 0.775196 23.3967 0.75252C23.2641 0.729844 23.1279 0.743787 23.0028 0.792846L1.62846 9.15757C1.36848 9.2593 1.14853 9.44263 1.00162 9.68002C0.854718 9.91742 0.788798 10.1961 0.813763 10.4741C0.838727 10.7522 0.953227 11.0146 1.14007 11.2221C1.32691 11.4295 1.57601 11.5707 1.84995 11.6245L7.55792 12.7456V19.0938C7.55803 19.3881 7.64609 19.6756 7.8108 19.9195C7.9755 20.1634 8.20933 20.3525 8.48227 20.4626C8.75522 20.5727 9.05483 20.5987 9.34265 20.5372C9.63047 20.4758 9.89337 20.3298 10.0976 20.1179L12.9073 17.2038L17.2927 21.0481C17.5604 21.285 17.9055 21.4159 18.263 21.4162C18.4191 21.4158 18.5742 21.3913 18.7228 21.3434C18.9665 21.2663 19.1856 21.1267 19.3585 20.9385C19.5313 20.7503 19.6518 20.5201 19.7079 20.2708L23.9921 1.64609C24.0222 1.51515 24.016 1.37848 23.9742 1.2508C23.9324 1.12312 23.8565 1.00927 23.7548 0.921519ZM2.07881 10.3789C2.07477 10.368 2.07477 10.356 2.07881 10.3452C2.08358 10.3415 2.08893 10.3386 2.09463 10.3367L18.939 3.74281L8.04413 11.5475L2.09463 10.3831L2.07881 10.3789ZM9.18635 19.2383C9.15728 19.2684 9.11989 19.2893 9.07894 19.2981C9.03799 19.3069 8.99534 19.3034 8.95642 19.2879C8.91751 19.2724 8.88408 19.2456 8.86042 19.2111C8.83675 19.1765 8.82391 19.1357 8.82354 19.0938V13.621L11.9549 16.3632L9.18635 19.2383ZM18.475 19.985C18.4672 20.0207 18.45 20.0536 18.4251 20.0803C18.4003 20.107 18.3687 20.1266 18.3337 20.1369C18.2979 20.1494 18.2595 20.1521 18.2224 20.1447C18.1853 20.1373 18.1509 20.12 18.1227 20.0947L9.20745 12.2742L22.429 2.79886L18.475 19.985Z" fill="black"/>
</svg>
