<svg height="512" viewBox="0 0 64 64" width="512" xmlns="http://www.w3.org/2000/svg" data-name="Layer 3"><rect fill="#5e87ca" height="42" rx="2" width="60" x="2" y="2"/><path d="M10 40h44a4 4 0 014-4V10a4 4 0 01-4-4H10a4 4 0 01-4 4v26a4 4 0 014 4z" fill="#f2f2f2"/><path d="M54.09 6.835A4.03 4.03 0 0154 6H10a4 4 0 01-4 4v26a3.982 3.982 0 012.8 1.147h43.29a2 2 0 002-2z" fill="#fff"/><path d="M34 45.459V55l-4-4-4 4V43.835a3.98 3.98 0 001.611.4 2.825 2.825 0 011.75.764A3.972 3.972 0 0034 45.46z" fill="#f9d266"/><path d="M38 43.835V62l-4-4-4 4V51l4 4v-9.54a3.964 3.964 0 00.639-.46 2.825 2.825 0 011.75-.764 3.98 3.98 0 001.611-.4z" fill="#f0ae42"/><path d="M23 38.639a2.825 2.825 0 01.764 1.75 3.971 3.971 0 003.843 3.843 2.825 2.825 0 011.75.764 3.97 3.97 0 005.278 0 2.825 2.825 0 011.75-.764 3.971 3.971 0 003.843-3.843 2.825 2.825 0 01.772-1.75 3.97 3.97 0 000-5.278 2.825 2.825 0 01-.764-1.75 3.971 3.971 0 00-3.843-3.843A2.825 2.825 0 0134.639 27a3.97 3.97 0 00-5.278 0 2.825 2.825 0 01-1.75.764 3.971 3.971 0 00-3.843 3.843A2.825 2.825 0 0123 33.361a3.97 3.97 0 000 5.278z" fill="#d5883e"/><circle cx="32" cy="36" fill="#f9d266" r="5"/><path d="M27 36a4.95 4.95 0 00.625 2.375A4.95 4.95 0 0030 39a5 5 0 005-5 4.95 4.95 0 00-.625-2.375A4.95 4.95 0 0032 31a5 5 0 00-5 5z" fill="#fce797"/><path d="M23 9h18v2H23zm-6 4h30v2H17zm-4 4h38v2H13z" fill="#c0dafc"/><path d="M45 35h6v2h-6zm-32 0h6v2h-6z" fill="#78a0d4"/></svg>