<svg id="Capa_1" enable-background="new 0 0 512.003 512.003" height="512" viewBox="0 0 512.003 512.003" width="512" xmlns="http://www.w3.org/2000/svg"><g><path d="m336.001 80.013c0 25.41-11.86 48.05-30.34 62.7-11.24 8.91-17.59 22.61-17.66 36.93v19.28c0 13.65-11.07 24.72-24.73 24.72h-14.54c-13.66 0-24.73-11.07-24.73-24.72v-19.28c-.07-14.41-6.58-28.09-17.84-37.07-18.54-14.78-30.37-37.63-30.15-63.24.35-42.93 35.14-78.29 78.05-79.31 45.07-1.06 81.94 35.15 81.94 79.99z" fill="#ffe177"/><path d="m272.002 56.281c-6.16 0-11.778 2.361-16 6.224-4.222-3.863-9.84-6.224-16-6.224-13.082 0-23.726 10.643-23.726 23.726v16c0 4.267 3.459 7.726 7.726 7.726s7.726-3.459 7.726-7.726v-16c0-4.562 3.711-8.274 8.273-8.274s8.274 3.712 8.274 8.274v107.363c0 4.267 3.459 7.726 7.726 7.726 4.268 0 7.726-3.459 7.726-7.726v-107.362c0-4.562 3.711-8.274 8.274-8.274s8.274 3.712 8.274 8.274v16c0 4.267 3.459 7.726 7.726 7.726s7.726-3.459 7.726-7.726v-16c.002-13.083-10.642-23.727-23.725-23.727z" fill="#eaf6ff"/><path d="m299.382 297.446h30.935c8.187 0 14.824 6.637 14.824 14.824v11.108c0 8.187-6.637 14.824-14.824 14.824h-30.935z" fill="#ffb09e"/><path d="m212.623 297.446h-30.935c-8.187 0-14.824 6.637-14.824 14.824v11.108c0 8.187 6.637 14.824 14.824 14.824h30.935z" fill="#f89580"/><path d="m347.637 458.277 56.525-19.335h55.676l52.161 17.842v55.217h-182.071v-28.949c0-11.195 7.117-21.152 17.709-24.775z" fill="#fe646f"/><path d="m462.903 439.994-53.456 18.286c-10.59 3.616-17.709 13.578-17.709 24.776v28.948h-61.81v-28.948c0-11.198 7.118-21.16 17.709-24.776l56.526-19.336h55.671z" fill="#fd4755"/><path d="m459.842 392.543v46.47l-27.841 37.94-27.84-37.94v-46.47z" fill="#ffb09e"/><path d="m459.842 392.543v33.03c-7.29 3.66-15.51 5.72-24.2 5.72h-7.29c-8.69 0-16.91-2.06-24.19-5.72v-33.03z" fill="#f89580"/><path d="m384.232 319.208v57.965c0 24.367 19.754 44.121 44.121 44.121h7.293c24.367 0 44.121-19.754 44.121-44.121v-57.965c0-7.462-6.049-13.512-13.512-13.512h-68.512c-7.461 0-13.511 6.05-13.511 13.512z" fill="#ffcebf"/><path d="m442.299 420.802c-2.163.319-4.389.495-6.655.495h-7.294c-24.364 0-44.122-19.759-44.122-44.122v-57.968c0-7.458 6.057-13.506 13.516-13.506h20.603c-7.459 0-13.516 6.047-13.516 13.506v57.968c.001 22.096 16.257 40.412 37.468 43.627z" fill="#ffb09e"/><path d="m384.232 334.308h19.152c7.3 0 14.277-3.006 19.291-8.312l13.104-13.867 8.511 14.844c2.601 4.537 7.431 7.335 12.661 7.335h22.816v-29.812c0-18.09-14.665-32.755-32.755-32.755h-30.026c-18.09 0-32.755 14.665-32.755 32.755v29.812z" fill="#68748f"/><path d="m416.988 271.746h20.603c-18.09 0-32.76 14.659-32.76 32.749v29.772c-.484.031-.968.041-1.452.041h-19.151v-29.813c0-18.09 14.67-32.749 32.76-32.749z" fill="#5d6980"/><path d="m164.368 458.277-56.525-19.335h-55.676l-52.161 17.842v55.217h182.071v-28.949c0-11.195-7.117-21.152-17.709-24.775z" fill="#aee69c"/><path d="m83.078 438.943-52.168 17.843v55.217h-30.906v-55.217l52.168-17.843z" fill="#89daa4"/><path d="m107.841 392.543v46.47l-27.84 37.94-27.83-37.94v-46.47z" fill="#ffb09e"/><path d="m107.841 392.543v33.03c-7.28 3.66-15.5 5.72-24.19 5.72h-7.29c-8.69 0-16.91-2.06-24.19-5.72v-33.03z" fill="#f89580"/><path d="m32.237 319.208v57.965c0 24.367 19.754 44.121 44.121 44.121h7.293c24.367 0 44.121-19.754 44.121-44.121v-57.965c0-7.462-6.049-13.512-13.512-13.512h-68.511c-7.462 0-13.512 6.05-13.512 13.512z" fill="#ffcebf"/><path d="m90.309 420.802c-2.174.319-4.388.495-6.655.495h-7.294c-24.374 0-44.122-19.759-44.122-44.122v-57.968c0-7.458 6.047-13.506 13.506-13.506h20.603c-7.459 0-13.506 6.047-13.506 13.506v57.968c.001 22.096 16.247 40.412 37.468 43.627z" fill="#ffb09e"/><path d="m32.237 334.308h19.152c7.3 0 14.277-3.006 19.291-8.312l13.104-13.867 8.511 14.844c2.601 4.537 7.431 7.335 12.661 7.335h22.816v-29.812c0-18.09-14.665-32.755-32.755-32.755h-30.025c-18.09 0-32.755 14.665-32.755 32.755z" fill="#68748f"/><path d="m64.988 271.746h20.603c-18.09 0-32.749 14.659-32.749 32.749v29.772c-.484.031-.968.041-1.453.041h-19.151v-29.813c0-18.09 14.66-32.749 32.75-32.749z" fill="#5d6980"/><path d="m350.276 439.639-63.165-21.606h-62.216l-63.165 21.606c-11.837 4.049-19.79 15.175-19.79 27.685v44.677h228.126v-44.677c0-12.51-7.954-23.636-19.79-27.685z" fill="#8ac9fe"/><path d="m255.796 418.031-63.16 21.613c-11.837 4.049-19.79 15.174-19.79 27.681v44.679h-30.905v-44.679c0-12.506 7.953-23.632 19.79-27.681l63.16-21.613z" fill="#60b7ff"/><path d="m287.111 366.183v51.85l-32.22 33.92-30-33.92v-51.85z" fill="#ffb09e"/><path d="m266.301 223.463c-.99.12-2 .18-3.03.18h-14.54c-13.66 0-24.73-11.07-24.73-24.72v-19.28c-.07-14.41-6.58-28.09-17.84-37.07-18.54-14.78-30.37-37.63-30.15-63.24.35-42.93 35.14-78.29 78.05-79.31 4.18-.1 8.28.13 12.27.64-39 5.06-69.39 38.55-69.72 78.67-.21 25.61 11.61 48.46 30.15 63.24 11.27 8.98 17.78 22.66 17.85 37.07v19.28c0 12.62 9.46 23.04 21.69 24.54z" fill="#ffd15b"/><path d="m288 187.375v11.548c0 13.65-11.064 24.724-24.724 24.724h-14.546c-13.66 0-24.724-11.074-24.724-24.724v-11.548z" fill="#eaf6ff"/><path d="m266.304 223.462c-.989.124-1.999.185-3.029.185h-14.546c-13.66 0-24.724-11.074-24.724-24.724v-11.548h20.603v11.548c.001 12.62 9.468 23.045 21.696 24.539z" fill="#d8ecfe"/><g><g><path d="m224.001 179.643h64v15.45h-64z" fill="#68748f"/></g></g><g><g><path d="m224.001 179.643h20.61v15.45h-20.61z" fill="#5d6980"/></g></g><g><g><path d="m405.8 71.631h-21.697c-4.268 0-7.726-3.459-7.726-7.726s3.459-7.726 7.726-7.726h21.697c4.268 0 7.726 3.459 7.726 7.726s-3.458 7.726-7.726 7.726z" fill="#ffe177"/></g><g><g><path d="m382.064 36.925c-2.767 0-5.441-1.489-6.83-4.102-2.002-3.768-.571-8.446 3.196-10.449l19.899-10.577c3.774-2.003 8.447-.57 10.45 3.196 2.002 3.768.571 8.446-3.196 10.449l-19.899 10.578c-1.156.614-2.398.905-3.62.905z" fill="#ffe177"/></g><g><path d="m401.949 117.122c-1.223 0-2.464-.291-3.62-.905l-19.899-10.577c-3.768-2.003-5.198-6.681-3.196-10.449 2.003-3.768 6.68-5.199 10.45-3.196l19.899 10.577c3.768 2.002 5.198 6.681 3.196 10.449-1.389 2.612-4.064 4.101-6.83 4.101z" fill="#ffe177"/></g></g><g><path d="m127.902 71.631h-21.698c-4.267 0-7.726-3.459-7.726-7.726s3.459-7.726 7.726-7.726h21.698c4.267 0 7.726 3.459 7.726 7.726s-3.459 7.726-7.726 7.726z" fill="#ffe177"/></g><g><g><path d="m129.942 36.925c-1.223 0-2.464-.291-3.62-.905l-19.899-10.577c-3.768-2.003-5.199-6.681-3.196-10.449 2.002-3.768 6.681-5.198 10.449-3.196l19.899 10.577c3.768 2.003 5.199 6.681 3.196 10.449-1.389 2.612-4.064 4.101-6.829 4.101z" fill="#ffe177"/></g><g><path d="m110.055 117.122c-2.766 0-5.441-1.489-6.829-4.102-2.003-3.768-.572-8.446 3.196-10.449l19.899-10.577c3.768-2.003 8.446-.572 10.449 3.196s.572 8.446-3.196 10.449l-19.899 10.577c-1.155.615-2.396.906-3.62.906z" fill="#ffe177"/></g></g></g><path d="m287.111 366.183v35.6c-8.11 4.18-17.3 6.53-27.03 6.53h-8.15c-9.73 0-18.93-2.36-27.04-6.53v-35.6z" fill="#f89580"/><path d="m202.623 264.232v84.774c0 27.23 22.074 49.304 49.304 49.304h8.15c27.23 0 49.304-22.074 49.304-49.304v-84.774c0-8.339-6.76-15.099-15.099-15.099h-76.561c-8.338 0-15.098 6.76-15.098 15.099z" fill="#ffcebf"/><path d="m266.304 397.932c-2.04.247-4.11.381-6.222.381h-8.159c-27.227 0-49.304-22.077-49.304-49.304v-64.777c0-8.334 6.768-15.102 15.102-15.102h20.603c-8.334 0-15.102 6.768-15.102 15.102v64.777c0 25.126 18.791 45.853 43.082 48.923z" fill="#ffb09e"/><path d="m320.255 297.446h-14.243c-15.536 0-29.264-10.111-33.872-24.947l-3.268-10.522-11.628 18.717c-6.471 10.417-17.865 16.752-30.128 16.752h-35.366v-28.952c0-23.507 19.056-42.563 42.563-42.563h43.38c23.507 0 42.563 19.056 42.563 42.563v28.952z" fill="#68748f"/><path d="m234.317 225.934h30.905c-23.509 0-42.567 19.058-42.567 42.556v28.958h-30.905v-28.958c.001-23.498 19.059-42.556 42.567-42.556z" fill="#5d6980"/><g><path d="m258.838 364.574h-5.671c-11.839 0-21.471-9.632-21.471-21.471 0-4.267 3.459-7.726 7.726-7.726s7.726 3.459 7.726 7.726c0 3.319 2.7 6.019 6.019 6.019h5.671c3.318 0 6.018-2.7 6.018-6.018 0-4.267 3.459-7.726 7.726-7.726s7.726 3.459 7.726 7.726c.001 11.839-9.631 21.47-21.47 21.47z" fill="#f89580"/></g></g></svg>