<?xml version="1.0" encoding="iso-8859-1"?>
<!-- Generator: Adobe Illustrator 19.0.0, SVG Export Plug-In . SVG Version: 6.00 Build 0)  -->
<svg xmlns="http://www.w3.org/2000/svg" xmlns:xlink="http://www.w3.org/1999/xlink" version="1.1" id="Layer_1" x="0px" y="0px" viewBox="0 0 511.999 511.999" style="enable-background:new 0 0 511.999 511.999;" xml:space="preserve">
<rect x="220.58" y="201.309" style="fill:#FCD400;" width="70.37" height="222.67"/>
<polygon style="fill:#FFAC00;" points="220.583,414.58 236.822,399.589 236.822,423.98 220.583,423.98 "/>
<polygon style="fill:#F95753;" points="290.948,200.188 290.948,248.417 220.583,313.372 220.583,262.768 288.71,200.188 "/>
<rect x="220.58" y="200.189" style="fill:#FFAC00;" width="16.239" height="219.45"/>
<path style="fill:#F95753;" d="M268.792,7.13c-4.75-2.74-10.129-3.917-15.427-3.532c-3.938,0.284-7.815,1.421-11.367,3.431  L22.643,131.255c11.814,7.581,19.649,20.836,19.649,35.918c0-23.546,19.081-42.627,42.627-42.627s42.627,19.08,42.627,42.627  c0-23.546,19.081-42.627,42.627-42.627c10.992,0,21.009,4.161,28.57,10.991c8.637,7.795,14.057,19.081,14.057,31.635  c0-23.546,19.081-42.627,42.627-42.627s42.627,19.08,42.627,42.627c0-12.555,5.42-23.84,14.057-31.635  c7.561-6.83,17.578-10.991,28.57-10.991c23.546,0,42.627,19.08,42.627,42.627c0-23.546,19.081-42.627,42.627-42.627  s42.627,19.08,42.627,42.627c0-15.122,7.876-28.408,19.75-35.969L268.792,7.13z"/>
<path style="fill:#FFC524;" d="M312.109,135.538c-8.637,7.795-14.057,19.081-14.057,31.635c0-23.546-19.08-42.627-42.627-42.627  s-42.627,19.08-42.627,42.627c0-12.555-5.42-23.84-14.057-31.635l54.623-131.94L312.109,135.538z"/>
<path style="fill:#CC4A4A;" d="M253.365,3.598L253.365,3.598L35.137,143.535c-3.268-4.902-7.531-9.094-12.494-12.28L241.998,7.028  C245.55,5.019,249.427,3.882,253.365,3.598z"/>
<g>
	<path style="fill:#6D6D6D;" d="M41.784,361.784c-4.204,0-7.612-3.408-7.612-7.612V207.8c0-4.204,3.408-7.612,7.612-7.612   s7.612,3.408,7.612,7.612v146.372C49.396,358.376,45.988,361.784,41.784,361.784z"/>
	<path style="fill:#6D6D6D;" d="M470.42,361.784c-4.204,0-7.612-3.408-7.612-7.612V207.8c0-4.204,3.408-7.612,7.612-7.612   s7.612,3.408,7.612,7.612v146.372C478.032,358.376,474.624,361.784,470.42,361.784z"/>
	<path style="fill:#6D6D6D;" d="M357.027,336.873c-4.204,0-7.612-3.408-7.612-7.612V207.8c0-4.204,3.408-7.612,7.612-7.612   s7.612,3.408,7.612,7.612v121.462C364.639,333.465,361.231,336.873,357.027,336.873z"/>
	<path style="fill:#6D6D6D;" d="M155.347,336.873c-4.204,0-7.612-3.408-7.612-7.612V207.8c0-4.204,3.408-7.612,7.612-7.612   s7.612,3.408,7.612,7.612v121.462C162.958,333.465,159.551,336.873,155.347,336.873z"/>
</g>
<g>
	<circle style="fill:#FCD400;" cx="170.85" cy="172.329" r="7.157"/>
	<circle style="fill:#FCD400;" cx="82.89" cy="172.329" r="7.157"/>
	<circle style="fill:#FCD400;" cx="255.76" cy="172.329" r="7.157"/>
	<circle style="fill:#FCD400;" cx="340.68" cy="172.329" r="7.157"/>
	<circle style="fill:#FCD400;" cx="425.6" cy="172.329" r="7.157"/>
</g>
<path style="fill:#99654B;" d="M503.591,508.472H8.888c-4.644,0-8.409-3.765-8.409-8.409V487.11c0-4.644,3.765-8.409,8.409-8.409  H503.59c4.644,0,8.409,3.765,8.409,8.409v12.952C512,504.707,508.235,508.472,503.591,508.472z"/>
<path style="fill:#98ED9E;" d="M307.573,447.375H203.954c-4.644,0-8.409-3.765-8.409-8.409v-10.923c0-4.644,3.765-8.409,8.409-8.409  h103.619c4.644,0,8.409,3.765,8.409,8.409v10.923C315.983,443.61,312.217,447.375,307.573,447.375z"/>
<path style="fill:#79CFAF;" d="M221.618,447.372H204.08c-4.719,0-8.536-3.816-8.536-8.536v-10.667c0-4.719,3.816-8.535,8.536-8.535  h17.538c-4.709,0-8.535,3.816-8.535,8.535v10.667C213.083,443.556,216.909,447.372,221.618,447.372z"/>
<g>
	<path style="fill:#67A1F6;" d="M466.536,478.684H44.991l0,0c24.026-20.123,55.613-31.308,88.416-31.308h244.714   C410.923,447.375,442.51,458.561,466.536,478.684L466.536,478.684z"/>
	<path style="fill:#67A1F6;" d="M511.521,122.546v60.246c0,13.813-11.195,25.008-25.008,25.008H25.008   C11.194,207.8,0,196.605,0,182.792v-60.246c8.342,0.061,16.097,2.517,22.643,6.709c11.814,7.581,19.649,20.836,19.649,35.918   c0-23.546,19.08-42.627,42.627-42.627c23.546,0,42.627,19.08,42.627,42.627c0-23.546,19.081-42.627,42.627-42.627   c10.992,0,21.009,4.161,28.57,10.991c8.637,7.795,14.057,19.081,14.057,31.635c0-23.546,19.081-42.627,42.627-42.627   s42.627,19.08,42.627,42.627c0-12.555,5.42-23.84,14.057-31.635c7.561-6.83,17.578-10.991,28.57-10.991   c23.546,0,42.627,19.08,42.627,42.627c0-23.546,19.081-42.627,42.627-42.627s42.627,19.08,42.627,42.627   c0-15.122,7.876-28.408,19.75-35.969c6.607-4.222,14.452-6.658,22.876-6.658C511.188,122.546,511.521,122.546,511.521,122.546z"/>
</g>
<path style="fill:#4C86F5;" d="M47.651,207.8H25.008C11.194,207.8,0,196.605,0,182.792v-60.246  c8.342,0.061,16.097,2.517,22.643,6.709v53.537C22.643,196.605,33.837,207.8,47.651,207.8z"/>
<path style="fill:#C9C9C9;" d="M499.274,389.54h-57.709c-6.765,0-12.25-5.484-12.25-12.25v-9.346c0-6.766,5.485-12.25,12.25-12.25  h57.709c6.766,0,12.25,5.484,12.25,12.25v9.346C511.524,384.055,506.04,389.54,499.274,389.54z"/>
<path style="fill:#BABABA;" d="M177.618,358.61h-44.542c-6.538,0-11.838-5.3-11.838-11.838v-4.41c0-6.538,5.3-11.838,11.838-11.838  h44.542c6.538,0,11.838,5.3,11.838,11.838v4.41C189.456,353.31,184.156,358.61,177.618,358.61z"/>
<polygon style="fill:#CC4A4A;" points="236.822,247.777 236.822,298.381 220.583,313.372 220.583,262.768 "/>
<path style="fill:#969DA1;" d="M457.476,389.542h-15.731c-6.861,0-12.433-5.572-12.433-12.433v-8.982  c0-6.871,5.572-12.433,12.433-12.433h15.731c-6.861,0-12.433,5.562-12.433,12.433v8.982  C445.043,383.97,450.615,389.542,457.476,389.542z"/>
<path style="fill:#BABABA;" d="M70.64,389.54H12.932c-6.765,0-12.25-5.484-12.25-12.25v-9.346c0-6.766,5.485-12.25,12.25-12.25  H70.64c6.766,0,12.25,5.484,12.25,12.25v9.346C82.89,384.055,77.406,389.54,70.64,389.54z"/>
<g>
	<path style="fill:#969DA1;" d="M28.842,389.542H13.111c-6.861,0-12.433-5.572-12.433-12.433v-8.982   c0-6.871,5.572-12.433,12.433-12.433h15.731c-6.861,0-12.433,5.562-12.433,12.433v8.982   C16.41,383.97,21.981,389.542,28.842,389.542z"/>
	<path style="fill:#969DA1;" d="M149.173,358.607h-15.498c-6.871,0-12.433-5.562-12.433-12.433v-3.218   c0-6.861,5.562-12.433,12.433-12.433h15.498c-6.871,0-12.433,5.572-12.433,12.433v3.218   C136.74,353.045,142.302,358.607,149.173,358.607z"/>
</g>
<path style="fill:#875E4C;" d="M35.399,508.472H9.011c-4.709,0-8.535-3.816-8.535-8.536v-12.697c0-4.72,3.826-8.536,8.535-8.536  h26.388c-4.709,0-8.535,3.816-8.535,8.536v12.696C26.864,504.655,30.69,508.472,35.399,508.472z"/>
<path style="fill:#00BC4D;" d="M30.295,135.537c-0.233-0.244-0.467-0.487-0.71-0.721c0.173,0.162,0.345,0.335,0.518,0.507  c0.01,0.01,0.02,0.02,0.03,0.03C30.194,135.415,30.245,135.476,30.295,135.537z"/>
<path style="fill:#F7301B;" d="M30.295,135.537c-0.233-0.244-0.467-0.487-0.71-0.721c0.173,0.162,0.345,0.335,0.518,0.507  c0.01,0.01,0.02,0.02,0.03,0.03C30.194,135.415,30.245,135.476,30.295,135.537z"/>
<path style="fill:#4C86F5;" d="M178.464,447.372c-16.401,0-32.498,2.791-47.498,8.109c-15.011,5.308-28.915,13.133-40.922,23.201  H44.991c12.017-10.068,25.921-17.893,40.922-23.201c15.001-5.318,31.097-8.109,47.498-8.109H178.464z"/>
<polygon style="fill:#F95753;" points="290.948,299.021 290.948,349.625 220.583,414.58 220.583,363.976 "/>
<polygon style="fill:#CC4A4A;" points="236.822,348.986 236.822,399.589 220.583,414.58 220.583,363.976 "/>
<path style="fill:#C9C9C9;" d="M379.298,358.61h-44.542c-6.538,0-11.838-5.3-11.838-11.838v-4.41c0-6.538,5.3-11.838,11.838-11.838  h44.542c6.538,0,11.838,5.3,11.838,11.838v4.41C391.136,353.31,385.836,358.61,379.298,358.61z"/>
<g>
	<path style="fill:#969DA1;" d="M337.928,358.607h-2.578c-6.861,0-12.433-5.562-12.433-12.433v-2.923   C327.779,348.508,332.783,353.634,337.928,358.607z"/>
	<path style="fill:#969DA1;" d="M350.853,358.607h-15.498c-6.871,0-12.433-5.562-12.433-12.433v-3.218   c0-6.861,5.562-12.433,12.433-12.433h15.498c-6.871,0-12.433,5.572-12.433,12.433v3.218   C338.421,353.045,343.983,358.607,350.853,358.607z"/>
</g>
<path style="fill:#9FA7A9;" d="M350.849,358.607h-12.92c-5.146-4.973-10.149-10.099-15.011-15.356v-0.294  c0-6.861,5.572-12.433,12.433-12.433h15.498c-6.871,0-12.433,5.572-12.433,12.433v3.218  C338.416,353.045,343.978,358.607,350.849,358.607z"/>
<g>
</g>
<g>
</g>
<g>
</g>
<g>
</g>
<g>
</g>
<g>
</g>
<g>
</g>
<g>
</g>
<g>
</g>
<g>
</g>
<g>
</g>
<g>
</g>
<g>
</g>
<g>
</g>
<g>
</g>
</svg>
