<svg width="213" height="178" fill="none" xmlns="http://www.w3.org/2000/svg"><path d="M76.39 83.249c0 13.572-8.474 24.575-18.926 24.575-17.134 0-19.126-9.167-19.126-24.575-.49-15.7 2.59-24.574 19.126-24.575 14.543 0 18.926 11.003 18.926 24.575z" fill="#000"/><path d="M75.247 84.773c0 12.73-5.117 23.051-11.43 23.051-9.033 0-11.43-10.32-11.43-23.05 0-12.731 2.212-23.051 11.43-23.051 6.313 0 11.43 10.32 11.43 23.05z" fill="#B6B6B6"/><path d="M4.183 104.296l52.427-3.883a2.335 2.335 0 012.49 2.605 2.335 2.335 0 002.147 2.605l14.821 1.101H86.69c.885 0 1.755.235 2.52.681l4.884 2.849c.764.445 1.634.68 2.519.68h93.375c3.234 0 5.618 3.025 4.862 6.169l-2.174 9.039a5 5 0 01-4.861 3.831h-6.533a5 5 0 00-3.591 1.52l-8.2 8.46a4.999 4.999 0 01-4.488 1.438l-62.077-11.337a5.007 5.007 0 00-.898-.081h-25.89a5 5 0 01-5-5v-4.385a5 5 0 00-4.703-4.991l-21.446-1.276-40.732-2.237a3.903 3.903 0 01-.074-7.788z" fill="#0D4009"/><path d="M76.582 114.413h15.696c1.716 0 2.635-2.019 1.509-3.313l-3.34-3.838a1.999 1.999 0 01-.49-1.251l-.975-31.763a2 2 0 00-2-1.94h-1.577a2 2 0 00-1.999 1.941l-.934 31.405a2 2 0 01-2.22 1.928l-7.706-.858-12.022-.961a1.86 1.86 0 01-1.712-1.854 1.86 1.86 0 00-1.986-1.856l-51.27 3.48a2 2 0 00-1.774 1.398l-.345 1.101a2 2 0 001.803 2.595l71.342 3.786z" fill="#276622"/><path d="M88.424 105.489L89.77 74.49a1 1 0 00-.637-.976l-6.638-2.57a1.001 1.001 0 00-.414-.066l-22.675 1.198a1 1 0 00-.947.998v32.182a1 1 0 00.916.996l22.825 1.919a1 1 0 00.402-.048l5.14-1.729a1 1 0 00.68-.905z" fill="#89C784"/><path d="M82.297 108.205V70.867l8.21.71-1.162 34.342-7.048 2.286z" fill="#0D4009"/><rect x="193.868" y="14.279" width="13.382" height="49.06" rx="1" fill="#89C784"/><path d="M190.346 5.773a3 3 0 011.988-2.824l7.194-2.58a3.001 3.001 0 012.057.012l6.879 2.554a3 3 0 011.955 2.812v10.657a3 3 0 01-3 3h-14.073a3 3 0 01-3-3V5.773z" fill="#4FA048"/><rect x="87.162" y="52.355" width="116.919" height="61.874" rx="8" fill="#4FA048"/><path fill-rule="evenodd" clip-rule="evenodd" d="M185.943 114.477a3.409 3.409 0 01-2.356-.972c-1.892-1.819-4.045-3.551-6.449-5.172-10.55-7.114-25.456-11.705-42.215-11.705-16.759 0-31.666 4.591-42.215 11.705-2.405 1.621-4.558 3.353-6.45 5.172a3.41 3.41 0 01-2.355.972c-2.695 0-4.147-3.025-2.221-4.911 11.647-11.408 31.149-18.887 53.241-18.887s41.593 7.479 53.241 18.887c1.925 1.886.474 4.911-2.221 4.911z" fill="#000"/><rect x="168.16" y="59.312" width="44.373" height="29.656" rx="8" fill="#276622"/><path d="M167.92 140.041c0 19.695-15.338 35.527-34.097 35.527s-34.097-15.832-34.097-35.527 15.338-35.527 34.097-35.527 34.097 15.832 34.097 35.527z" fill="#B6B6B6" stroke="#000" stroke-width="4"/><ellipse cx="133.822" cy="140.041" rx="22.01" ry="22.883" fill="#000"/><ellipse rx="8.676" ry="4.283" transform="matrix(.56513 -.825 .8037 .59503 122.975 131.258)" fill="#EBEBEB"/><ellipse rx="8.676" ry="4.283" transform="matrix(-.56513 -.825 -.8037 .59503 144.457 132.356)" fill="#EBEBEB"/><ellipse rx="8.47" ry="4.385" transform="matrix(-.97043 -.2414 -.22429 .97452 132.285 153.498)" fill="#EBEBEB"/><rect x="120.969" y="59.312" width="44.373" height="29.656" rx="8" fill="#89C784"/></svg>