<svg width="97" height="96" fill="none" xmlns="http://www.w3.org/2000/svg"><g clip-path="url(#clip0)"><path d="M12.597 73.385a.212.212 0 00.284.267l15.356-4.847a.212.212 0 01.296.176l1.893 17.862c.016.187.25.263.372.12l3.508-.758 8.77-10.21a.212.212 0 01.318-.004l9.392 8.57c.095.107.267.09.34-.033l3.692.052 6.718-11.29a.212.212 0 01.308-.062l14.78 9.567c.141.105.342 0 .338-.176l2.774-.415-1.895-40.432 8.765-22.2a.212.212 0 00-.24-.285l-18.608 3.76a.212.212 0 01-.254-.219l.634-12.68-1.994-2.183a.212.212 0 00-.365-.156L56.268 18.613a.212.212 0 01-.339-.041l-3.916-6.939-3.232-.687a.212.212 0 00-.367-.002l-6.982 9.378a.212.212 0 01-.34.038L31.063 9.483l-3.849 1.198a.212.212 0 00-.367.15l-1.128 10.612a.212.212 0 01-.273.209l-9.725-2.983-4.093-.012a.212.212 0 00-.248.306l14.277 23.982-13.059 30.44z" fill="#FAF063"/><path d="M44.686 24.243a.212.212 0 00.34-.038l7.123-12.33-2.704-4.79a.212.212 0 00-.368-.001L41.43 20.322a.221.221 0 01-.168.107.218.218 0 01-.17-.068l3.594 3.882zm13.45-1.837c.07.124.24.145.337.042l11.666-12.3.296-5.926a.212.212 0 00-.365-.156L56.266 18.614a.222.222 0 01-.185.064.22.22 0 01-.152-.105l2.206 3.833zm-26.802 1.037a.212.212 0 00.274-.21l-.42-13.613-5.659-6.135a.212.212 0 00-.367.15l.556 17.807c0 .01.002.109-.08.174a.222.222 0 01-.194.037l5.89 1.79zm1.142 39.797a.212.212 0 00-.297-.177l-12.777 5.342a.584.584 0 01-.769-.752l10.178-25.88-13.136-23.118-6.562-2.013a.212.212 0 00-.247.305l14.107 24.826-14.58 37.073a.212.212 0 00.284.267l6.586-2.89 11.749-5.155a.212.212 0 01.296.177l1.685 20.594c.015.187.25.263.372.12l4.941-5.753-1.83-22.966zm33.16 6.974a.212.212 0 00-.309.062l-1.791 3.014a.219.219 0 01.128-.096.223.223 0 01.18.034l17.744 13.215a.212.212 0 00.339-.176l-.19-4.062-16.101-11.99zM46.268 72.67a.212.212 0 00-.318.003l-2.875 3.322a.226.226 0 01.18-.073c.079.007.127.057.14.07l10.927 12.247c.095.106.267.09.34-.033l2.188-3.677-10.582-11.86z" fill="#FBB042"/><path d="M33.588 30.477a4.865 4.865 0 00-5.72 3.823l-.83 4.17c-.118.595-.952.638-1.13.059l-1.43-4.648c-.778-2.528-3.411-4.067-5.963-3.37a4.862 4.862 0 00-3.458 3.592l-1.37 4.432c-.18.58-1.013.536-1.13-.06l-.833-4.213a4.86 4.86 0 00-2.862-3.532c-.87-.372-1.118.34-2.116.537a4.865 4.865 0 00-3.83 5.716l4.346 22.055c.045.232.108.461.187.684a5.404 5.404 0 005.09 3.595h.037c.666-.005.847.364 1.444.133a5.404 5.404 0 003.21-3.43l2.002-6.475c.17-.55.946-.549 1.116 0l1.992 6.476a5.404 5.404 0 005.154 3.791h.037a5.405 5.405 0 004.48-2.439c.246-.375-.552-3.778-.403-4.217.069-.202-.041-2.615 0-2.823l3.936-17.946c.306-1.542 1.715-3.248.754-4.346a4.847 4.847 0 00-2.71-1.564z" fill="#1865A0"/><path d="M10.877 60.218a4.857 4.857 0 01-.187-.684L6.07 36.148a4.866 4.866 0 012.827-5.402 4.865 4.865 0 00-6.719 5.402l4.62 23.386c.045.232.108.46.187.684a5.404 5.404 0 005.09 3.595h.037a5.383 5.383 0 001.908-.367 5.401 5.401 0 01-3.143-3.228z" fill="#134E7C"/><path d="M90.997 31.973a4.866 4.866 0 00-5.72 3.824l-.829 4.17c-.118.595-.952.637-1.13.058l-1.43-4.648c-.778-2.528-3.412-4.067-5.963-3.37a4.862 4.862 0 00-3.459 3.592l-1.37 4.432c-.179.58-1.013.536-1.13-.06l-.832-4.213a4.862 4.862 0 00-3.05-3.608c-.794-.302-1.77.31-2.665.469-2.687.477-1.125 5.612-.597 8.288l2.324 16.199c.046.232.108.46.188.684.764 2.154 1.367 6.868 3.65 6.868.012 0 .683.2.695.199.666-.005 1.154.32 1.75.089a5.405 5.405 0 003.21-3.43l2.002-6.475c.17-.55.947-.549 1.116 0l1.993 6.476a5.405 5.405 0 005.154 3.791h.037a5.405 5.405 0 005.077-3.664c.068-.201.123-.407.165-.616l4.638-23.335a4.865 4.865 0 00-3.824-5.72z" fill="#1865A0"/><path d="M36.258 31.997c-5.15 3.797-8.5 9.905-8.5 16.781 0 4.729 1.585 9.094 4.25 12.595.246-.376.45-.785.6-1.224.068-.202.123-.408.165-.617l4.638-23.335a4.858 4.858 0 00-1.153-4.2zm25.482.623a5.02 5.02 0 00-2.13 5.132l4.598 23.278a4.878 4.878 0 00.363 1.114 20.744 20.744 0 004.865-13.366c0-6.512-3.003-12.335-7.696-16.159z" fill="#134E7C"/><path d="M68.287 61.715a4.868 4.868 0 01-.188-.685l-4.598-23.278c-.453-2.293.763-4.592 2.81-5.505a4.847 4.847 0 00-2.953-.305c-2.625.55-4.268 3.186-3.748 5.817l4.597 23.271c.046.233.109.462.188.685a5.404 5.404 0 005.09 3.594h.037a5.38 5.38 0 001.908-.366 5.403 5.403 0 01-3.143-3.228z" fill="#134E7C"/><path d="M48.597 65.32c-9.228 0-16.542-7.314-16.542-16.542 0-5.604 2.574-10.573 6.815-13.612a16.645 16.645 0 019.727-3.124c9.228 0 16.736 7.508 16.736 16.736 0 3.82-1.286 7.346-3.45 10.166-3.06 3.992-7.878 6.376-13.286 6.376zm0-23.548a7.014 7.014 0 00-7.006 7.006 7.014 7.014 0 007.006 7.006 7.014 7.014 0 007.006-7.006 7.014 7.014 0 00-7.006-7.006z" fill="#1C76BC"/><path d="M52.49 61.623c-9.229 0-16.737-7.508-16.737-16.737a16.64 16.64 0 013.125-9.72c-4.244 3.04-7.017 8.007-7.017 13.612 0 9.229 7.508 16.737 16.736 16.737 5.606 0 10.573-2.773 13.612-7.017a16.64 16.64 0 01-9.72 3.125z" fill="#1865A0"/><path d="M87.84 8.53l-4.964 2.518-1.52.445a.584.584 0 01-.818-.705l2.035-5.829a.584.584 0 01.932-.26l.778-.255 3.671 3.12a.584.584 0 01-.113.965z" fill="#FAF063"/><path d="M82.402 10.283l1.93-5.798-1.01-.858a.584.584 0 00-.933.26l-2.516 7.564a.584.584 0 00.818.705l2.185-1.108a.585.585 0 01-.474-.765z" fill="#FBB042"/><path d="M69.957 94.179l-.494-5.564a.584.584 0 01.978-.457l.808.101 3.493 3.21.07 1.159a.584.584 0 01-.164.965l-3.875 1.094a.584.584 0 01-.816-.508z" fill="#FAF063"/><path d="M74.695 91.426l-2.875 1.246a.195.195 0 01-.272-.169l-.198-4.15-1.368-1.257a.584.584 0 00-.978.457l.376 7.89c.02.408.441.67.816.508l5.578-2.417a.584.584 0 00.163-.966l-1.242-1.142z" fill="#FBB042"/><path d="M13.708 88.729l.653-.74 5.721-3.327a.584.584 0 01.857.657l-1.8 6.651-.605.647a.584.584 0 01-.934.298l-3.969-3.23a.584.584 0 01.077-.956z" fill="#FAF063"/><path d="M14.503 88.168a.571.571 0 01-.142-.178l-1.338.779a.584.584 0 00-.077.956l4.869 3.992c.328.268.823.11.934-.3l.392-1.447-4.638-3.802z" fill="#FBB042"/><path d="M15.419 1.16l.603.486 1.638 4.398.118 1.063a.584.584 0 01-.793.734l-5.987-2.808a.584.584 0 01-.15-.959l3.628-3.14a.584.584 0 01.943.226z" fill="#FAF063"/><path d="M17.67 6.073l-3.493-1.62a.584.584 0 01-.15-.958l1.998-1.84L15.55.38a.584.584 0 00-.942-.225l-4.473 4.118a.584.584 0 00.15.96l7.26 3.364a.584.584 0 00.792-.734l-.667-1.79z" fill="#FBB042"/></g><defs><clipPath id="clip0"><path fill="#fff" transform="translate(.5)" d="M0 0h96v96H0z"/></clipPath></defs></svg>