<?xml version="1.0" encoding="iso-8859-1"?>
<!-- Generator: Adobe Illustrator 19.0.0, SVG Export Plug-In . SVG Version: 6.00 Build 0)  -->
<svg xmlns="http://www.w3.org/2000/svg" xmlns:xlink="http://www.w3.org/1999/xlink" version="1.1" id="Layer_1" x="0px" y="0px" viewBox="0 0 512 512" style="enable-background:new 0 0 512 512;" xml:space="preserve">
<g>
	<path style="fill:#CDE06E;" d="M362.404,343.051v8.207c-15.074,3.046-30.862,5.468-47.216,7.175v-15.382   c0-10.142,8.227-18.368,18.378-18.368h10.459C354.177,324.683,362.404,332.909,362.404,343.051z"/>
	<path style="fill:#CDE06E;" d="M187.573,343.051V357.4c-16.403-2.005-32.192-4.724-47.206-8.078v-6.272   c0-10.142,8.227-18.368,18.368-18.368h10.469C179.346,324.683,187.573,332.909,187.573,343.051z"/>
</g>
<g>
	<path style="fill:#96C642;" d="M346.01,324.792c-9.209,0.992-16.383,8.792-16.383,18.259v13.664   c-4.763,0.635-9.576,1.211-14.439,1.717v-15.381c0-10.142,8.227-18.368,18.378-18.368h10.459   C344.701,324.683,345.356,324.723,346.01,324.792z"/>
	<path style="fill:#96C642;" d="M171.189,324.792c-9.209,0.992-16.384,8.792-16.384,18.259v9.249   c-4.882-0.923-9.705-1.915-14.439-2.977v-6.272c0-10.142,8.227-18.368,18.368-18.368h10.469   C169.88,324.683,170.535,324.723,171.189,324.792z"/>
</g>
<path style="fill:#CDE06E;" d="M273.302,361.885h-47.206v-28.694c0-10.224,8.288-18.512,18.512-18.512h10.182  c10.224,0,18.512,8.288,18.512,18.512V361.885z"/>
<path style="fill:#96C642;" d="M256.918,314.789c-9.209,0.992-16.384,8.792-16.384,18.259v28.838h-14.439v-28.838  c0-10.142,8.227-18.368,18.368-18.368h10.469C255.608,314.68,256.263,314.719,256.918,314.789z"/>
<path style="fill:#98ED9E;" d="M265.482,163.144c-7.581,0.595-14.796,0.387-21.524-0.347c-6.46-0.695-12.454-1.885-17.862-3.285  v44.775c0,3.999,4.565,6.301,7.78,3.92l10.082-7.462l7.988-5.904c1.767-1.3,4.198-1.27,5.924,0.099l5.706,4.505l10.489,8.276  c3.195,2.53,7.899,0.248,7.899-3.83v-43.326C276.328,161.893,270.821,162.717,265.482,163.144z"/>
<path style="fill:#79CFAF;" d="M243.958,162.796v37.947l-10.082,7.462c-3.215,2.382-7.78,0.079-7.78-3.92V159.51  C231.504,160.911,237.498,162.102,243.958,162.796z"/>
<g>
	<path style="fill:#545454;" d="M15.555,466.698c-1.266,0-2.549-0.324-3.723-1.004c-3.557-2.06-4.77-6.613-2.71-10.171   L228.28,77.118c2.061-3.556,6.615-4.77,10.171-2.71c3.557,2.06,4.77,6.614,2.71,10.171L22.003,462.984   C20.623,465.367,18.124,466.698,15.555,466.698z"/>
	<path style="fill:#545454;" d="M496.316,466.698c-2.559,0-5.05-1.321-6.434-3.69L269.117,84.963   c-2.073-3.55-0.875-8.107,2.674-10.18c3.55-2.073,8.107-0.875,10.18,2.674l220.765,378.044c2.073,3.55,0.875,8.107-2.674,10.18   C498.882,466.37,497.59,466.698,496.316,466.698z"/>
</g>
<path style="fill:#67A1F6;" d="M496.234,506.083H15.637c-5.397,0-9.772-4.375-9.772-9.772v-27.284c0-5.397,4.375-9.772,9.772-9.772  h480.597c5.397,0,9.772,4.375,9.772,9.772v27.284C506.006,501.708,501.631,506.083,496.234,506.083z"/>
<path style="fill:#4C86F5;" d="M45.132,506.088H15.56c-5.349,0-9.695-4.346-9.695-9.705v-27.428c0-5.359,4.346-9.705,9.695-9.705  h29.572c-5.349,0-9.695,4.346-9.695,9.705v27.428C35.437,501.741,39.783,506.088,45.132,506.088z"/>
<path style="fill:#545454;" d="M12.295,327.337c-4.11,0-10.896-20.343-12.295-35.228v-78.643c0-4.11,3.332-7.443,7.443-7.443  c4.11,0,7.442,3.332,7.442,7.443v85.093C14.885,302.669,16.406,327.337,12.295,327.337z"/>
<path style="fill:#3E4156;" d="M502.76,314.85c-4.11,0-5.646-4.324-5.646-8.435v-92.95c0-4.11,3.332-7.443,7.443-7.443  c4.11,0,7.443,3.332,7.443,7.443v61.691C512,300.296,506.871,314.85,502.76,314.85z"/>
<path style="fill:#545454;" d="M256.408,170.916c-8.432,0-16.963-0.878-25.528-2.645c-22.973-4.74-38.06-14.161-38.691-14.56  c-3.475-2.195-4.512-6.793-2.316-10.267c2.193-3.471,6.785-4.51,10.258-2.322c0.286,0.178,13.94,8.579,34.296,12.681  c27.007,5.441,52.57,1.141,75.976-12.78c3.535-2.1,8.101-0.94,10.201,2.592c2.101,3.533,0.941,8.1-2.592,10.201  C298.96,165.149,278.02,170.916,256.408,170.916z"/>
<circle style="fill:none;stroke:#1E120D;stroke-width:15;stroke-linecap:round;stroke-linejoin:round;stroke-miterlimit:10;" cx="254.94" cy="45.932" r="16"/>
<g>
	<circle style="fill:#1E120D;" cx="48.36" cy="482.671" r="6.998"/>
	<circle style="fill:#1E120D;" cx="94.29" cy="482.671" r="6.998"/>
	<circle style="fill:#1E120D;" cx="140.21" cy="482.671" r="6.998"/>
	<circle style="fill:#1E120D;" cx="186.14" cy="482.671" r="6.998"/>
	<circle style="fill:#1E120D;" cx="232.07" cy="482.671" r="6.998"/>
	<circle style="fill:#1E120D;" cx="277.99" cy="482.671" r="6.998"/>
	<circle style="fill:#1E120D;" cx="323.92" cy="482.671" r="6.998"/>
	<circle style="fill:#1E120D;" cx="369.85" cy="482.671" r="6.998"/>
	<circle style="fill:#1E120D;" cx="415.77" cy="482.671" r="6.998"/>
	<circle style="fill:#1E120D;" cx="461.7" cy="482.671" r="6.998"/>
</g>
<path style="fill:#F95753;" d="M506.006,299.799c0,87.286-111.956,158.04-250.071,158.04S5.865,387.086,5.865,299.799  c0-3.382,0.168-6.735,0.498-10.061c0.309-3.108,4.058-4.527,6.28-2.331c26.533,26.207,71.807,47.445,127.724,59.915  c15.014,3.354,30.802,6.073,47.206,8.078c21.831,2.679,44.735,4.108,68.363,4.108c20.363,0,40.19-1.062,59.253-3.076  c16.354-1.707,32.142-4.128,47.216-7.175c59.956-12.11,108.64-34.135,136.626-61.655c2.305-2.267,6.196-0.791,6.506,2.427  C505.848,293.259,506.006,296.516,506.006,299.799z"/>
<circle style="fill:#FFD961;" cx="254.94" cy="45.932" r="40.02"/>
<path style="fill:#FFC524;" d="M261.522,85.414c-2.134,0.347-4.337,0.536-6.579,0.536c-22.099,0-40.021-17.912-40.021-40.021  c0-22.1,17.922-40.011,40.021-40.011c2.243,0,4.446,0.189,6.579,0.536c-18.973,3.135-33.442,19.617-33.442,39.474  C228.08,65.795,242.549,82.278,261.522,85.414z"/>
<circle style="fill:#F95753;" cx="254.94" cy="45.932" r="16"/>
<g>
	<circle style="fill:#FCD400;" cx="48.36" cy="482.671" r="6.998"/>
	<circle style="fill:#FCD400;" cx="94.29" cy="482.671" r="6.998"/>
	<circle style="fill:#FCD400;" cx="140.21" cy="482.671" r="6.998"/>
	<circle style="fill:#FCD400;" cx="186.14" cy="482.671" r="6.998"/>
	<circle style="fill:#FCD400;" cx="232.07" cy="482.671" r="6.998"/>
	<circle style="fill:#FCD400;" cx="277.99" cy="482.671" r="6.998"/>
	<circle style="fill:#FCD400;" cx="323.92" cy="482.671" r="6.998"/>
	<circle style="fill:#FCD400;" cx="369.85" cy="482.671" r="6.998"/>
	<circle style="fill:#FCD400;" cx="415.77" cy="482.671" r="6.998"/>
	<circle style="fill:#FCD400;" cx="461.7" cy="482.671" r="6.998"/>
</g>
<path style="fill:#CC4A4A;" d="M506.006,299.799c0,87.286-111.956,158.04-250.071,158.04S5.865,387.086,5.865,299.799  c0-3.176,0.149-6.331,0.447-9.457c2.133,15.362,5.994,30.564,14.935,42.145c8.504,11.005,35.079,7.333,50.788,18.567  c11.938,8.534,15.729,35.655,32.876,42.78c13.843,5.746,36.131-9.923,53.904-5.885c14.826,3.364,27.647,27.528,45.519,29.254  c15.322,1.479,32.856-19.49,50.609-19.49c17.823,0,35.446,20.968,50.848,19.47c17.942-1.737,30.832-25.92,45.737-29.304  c17.842-4.049,40.19,11.6,54.122,5.835c17.227-7.125,21.147-34.286,33.194-42.82c15.808-11.214,42.433-7.413,51.076-18.398  c10.32-13.109,13.803-27.428,15.689-41.698C505.867,293.776,506.006,296.783,506.006,299.799z"/>
<g>
	<path style="fill:#F95753;" d="M40.683,228.777l9.681,10.581c2.669,2.917,0.239,7.183-4.091,7.183H0v-36.57   c0-2.454,2.326-4.444,5.195-4.444h41.081c4.33,0,6.759,4.265,4.092,7.182L40.683,223.3   C39.211,224.908,39.211,227.168,40.683,228.777z"/>
	<path style="fill:#F95753;" d="M471.847,228.31l-11.199,12.271c-2.208,2.42-0.198,5.959,3.385,5.959H512v-37.327   c0-2.036-1.925-3.687-4.299-3.687h-43.67c-3.583,0-5.593,3.538-3.386,5.958l11.203,12.281   C473.065,225.101,473.065,226.976,471.847,228.31z"/>
</g>
<g>
	<path style="fill:#CC4A4A;" d="M477.546,240.586c-2.203,2.411-0.198,5.954,3.384,5.954h-16.9c-3.582,0-5.587-3.543-3.384-5.954   l11.204-12.275c1.211-1.34,1.22-3.205,0-4.545l-11.204-12.285c-2.213-2.411-0.198-5.954,3.384-5.954h16.9   c-3.582,0-5.597,3.543-3.384,5.954l11.204,12.285c1.211,1.34,1.211,3.205,0,4.545L477.546,240.586z"/>
	<path style="fill:#CC4A4A;" d="M250.112,45.932c0-6.871,4.338-12.713,10.418-14.982c-1.742-0.65-3.618-1.022-5.587-1.022   c-8.839,0-16.004,7.165-16.004,16.004s7.165,16.004,16.004,16.004c1.968,0,3.845-0.372,5.587-1.023   C254.45,58.645,250.112,52.803,250.112,45.932z"/>
	<path style="fill:#CC4A4A;" d="M24.59,205.527c-2.878,0-5.2,1.985-5.2,4.446v36.568H0v-36.568c0-2.461,2.322-4.446,5.19-4.446   L24.59,205.527L24.59,205.527z"/>
</g>
<g>
</g>
<g>
</g>
<g>
</g>
<g>
</g>
<g>
</g>
<g>
</g>
<g>
</g>
<g>
</g>
<g>
</g>
<g>
</g>
<g>
</g>
<g>
</g>
<g>
</g>
<g>
</g>
<g>
</g>
</svg>
