<svg width="97" height="96" fill="none" xmlns="http://www.w3.org/2000/svg"><g clip-path="url(#clip0)"><path d="M25.71 65.05L15.08 86.828a1.574 1.574 0 001.539 2.26l8.184-.649 4.523 6.85a1.574 1.574 0 002.728-.176l10.231-20.96-16.574-9.105zm45.648-.034l-16.515 9.228 10.188 20.872a1.574 1.574 0 002.728.178l4.527-6.846 8.182.643a1.574 1.574 0 001.538-2.26L71.358 65.016z" fill="#EB0D8C"/><path d="M36.218 70.821l-4.144-2.276-6.364-3.496-2.068 4.238.095.124a2.12 2.12 0 012.177 1.215 8.32 8.32 0 002.33 2.985c.57.46.75 1.246.428 1.904l-1.85 3.793a2.36 2.36 0 104.242 2.073l2.879-5.899c.42-.02.843-.042 1.258-.124a2.116 2.116 0 011.969.64 8.411 8.411 0 003.173 2.135l1.942-3.978-6.067-3.334zm35.14-5.805l-16.515 9.228 1.885 3.862a8.41 8.41 0 003.102-2.108 2.124 2.124 0 011.97-.64c.443.088.895.117 1.346.133l2.875 5.89a2.36 2.36 0 104.242-2.073l-1.874-3.84a1.567 1.567 0 01.422-1.9 8.327 8.327 0 002.32-3.043c.288-.646.896-1.04 1.6-1.113.242-.025.469-.094.704-.14l-2.077-4.256z" fill="#C20A72"/><path d="M51.075.673a5.266 5.266 0 016.442 1.02 5.266 5.266 0 004.898 1.591 5.265 5.265 0 015.812 2.962 5.265 5.265 0 004.165 3.026 5.266 5.266 0 014.613 4.613 5.265 5.265 0 003.026 4.166 5.266 5.266 0 012.962 5.812 5.266 5.266 0 001.591 4.897 5.266 5.266 0 011.02 6.443 5.266 5.266 0 000 5.149 5.266 5.266 0 01-1.02 6.443 5.266 5.266 0 00-1.591 4.897 5.265 5.265 0 01-2.962 5.812 5.265 5.265 0 00-3.026 4.166 5.266 5.266 0 01-4.613 4.612 5.266 5.266 0 00-4.165 3.027 5.265 5.265 0 01-5.812 2.961 5.266 5.266 0 00-4.898 1.592 5.266 5.266 0 01-6.443 1.02 5.266 5.266 0 00-5.149 0 5.266 5.266 0 01-6.442-1.02 5.266 5.266 0 00-4.898-1.592 5.265 5.265 0 01-5.812-2.961 5.265 5.265 0 00-4.166-3.027 5.266 5.266 0 01-4.612-4.612 5.266 5.266 0 00-3.027-4.166 5.265 5.265 0 01-2.961-5.812 5.266 5.266 0 00-1.591-4.897 5.266 5.266 0 01-1.02-6.443 5.27 5.27 0 000-5.15 5.266 5.266 0 011.02-6.442 5.266 5.266 0 001.59-4.897 5.266 5.266 0 012.962-5.812 5.265 5.265 0 003.027-4.166 5.266 5.266 0 014.612-4.613 5.266 5.266 0 004.166-3.026 5.265 5.265 0 015.812-2.962 5.265 5.265 0 004.898-1.591 5.266 5.266 0 016.442-1.02 5.27 5.27 0 005.15 0z" fill="#FFD164"/><path d="M77.49 53.667c3.058-5.566 4.561-12.107 3.919-19.04-1.45-15.64-14.12-28.31-29.759-29.759-6.933-.642-13.474.861-19.04 3.92-.889.488-1.908-.407-1.502-1.337a35.297 35.297 0 012.208-4.245 5.257 5.257 0 00-4.428 2.805c-.879 1.682-2.413 3.035-4.297 3.263a5.266 5.266 0 00-4.596 4.61 5.196 5.196 0 01-3.027 4.166 5.266 5.266 0 00-2.962 5.812 5.197 5.197 0 01-1.59 4.898 5.266 5.266 0 00-1.021 6.442 5.197 5.197 0 010 5.15 5.265 5.265 0 001.02 6.442 5.197 5.197 0 011.591 4.898 5.265 5.265 0 002.961 5.812 5.197 5.197 0 013.028 4.166 5.266 5.266 0 004.612 4.612 5.197 5.197 0 014.166 3.027 5.266 5.266 0 005.812 2.961 5.197 5.197 0 014.897 1.592 5.266 5.266 0 006.443 1.02 5.197 5.197 0 015.15 0 5.266 5.266 0 006.442-1.02 5.197 5.197 0 014.898-1.592 5.266 5.266 0 005.812-2.961 5.196 5.196 0 014.166-3.027 5.266 5.266 0 004.61-4.596c.228-1.885 1.581-3.419 3.264-4.297a5.257 5.257 0 002.805-4.428 35.314 35.314 0 01-4.246 2.208c-.93.406-1.826-.613-1.337-1.502z" fill="#FFC350"/><path d="M48.5 67.684c16.517 0 29.906-13.39 29.906-29.907 0-16.516-13.39-29.906-29.906-29.906-16.517 0-29.906 13.39-29.906 29.906 0 16.517 13.39 29.907 29.906 29.907z" fill="#FFEDB1"/><path d="M56.885 52.34c-11.432-2.406-20.542-11.516-22.949-22.948-.808-3.842-.85-7.572-.27-11.092.194-1.182-1.203-1.943-2.13-1.183-6.805 5.585-10.816 14.442-9.568 24.186C23.49 53.191 33.086 62.787 44.974 64.31c9.744 1.248 18.601-2.764 24.186-9.57.76-.925-.001-2.323-1.183-2.128-3.52.58-7.25.538-11.092-.271z" fill="#FFE17D"/><path d="M70.493 30.952c-.252-1.548-1.705-2.619-3.273-2.619H54.796s2.36-3.54 4.014-8.575c.44-1.34-.314-2.784-1.651-3.23l-.09-.03c-1.23-.41-2.585.146-3.142 1.317-1.14 2.4-3.466 6.335-7.245 8.927a3.098 3.098 0 00-1.33 2.56v22.642c0 .87.704 1.574 1.574 1.574h15.572c1.568 0 3.021-1.072 3.273-2.62a3.15 3.15 0 00-3.105-3.676h1.406c1.568 0 3.022-1.072 3.273-2.62a3.15 3.15 0 00-3.105-3.676h1.406c1.568 0 3.022-1.072 3.273-2.62a3.15 3.15 0 00-3.105-3.677h1.574a3.15 3.15 0 003.105-3.677zm-31.437 24.14H32.76a3.148 3.148 0 01-3.149-3.148V29.907a3.148 3.148 0 013.149-3.148h6.296a3.148 3.148 0 013.148 3.148v22.037a3.148 3.148 0 01-3.148 3.148z" fill="#fff"/><path d="M35.908 50.369a1.574 1.574 0 100-3.148 1.574 1.574 0 000 3.148z" fill="#FFE17D"/><path d="M61.093 44.073a1.574 1.574 0 100 3.148h2.98c1.568 0 3.021-1.071 3.273-2.62.029-.18.027-.353.027-.528h-6.28zm1.574-6.296a1.574 1.574 0 100 3.148h2.98c1.568 0 3.021-1.071 3.273-2.62.03-.18.027-.353.027-.528h-6.28zm-.001-4.722c0 .87.705 1.574 1.575 1.574h3.148a3.137 3.137 0 003.132-3.148h-6.28c-.87 0-1.575.705-1.575 1.574z" fill="#FFF6D8"/><path d="M57.944 50.37a9.444 9.444 0 01-9.444-9.445V34.63a3.148 3.148 0 00-3.148-3.148v20.463c0 .869.705 1.574 1.574 1.574h15.572c1.738 0 3.335-1.316 3.312-3.137a.382.382 0 00-.011-.011h-7.855zM32.76 48.796V34.629a3.148 3.148 0 00-3.149-3.148v20.463a3.148 3.148 0 003.149 3.148h6.296a3.148 3.148 0 003.148-3.148h-6.296a3.148 3.148 0 01-3.148-3.148z" fill="#FFF6D8"/></g><defs><clipPath id="clip0"><path fill="#fff" transform="translate(.5)" d="M0 0h96v96H0z"/></clipPath></defs></svg>