<?xml version="1.0" encoding="utf-8"?>
<!-- Generator: Adobe Illustrator 25.2.1, SVG Export Plug-In . SVG Version: 6.00 Build 0)  -->
<svg version="1.1" xmlns="http://www.w3.org/2000/svg" xmlns:xlink="http://www.w3.org/1999/xlink" x="0px" y="0px"
	 viewBox="0 0 101.81 115.64" style="enable-background:new 0 0 101.81 115.64;" xml:space="preserve">
<style type="text/css">
	.st0{fill:#672783;}
	.st1{fill:#2D3184;}
	.st2{fill:#E5007F;}
	.st3{fill:#E31019;}
	.st4{fill:#F9B336;}
	.st5{fill:#E94F1E;}
	.st6{fill:#31AC67;}
	.st7{fill:#1E71B8;}
</style>
<g id="Layer_1">
	<g>
		<polygon class="st0" points="77.32,101.54 77.32,101.54 66.47,82.29 55.6,101.58 63.52,115.64 69.33,115.64 77.29,101.5 		"/>
		<polygon class="st1" points="77.29,101.5 69.33,115.64 69.37,115.64 85.26,115.64 77.32,101.54 		"/>
		<polygon class="st2" points="66.47,82.29 56.11,63.89 45.24,83.18 55.6,101.58 55.6,101.58 66.47,82.29 		"/>
		<polygon class="st3" points="29.68,63.89 0,115.64 21.74,115.64 51.42,63.89 		"/>
		<polygon class="st4" points="77.32,15.59 74.93,11.43 55.58,11.45 55.61,11.42 55.61,11.42 38.23,27.01 64.63,26.98 		"/>
		<polygon class="st5" points="74.93,11.43 74.93,11.43 68.34,0 55.61,11.42 55.58,11.45 		"/>
		<polygon class="st6" points="21.63,41.91 48.02,41.88 64.63,26.98 64.63,26.98 38.23,27.01 38.23,27.01 		"/>
		<polygon class="st3" points="29.72,60.74 101.81,60.65 92.83,45.06 20.74,45.15 		"/>
		<polygon class="st7" points="36.06,23.87 32.48,4.25 15.36,20.07 18.94,39.7 		"/>
	</g>
</g>
<g id="Слой_2">
</g>
</svg>
