<svg id="a93ede7d-d99e-4393-81b9-269ad9daedf6" data-name="Слой 1" xmlns="http://www.w3.org/2000/svg" viewBox="0 0 32 32"><defs><style>.b8f35cde-f330-4ac2-b2bf-2d5fbdc3a231{fill:#fa5e27;}</style></defs><path class="b8f35cde-f330-4ac2-b2bf-2d5fbdc3a231" d="M20.61,27.62c-2.68,0-6.22-1.1-10.46-5-5.74-5.22-6.07-8.94-5.71-11.6A10.41,10.41,0,0,1,8.09,5.15a2.63,2.63,0,0,1,2.19-.58A2.5,2.5,0,0,1,11.83,6l1.68,3.91a2.44,2.44,0,0,1-.31,2.48l-.95,1.13c-.24.28-.19.35-.12.46a21.63,21.63,0,0,0,2.81,3.15,19,19,0,0,0,3.71,2.72c.27.1.31.1.61-.18l.89-.89a2.45,2.45,0,0,1,2.43-.62l4.05,1.1c1.86.4,2.43,1.35,2.59,2.07.11.57-.09,1.25-1.47,2.74-.2.21-.78.82-1,1h0A10.53,10.53,0,0,1,23,27.3,9.35,9.35,0,0,1,20.61,27.62ZM9.3,6.74a8.57,8.57,0,0,0-2.89,4.63c-.3,2.27.06,5.25,5.08,9.81,4,3.61,7.76,5.06,11,4.21a8.44,8.44,0,0,0,2.93-1.75h0c.21-.19,1.36-1.44,1.51-1.63.3-.36,0-.54-.12-.61l-4.72-1.29a.46.46,0,0,0-.52.12l-.9.91a2.41,2.41,0,0,1-2.72.59,21.1,21.1,0,0,1-4.34-3.12,21.93,21.93,0,0,1-3.14-3.55,2.24,2.24,0,0,1,.29-2.82l.91-1.08c.06-.09.13-.18,0-.47L10,6.86C9.89,6.6,9.62,6.52,9.3,6.74Zm18,14.73Z"/></svg>