<svg id="ecc9ec62-a9ae-449b-a500-1332ec91f15b" data-name="Слой 1" xmlns="http://www.w3.org/2000/svg" viewBox="0 0 32 32"><defs><style>.bb2dbecf-fb0f-4a93-a919-22a4caf42a16{fill:#1c8adb;}</style></defs><path class="bb2dbecf-fb0f-4a93-a919-22a4caf42a16" d="M24.56,6.58c-1.85.79-6.86,3-11.11,4.85-2.4,1.06-7.51,3.37-7.7,3.46a4.45,4.45,0,0,0-1.35.83,1.37,1.37,0,0,0-.35,1,1.62,1.62,0,0,0,.88,1.46,29.93,29.93,0,0,0,3.86,1.47l.58.19a.94.94,0,0,1,.55.57c.1.49,1.52,5.2,1.8,5.87a1.26,1.26,0,0,0,1.3.8,1.46,1.46,0,0,0,1.05-.55c.24-.2,1.9-1.86,1.9-1.86a.72.72,0,0,1,.47-.18.48.48,0,0,1,.24.06c.16.08,2.13,1.63,3.28,2.55a6.24,6.24,0,0,0,1.4.86,2.59,2.59,0,0,0,1.27,0,1.72,1.72,0,0,0,1-.85,27.21,27.21,0,0,0,.74-3.29c.12-.64.27-1.44.43-2.34.79-4.24,1.9-10.26,2.32-12.5.09-.47.25-1.5.25-1.73a.93.93,0,0,0-.33-.78,1.75,1.75,0,0,0-1.24-.29A7.21,7.21,0,0,0,24.56,6.58Zm.92,2.2c-.08.47-1.8,9.67-2.68,14.3,0,.12-.55,2.93-.59,3a.2.2,0,0,1-.17.12h0a.25.25,0,0,1-.16-.06C21.59,26,19.79,24.58,19,24c-.38-.39-2.46-1.95-2.63-2s-.2-.06-.23,0c-.24.21-.46.43-.67.64a8.25,8.25,0,0,1-.67.65c-.31.32-.64.66-1,.93s-.42.32-.53.29-.14-.22-.14-.32v0c.1-.79.19-1.47.29-2.16q.06-.34.09-.63a4.77,4.77,0,0,1,.1-.66c0-.11,0-.14.13-.25.27-.29,5.83-5.83,7.33-7.29l.29-.28c.1-.1.2-.24.13-.32s-.31-.06-.39,0-.39.22-.57.33l-.1.06c-2,1.21-8.62,5.32-9,5.56a.71.71,0,0,1-.69,0,14.63,14.63,0,0,0-1.88-.67l-.71-.27-.32-.12-.25-.09L6.91,17c-.19-.07-.38-.15-.39-.31s.23-.27.33-.31l9.16-4,9.1-3.92c.05,0,.21-.11.32,0A.33.33,0,0,1,25.48,8.78Z"/></svg>