<svg id="e07fe09e-d1d3-47f0-b28f-5232bd74caf8" data-name="Слой 1" xmlns="http://www.w3.org/2000/svg" viewBox="0 0 32 32"><defs><style>.af8a600e-1861-43e8-b01c-89608221a3a1{fill:#29a71a;}</style></defs><path class="af8a600e-1861-43e8-b01c-89608221a3a1" d="M22.82,19.35a4.27,4.27,0,0,1-2.48,1.91c-1.48.4-3.65.13-6.4-2.38s-3.09-4.28-2.89-5.76a4.44,4.44,0,0,1,1.61-2.66c.74-.51,1,0,1.18.3l.89,2.07a.74.74,0,0,1-.1.79l-.49.6a.66.66,0,0,0-.1.88,11.26,11.26,0,0,0,1.58,1.78,10.74,10.74,0,0,0,2.17,1.58.75.75,0,0,0,.89-.2l.49-.49a.77.77,0,0,1,.79-.2l2.17.59a.87.87,0,0,1,.69,1.19Z"/><path class="af8a600e-1861-43e8-b01c-89608221a3a1" d="M16.69,6.94a9,9,0,1,1-4.82,16.52l-3.41.81.72-3.49a8.83,8.83,0,0,1-1.45-4.87,9,9,0,0,1,9-9m0-2.4a11.36,11.36,0,0,0-10,16.66l-.53,2.58c-.12.56-.54,2.68-.54,2.68-.05.36-.14.56,0,.73s.6.08,1.17,0L9,26.6,11.5,26A11.36,11.36,0,1,0,16.69,4.54Z"/></svg>