<svg height="512" viewBox="0 0 64 64" width="512" xmlns="http://www.w3.org/2000/svg"><g data-name="Maintenance tools"><path d="M33.81 10.98l-1.42-2.83-6.36-3.53-1.41 1.41 3.53 6.36 2.83 1.42 14.141 14.141 2.83-2.831z" fill="#ff6243"/><path d="M26.03 6.62l6.36 3.53 1.42 2.83 13.141 13.14 1-1L33.81 10.98l-1.42-2.83-6.36-3.53-1.41 1.41.714 1.286z" fill="#ff5023"/><path d="M32.588 24.694a8.006 8.006 0 00-8.563 11.038l5.247-5.247 3.536.707.707 3.536-5.247 5.247a8.006 8.006 0 0011.038-8.563 4.133 4.133 0 011.1-3.571l7.435-7.441a4.134 4.134 0 013.571-1.1 8.006 8.006 0 008.563-11.032l-5.247 5.247-3.536-.707-.707-3.536 5.247-5.247a8.006 8.006 0 00-11.038 8.563 4.134 4.134 0 01-1.1 3.571l-2.3 2.3.006.006-.006-.006-2.83 2.83.006.006-.006-.006-2.3 2.3a4.133 4.133 0 01-3.576 1.105z" fill="#ff9811"/><path d="M59.975 8.268L58.43 9.813a7.953 7.953 0 01-6.848 9.508 8 8 0 008.393-11.053zM49.412 19.306a4.134 4.134 0 00-3.571 1.1L38.4 27.841a4.133 4.133 0 00-1.1 3.571 7.965 7.965 0 01-6.952 9.116 7.99 7.99 0 008.952-9.116 4.133 4.133 0 011.1-3.571l7.441-7.441a3.906 3.906 0 012.084-1.049c-.171-.013-.343-.02-.513-.045z" fill="#ee8700"/><path d="M53.021 38.678a4 4 0 005.657-5.657l-6.486-6.485-5.656 5.656z" fill="#005ece"/><path d="M46.536 32.192l5.656-5.656a2 2 0 00-2.828-2.829l-5.657 5.657a2 2 0 102.829 2.828z" fill="#004fac"/><path d="M11 61h8V43h-8v16z" fill="#006df0"/><path d="M3 45h8v14H3z" fill="#004fac"/><path d="M60.28 45.4a2.994 2.994 0 00-4.09-1.1l-10.67 6.16h-.005a2.987 2.987 0 00-2.094-2.06l-14.92-4a6 6 0 00-3.008-.025L19 46v12l2.733 1.367a6.007 6.007 0 002.683.633h14.977a5.993 5.993 0 003-.8l16.8-9.7a3 3 0 001.087-4.1z" fill="#ffbcab"/><path d="M8 45h3v14H8z" fill="#00479b"/><path d="M45.591 50.776c-.017.1-.022.2-.049.3a3 3 0 01-3.674 2.124l-8.621-2.31-2.126-.569-.316.915L41.868 54.2a2.985 2.985 0 003.723-3.419z" fill="#ff9478"/></g></svg>