<svg width="97" height="96" fill="none" xmlns="http://www.w3.org/2000/svg"><g clip-path="url(#clip0)"><path d="M23.576 33.413l-9.32 4.018a1.567 1.567 0 01-2.18-1.584l.942-10.106a1.567 1.567 0 00-.384-1.18L5.932 16.94a1.567 1.567 0 01.833-2.564l9.902-2.227c.42-.095.784-.358 1.004-.73l5.177-8.728a1.567 1.567 0 012.697 0l5.177 8.729c.22.37.583.634 1.004.729l9.902 2.227a1.567 1.567 0 01.833 2.564l-6.702 7.621a1.568 1.568 0 00-.384 1.18l.943 10.106a1.567 1.567 0 01-2.182 1.584l-9.319-4.018a1.567 1.567 0 00-1.241 0z" fill="#FBB042"/><path d="M23.576 26.695l-3.255 1.403a1.567 1.567 0 01-2.18-1.585l.328-3.528c.04-.43-.098-.857-.383-1.18l-2.34-2.662a1.567 1.567 0 01.833-2.564l3.457-.778a1.568 1.568 0 001.004-.73l1.808-3.047a1.567 1.567 0 012.696 0l1.808 3.048c.22.37.583.635 1.004.73l3.458.777a1.567 1.567 0 01.833 2.564l-2.34 2.661a1.568 1.568 0 00-.384 1.18l.33 3.53a1.567 1.567 0 01-2.182 1.584l-3.254-1.403a1.566 1.566 0 00-1.241 0z" fill="#FAF063"/><path d="M31.89 83.686l-10.702 9.97a1.567 1.567 0 01-2.587-.76l-3.616-14.17a1.568 1.568 0 00-.759-.984L1.438 70.645a1.567 1.567 0 01-.077-2.695l12.36-7.82c.364-.23.618-.6.7-1.024L17.22 44.75a1.567 1.567 0 012.539-.906l11.256 9.339c.332.275.762.402 1.19.35l14.518-1.776a1.567 1.567 0 011.647 2.135l-5.404 13.591c-.16.401-.146.85.036 1.24l6.174 13.26a1.567 1.567 0 01-1.522 2.225l-14.595-.94a1.57 1.57 0 00-1.17.418z" fill="#FBB042"/><path d="M29.177 76.087L24.28 80.65a1.567 1.567 0 01-2.587-.76l-1.655-6.484a1.568 1.568 0 00-.758-.983l-5.852-3.248a1.567 1.567 0 01-.077-2.695l5.656-3.578c.364-.23.618-.6.7-1.024l1.28-6.57a1.567 1.567 0 012.54-.905l5.15 4.273c.332.275.763.402 1.191.35l6.643-.813a1.567 1.567 0 011.647 2.135l-2.473 6.22c-.159.4-.146.849.036 1.24l2.825 6.067a1.567 1.567 0 01-1.521 2.226l-6.679-.43a1.57 1.57 0 00-1.17.417z" fill="#FAF063"/><path d="M67.714 55.29l-7.96.456a1.567 1.567 0 01-1.505-2.236l3.415-7.203c.185-.39.2-.839.044-1.24l-2.893-7.429a1.567 1.567 0 011.66-2.123l7.907 1.022a1.57 1.57 0 001.194-.341l6.17-5.048a1.567 1.567 0 012.533.924l1.47 7.835c.08.424.331.797.694 1.03l6.708 4.309a1.567 1.567 0 01-.096 2.694l-6.998 3.82c-.378.206-.655.56-.765.977l-2.025 7.71a1.567 1.567 0 01-2.592.742l-5.795-5.474a1.568 1.568 0 00-1.166-.425z" fill="#FBB042"/><path d="M69.847 49.44L68 49.546a1.567 1.567 0 01-1.506-2.236l.793-1.672c.185-.39.2-.839.044-1.24l-.671-1.725a1.567 1.567 0 011.661-2.123l1.835.237a1.57 1.57 0 001.194-.34l1.432-1.172a1.568 1.568 0 012.533.924l.341 1.818c.08.424.33.797.693 1.03l1.557 1a1.567 1.567 0 01-.096 2.694l-1.624.887c-.379.206-.655.56-.765.977l-.47 1.79a1.567 1.567 0 01-2.592.741l-1.345-1.27a1.567 1.567 0 00-1.166-.426z" fill="#FAF063"/><path d="M92.813 68.536a3.687 3.687 0 100-7.374 3.687 3.687 0 000 7.374z" fill="#2DB674"/><path d="M4.187 37.127a3.687 3.687 0 100-7.374 3.687 3.687 0 000 7.374zm55.915 35.095a3.687 3.687 0 100-7.374 3.687 3.687 0 000 7.374z" fill="#67308F"/><path d="M63.79 88.883a3.687 3.687 0 100-7.374 3.687 3.687 0 000 7.374zM56.416 27.89a3.687 3.687 0 100-7.374 3.687 3.687 0 000 7.374z" fill="#EB0D8C"/><path d="M47.997 43.658a3.687 3.687 0 100-7.374 3.687 3.687 0 000 7.374z" fill="#FBB042"/></g><defs><clipPath id="clip0"><path fill="#fff" transform="translate(.5)" d="M0 0h96v96H0z"/></clipPath></defs></svg>