<?xml version="1.0" encoding="UTF-8"?>
<svg id="_Слой_1" data-name="Слой 1" xmlns="http://www.w3.org/2000/svg" width="54" height="54" viewBox="0 0 54 54">
  <defs>
    <style>
      .cls-1 {
        fill: #afaaa8;
      }
    </style>
  </defs>
  <path class="cls-1" d="m43.95,6.24c.41,1.56.18,3.15.31,4.73.06.74-.15,1.29-1,1.39-.82.09-1.04.59-1.03,1.35.05,4.39.07,8.79.08,13.18,0,.65.28,1.66-.6,1.71-.92.06-.93-.93-.93-1.68.01-4.43.02-8.87.04-13.3,0-.65.06-1.23-.86-1.25-.89-.02-.92.48-.94,1.17-.23,5.57-.56,11.13-.45,16.7.07,3.37.53,6.73.46,10.11-.01.56.18.82.77.81.61-.02,1.01-.14.99-.89-.03-1.55,0-3.09,0-4.64,0-.36-.03-.74.28-1.02.22-.21.5-.33.78-.24.38.12.36.5.37.82.04,1.67.11,3.34.08,5-.01.68.15.97.85.99.73.01,1.08.41,1.06,1.18-.04,1.22-.04,2.44-.04,3.66,0,.7-.28,1-1.03,1-10.46-.02-20.92-.02-31.37,0-.94,0-1.33-.32-1.27-1.29.06-1.05.06-2.12-.01-3.17-.05-.81.24-1.26,1.03-1.33.71-.06.79-.46.83-1.07.27-4.51.08-9.03.14-13.55,0-.54-.3-1.46.59-1.46.83,0,.82.92.79,1.54-.18,4.39-.2,8.78.06,13.17.03.56-.19,1.35.79,1.33.94-.02.9-.71.92-1.4.15-4.92.54-9.84.4-14.74-.11-3.89-.19-7.79-.39-11.68-.04-.69-.35-.96-.96-.98-.68-.02-.76.45-.77.99,0,1.59-.03,3.17-.03,4.76,0,.59-.02,1.26-.8,1.26-.82,0-.73-.76-.71-1.29.03-1.5.08-3.01,0-4.51-.03-.67-.12-1.09-.88-1.14-.81-.06-1.09-.58-1.08-1.34.03-1.62.04-3.23.07-4.85h33.45Zm-6.95,34.08c.15-.96-.09-1.65-.25-2.33-.99-4.1-3.36-7.21-6.81-9.59-2.09-1.44-2.13-1.77-.03-3.26,1.99-1.41,3.74-2.96,4.99-5.07.82-1.38.83-1.43-.79-1.5-4.51-.19-9.02-.1-13.53-.07-.44,0-1-.07-1.2.38-.2.43.21.83.42,1.21,1.14,1.98,2.87,3.38,4.64,4.76,2.54,1.97,2.54,2.21-.2,3.94-2.63,1.65-4.26,4.08-5.48,6.82-.6,1.34-1.06,2.77-1.01,4.32.35.04.49-.17.68-.31,2.44-1.89,4.89-3.77,7.32-5.67,1.02-.79,1.98-.77,2.98.01,1.31,1.02,2.66,2,3.98,3.02,1.4,1.08,2.77,2.18,4.28,3.36Zm-9.51,5.51v.05c4.51,0,9.02.03,13.54-.02,1.81-.02,1.77-.1,1.75-1.95,0-.91-.34-1.19-1.24-1.16-6.95.24-13.89-.3-20.84.03-2.63.12-5.28.24-7.92-.1-.28-.04-.65-.1-.78.19-.36.82-.1,1.69,0,2.51.07.65.78.44,1.23.44,4.76.02,9.51,0,14.27,0Zm-.03-33.49h0c-2.8.01-5.6,0-8.4.02-1.49,0-1.7.29-1.39,1.76.12.55.34,1.09.38,1.65.07.91.46,1.21,1.39,1.25,4.66.19,9.32.35,13.99.03,2.92-.2,2.92-.12,3.56-3.02.34-1.52.24-1.66-1.37-1.67-2.72-.02-5.44,0-8.16,0Zm-.36-4.58s0,.04,0,.05c-4.67,0-9.34,0-14.01,0-.46,0-.9.01-1.1.54-.53,1.41.09,2.3,1.6,2.31,9.47.03,18.94.06,28.41.11.33,0,.54-.08.68-.36.7-1.46-.08-2.66-1.69-2.65-4.63.01-9.26,0-13.89,0Zm8.09,33.28c-.12-.24-.14-.37-.22-.44-2.36-1.91-4.74-3.81-7.1-5.73-.41-.33-.64-.06-.95.12-1.67.96-3.04,2.3-4.56,3.45-.97.73-2.09,1.35-2.85,2.61h15.67Zm2.11-21.49c-.26.1-.37.11-.4.16-1.66,2.53-3.74,4.69-6.08,6.59-.57.46-.39.71.11,1.08,2.25,1.69,4.31,3.58,5.7,6.08.12.22.22.55.75.45.36-4.73.42-9.49-.07-14.36Zm-19.67,14.69c1.65-3.04,3.87-5.09,6.24-6.99.64-.51.17-.81-.23-1.12-2.21-1.7-4.11-3.68-5.54-6.09-.1-.17-.21-.35-.51-.25-.78,4.68-.57,9.37.03,14.44Z"/>
  <path class="cls-1" d="m13.08,22.96c-.42-.09-.65-.35-.61-.78.03-.39.29-.55.67-.54.45.02.51.3.49.67-.01.38-.15.63-.56.65Z"/>
  <path class="cls-1" d="m27.8,30.23c0,.2.03.41,0,.61-.06.33-.2.69-.57.67-.38-.02-.49-.39-.49-.73.01-.44.07-.89.1-1.33.02-.31-.09-.71.41-.72.52,0,.53.39.55.77,0,.24,0,.49,0,.73Z"/>
</svg>