<?xml version="1.0" encoding="UTF-8"?>
<svg id="_Слой_1" data-name="Слой 1" xmlns="http://www.w3.org/2000/svg" width="48.78" height="48.19" viewBox="0 0 138.26 136.61">
  <path d="m74.71.05c3.6.5,7.22.93,10.7,2.04,23.23,7.42,37.64,22.97,42.13,46.98,3.07,16.41-.77,31.57-10.63,45.12-.26.36-.53.73-.88.98-.9.65-1.85.64-2.69-.09-.79-.68-1.01-1.57-.5-2.52.27-.51.63-.97.96-1.44,5.52-7.7,8.97-16.22,9.95-25.67,1.89-18.32-3.85-33.92-17.17-46.57-8.6-8.17-18.95-12.97-30.79-14.22-18.37-1.94-34,3.89-46.65,17.29-8.07,8.55-12.84,18.84-14.08,30.57-2,18.84,4.09,34.73,18.04,47.52,6.64,6.08,14.48,10.08,23.24,12.21,1.49.36,2.5,1.05,3.3,2.38,2.95,4.92,6.02,9.76,9,14.66.6.99.88,1.06,1.52.02,3.04-5.02,6.17-9.98,9.22-14.99.62-1.02,1.38-1.63,2.55-1.91,9.36-2.23,17.6-6.58,24.66-13.13.6-.55,1.23-1.06,2.11-.97.92.09,1.58.57,1.89,1.46.38,1.09-.13,1.9-.89,2.59-3.39,3.1-7.05,5.83-11.05,8.11-4.5,2.57-9.25,4.53-14.28,5.79-.95.24-1.53.74-2.02,1.54-3.51,5.72-7.04,11.42-10.57,17.14-1.53,2.48-3.17,2.5-4.72,0-3.54-5.7-7.07-11.41-10.57-17.14-.53-.86-1.19-1.31-2.15-1.59-23.82-7.14-38.62-22.84-43.08-47.3-3.59-19.7,2.19-37.07,16.14-51.45C36.64,7.91,48.04,2.26,61.29.46c.92-.12,1.84-.28,2.75-.42,3.56,0,7.11,0,10.67,0Z"/>
  <path d="m69.07,100.26c20.37,0,37.58-14.43,40.95-34.32,3.86-22.76-11.55-43.51-33.07-47.42-17.99-3.27-35.24,5.04-43.97,21.11-.85,1.56-1.89,2.08-3.07,1.54-1.25-.56-1.64-1.86-.91-3.26,2.53-4.86,5.81-9.15,9.89-12.8,6.8-6.1,14.74-9.93,23.77-11.16,13.87-1.9,26.25,1.7,36.84,10.94,8.32,7.26,13.32,16.48,14.95,27.38,3.54,23.59-11.62,45.86-34.6,51.08-16.97,3.85-31.67-.79-43.74-13.25-6.81-7.03-10.67-15.62-11.92-25.37-.7-5.48-.37-10.89.85-16.26.11-.48.21-.96.41-1.4.47-1.04,1.26-1.61,2.45-1.34,1.16.27,1.87,1.32,1.63,2.52-.49,2.43-.98,4.86-1.21,7.35-.66,7.4.58,14.46,3.84,21.09,6.18,12.55,16.23,20.18,29.94,22.95,2.39.48,4.83.74,6.99.63Z"/>
  <path d="m62.16,79.62c-1.7.04-3.13-.61-4.31-1.79-4.88-4.86-9.77-9.72-14.61-14.62-2.51-2.54-2.47-6.28-.03-8.73,2.43-2.43,6.16-2.48,8.74.02,3.1,3,6.15,6.05,9.14,9.15.88.91,1.39.83,2.24-.03,6.85-6.91,13.75-13.78,20.63-20.67,1.42-1.43,2.99-2.51,5.12-2.46,2.62.06,4.51,1.29,5.57,3.64,1.05,2.32.65,4.51-.94,6.48-.25.31-.54.59-.83.87-8.64,8.65-17.29,17.28-25.92,25.94-1.35,1.35-2.85,2.25-4.81,2.19Zm28.71-33.06c-.17-.9-.61-1.57-1.69-1.66-.93-.08-1.47.49-2.04,1.06-7.59,7.6-15.19,15.21-22.79,22.8-1.65,1.65-2.63,1.65-4.27.01-3.49-3.48-6.97-6.97-10.46-10.45-.41-.4-.84-.8-1.32-1.11-.7-.47-1.38-.2-1.95.29-.54.47-.76,1.09-.52,1.8.17.52.51.93.9,1.31,4.59,4.58,9.16,9.18,13.76,13.75,1.21,1.21,2.21,1.19,3.45-.03,1.77-1.74,3.52-3.51,5.28-5.27,6.84-6.85,13.69-13.69,20.53-20.54.53-.53,1.11-1.04,1.12-1.96Z"/>
</svg>