<?xml version="1.0" encoding="UTF-8"?>
<svg id="_Слой_1" data-name="Слой 1" xmlns="http://www.w3.org/2000/svg" width="48.78" height="48.19" viewBox="0 0 138.26 136.61">
  <path d="m49.26,136.61c-1.12-.62-1.35-1.67-1.35-2.83,0-2.52-.03-5.05,0-7.57.02-1.53-.46-2.85-1.38-4.06-1.48-1.94-2.92-3.9-4.38-5.84-1.54-2.05-2.29-4.36-2.27-6.93.02-2.7,0-5.4.01-8.1.01-1.7.9-2.75,2.25-2.71,1.3.04,2.12,1.04,2.13,2.69.02,2.75.04,5.49,0,8.24-.03,1.67.47,3.11,1.49,4.43,1.44,1.85,2.82,3.75,4.23,5.63,1.58,2.09,2.39,4.4,2.29,7.04-.06,1.59.02,3.19-.02,4.78-.02.85.29,1.17,1.16,1.17,12.13-.02,24.26-.02,36.4,0,.69,0,1.15-.19,1.08-.96-.57-6.42.99-12.56,2.45-18.72.13-.55.2-1.14.2-1.71.02-10.23.01-20.46.02-30.68,0-1.41-.54-2.49-1.79-3.16-1.08-.58-2.14-.47-3.14.19-1.02.68-1.38,1.67-1.38,2.86,0,3.06,0,6.11-.01,9.17,0,.7-.05,1.42-.19,2.11-.23,1.11-1.02,1.69-2.11,1.64-1.13-.06-1.88-.73-2.01-1.93-.04-.39-.02-.8-.02-1.19,0-4.83,0-9.65,0-14.48,0-.57-.02-1.16-.16-1.71-.43-1.8-1.78-2.79-3.46-2.61-1.61.17-2.82,1.54-2.83,3.31-.03,5.14,0,10.27-.01,15.41,0,2.15-.69,3.19-2.11,3.23-1.42.04-2.26-1.17-2.26-3.28,0-6.86,0-13.73-.01-20.59,0-1.89-1.09-3.22-2.68-3.4-2.05-.23-3.53,1.02-3.58,3.13-.05,1.95-.02,3.9-.02,5.84,0,5,0,10.01,0,15.01,0,.67.03,1.34-.27,1.96-.42.88-1.13,1.4-2.11,1.31-1.02-.09-1.73-.7-1.93-1.73-.1-.51-.07-1.06-.07-1.59,0-12.66,0-25.33,0-37.99,0-.8.01-1.59-.33-2.34-.56-1.23-1.78-2-3.07-1.91-1.35.09-2.4.94-2.83,2.24-.25.73-.23,1.48-.23,2.23,0,14.43-.05,28.87.06,43.3.02,2.09-.91,3.34-2.35,4.43-.9.69-1.94.65-2.78-.17-.85-.83-.98-1.9-.17-2.74.87-.92.93-1.92.92-3.05-.04-3.72,0-7.44-.07-11.16-.03-1.58-1.36-2.8-2.92-2.93-1.34-.11-2.82.93-3.2,2.32-.12.42-.12.87-.12,1.31-.01,2.3,0,4.6,0,6.91,0,.4.01.8-.06,1.19-.21,1.16-1.16,2.03-2.18,1.95-1.16-.09-2.02-.78-2.06-1.91-.12-3.31-.44-6.66.14-9.93.78-4.39,4.77-6.94,9.1-5.9,1.31.31,1.39-.12,1.38-1.17-.03-7.48-.02-14.97-.01-22.45,0-2.2.28-4.33,1.8-6.1,2.15-2.5,5.25-3.37,8.27-2.3,3.04,1.08,5.05,3.99,5.1,7.54.05,3.19.03,6.38,0,9.56,0,.9.15,1.26,1.21,1,3.99-.97,7.42.85,8.94,4.71.33.84.62,1.01,1.51.74,4.09-1.21,7.89.75,9.31,4.81.31.88.63,1.04,1.51.8,4.89-1.34,9.61,2.07,9.66,7.16.09,10.27.05,20.54,0,30.82-.01,2.21-.53,4.39-1.15,6.51-1.13,3.85-1.72,7.76-1.49,11.78.08,1.46-.03,2.92.03,4.38.04,1.18-.25,2.18-1.14,2.99h-44.9Z"/>
  <path d="m68.92,39.16c-2.66,0-5.31,0-7.97,0-6.75-.02-11.16-3.95-11.36-10.67-.19-6.32-.33-12.66.12-18.98.35-4.86,4.83-8.98,9.71-9.01,6.33-.03,12.66-.03,18.99,0,4.94.02,9.44,4.22,9.71,9.14.37,6.63.43,13.28,0,19.9-.38,5.71-4.73,9.51-10.57,9.61-2.88.05-5.75,0-8.63.01Zm.03-4.38c2.79,0,5.57,0,8.36,0,4.17,0,6.66-2.51,6.66-6.72,0-5.53,0-11.06,0-16.59,0-4.11-2.44-6.72-6.52-6.78-5.7-.08-11.41-.09-17.12,0-4.02.06-6.46,2.68-6.46,6.7,0,5.71-.03,11.41,0,17.12.02,3.66,2.65,6.24,6.31,6.26,2.92.02,5.84,0,8.76,0Z"/>
  <path d="m6.66,19.67c0-3.01-.02-6.02,0-9.03.04-5.62,4.55-10.12,10.15-10.14,1.46,0,2.92-.02,4.38,0,1.36.02,2.29.88,2.3,2.06.01,1.18-.92,2.04-2.26,2.1-1.81.08-3.62-.15-5.43.23-2.76.58-4.73,2.77-4.75,5.6-.05,6.15-.05,12.31,0,18.46.03,3.19,2.53,5.76,5.73,5.8,6.15.07,12.31.08,18.46,0,3.18-.04,5.67-2.69,5.69-5.87.03-5.84.02-11.69.01-17.53,0-4.09-2.34-6.5-6.45-6.66-1.28-.05-2.57.01-3.85-.02-1.25-.04-2.15-.91-2.17-2.05-.02-1.13.88-2.09,2.11-2.09,2.12,0,4.27-.27,6.36.12,4.75.88,8.27,4.98,8.35,9.84.11,6.2.11,12.4,0,18.6-.1,5.64-4.7,9.98-10.62,10.07-5.84.09-11.69.1-17.53,0-6.19-.11-10.49-4.63-10.5-10.83,0-2.88,0-5.76,0-8.63Z"/>
  <path d="m111.96.5c3.1,0,6.2-.01,9.3,0,5.15.03,9.8,4.44,9.89,9.57.1,6.46.11,12.93,0,19.39-.09,5.26-4.63,9.43-10.28,9.69-1.28.06-2.57.04-3.85,0-1.59-.05-2.66-.98-2.65-2.22,0-1.31,1.01-2.13,2.66-2.15,1.28-.02,2.57.02,3.85-.01,3.34-.08,5.89-2.57,5.92-5.9.05-5.93.04-11.86.01-17.79-.02-3.83-2.39-6.32-6.29-6.38-5.75-.09-11.51-.1-17.26,0-4.05.07-6.36,2.58-6.36,6.59,0,5.71-.01,11.42,0,17.13,0,3.82,2.5,6.32,6.3,6.36,1.33.01,2.66-.03,3.98.02,1.22.05,2.02.73,2.15,1.94.13,1.17-.51,2.1-1.64,2.22-4.48.48-8.89.51-12.33-3.14-1.85-1.96-2.81-4.31-2.84-6.97-.06-6.02-.06-12.04,0-18.06.05-5.86,4.58-10.29,10.42-10.3,3.01,0,6.02,0,9.03,0Z"/>
  <path d="m33.96,15.88c.05.76-.38,1.32-.89,1.83-2.37,2.38-4.73,4.77-7.13,7.12-1.41,1.38-2.47,1.35-3.89-.03-1.08-1.05-2.14-2.11-3.19-3.19-1.17-1.21-1.25-2.41-.26-3.37.95-.93,2.11-.84,3.29.24q2.21,2.04,4.34-.08c1.38-1.37,2.74-2.76,4.15-4.1.7-.67,1.57-.81,2.46-.38.79.38,1.17,1.05,1.12,1.96Z"/>
</svg>