<?xml version="1.0" encoding="UTF-8"?>
<svg id="_Слой_1" data-name="Слой 1" xmlns="http://www.w3.org/2000/svg" width="54" height="54" viewBox="0 0 54 54">
  <defs>
    <style>
      .cls-1 {
        fill: #afb0af;
      }
    </style>
  </defs>
  <path class="cls-1" d="m35.43,35.2c3.1,1.85,4,4.26,4.03,7.86.03,3.41.03,6.83,0,10.26,0,.25-.2.45-.45.45H1.06c-.38,0-.68-.3-.68-.68H.38v-9.25c0-4.07.63-6.61,4.05-8.62.14-.08.21-.2.21-.36,0-8.08,0-16.14,0-24.2,0-5.5,2.02-9.39,8.31-9.49,3.23-.05,6.46-.07,9.69-.05,4,.03,6.49.2,7.45.52,3.92,1.28,5.13,4.67,5.13,8.66,0,8.18,0,16.35,0,24.53,0,.16.07.29.21.37ZM9.91,3.38c-4.81,2.03-3.77,9.19-3.63,13.27,0,.18.09.24.26.19l1.24-.38c.13-.04.2-.13.2-.27l.09-3.27c0-.31.24-.56.55-.6,1.72-.19,3.71.01,5.23-.45,2.95-.89,4.97-2.87,6.07-5.94.15-.43.62-.65,1.05-.5.06.02.12.05.18.09l10.36,6.89c.14.1.22.23.23.4.07,1.25-.74,4.27,1.55,3.87.13-.02.19-.1.19-.22,0-4.15,1.26-10.71-3.26-12.93-.92-.45-2.46-.68-4.63-.68h-11.21c-2.16,0-3.65.18-4.48.53Zm-.1,13.85c.01.47-.34.88-.81.93l-1.37.14c-.13.01-.25.05-.36.11-1.54.89-1.03,2.98.61,3.18.52.06,1.57-.27,1.85.55,1.23,3.68,3.57,5.96,7.03,6.84,1.77.45,5.29.36,6.93-.15,3.21-.99,5.35-3.2,6.44-6.64.15-.47.63-.75,1.12-.64,2.6.59,3.12-3.34.66-3.34-.63,0-1.12-.08-1.49-.25-.17-.07-.25-.2-.25-.39v-3.76c0-.18-.08-.33-.23-.43l-8.59-5.73c-.13-.09-.24-.06-.31.08-2.27,4.43-5.94,6.48-11,6.15-.21-.01-.31.08-.3.29l.09,3.06Zm-3.56,5.97v11c.01.16.09.23.25.23,3.29-.21,8.18.83,9.09-3.66.04-.19-.04-.32-.22-.38-3.39-1.2-5.71-3.47-6.95-6.81-.06-.17-.18-.27-.36-.31l-1.5-.29c-.2-.04-.3.03-.3.22Zm18.04,7.51c.51,4.29,5.45,3.7,8.96,3.65.16,0,.24-.09.24-.25v-10.81c0-.17-.08-.26-.25-.27-1.26-.1-1.69.28-2.21,1.43-1.3,2.89-3.48,4.87-6.54,5.92-.15.05-.22.16-.2.32Zm3.88,5.33c-3.06-.39-4.93-2.05-5.61-4.99-.02-.1-.11-.17-.21-.17h-4.79c-.15,0-.24.08-.28.23-.71,2.91-2.57,4.55-5.59,4.92-.18.02-.28.13-.28.31v1.09c0,.21.11.32.32.32l16.4.06c.2,0,.29-.1.29-.29v-1.18c0-.18-.09-.28-.27-.3Zm-21.81,8.65c-.2,2.38-.21,4.78-.05,7.21.01.18.11.27.29.27h4.47c.23,0,.34-.11.34-.34v-12.09c0-.22-.11-.32-.33-.3-1.99.16-1.35-1.9-1.27-3.04.01-.17-.07-.26-.23-.29l-1.22-.15c-.23-.02-.34.08-.34.3l-.06,4.98c0,.17-.05.32-.14.46-.72,1.09-1.34,1.61-1.45,2.99Zm25.24-8.65l-1.25-.06c-.17,0-.26.07-.27.25l-.07,2.69c0,.2-.1.31-.29.35l-1.07.23c-.15.03-.23.13-.23.28v12.17c0,.15.08.23.23.23h4.6c.13,0,.23-.1.23-.23v-7.83c0-.15-.04-.29-.13-.42-.75-1.11-1.43-1.79-1.51-3.21-.08-1.41-.07-2.8,0-4.15.01-.15-.1-.28-.26-.29,0,0,0,0,0,0Zm-26.85,7.18c.27-.37,1.53-2.05,1.51-2.43-.05-1.37-.03-2.77.05-4.18,0-.13-.09-.24-.22-.25-.04,0-.07,0-.11.02-3.23,1.3-3.89,3.63-3.89,7.1,0,2.81,0,5.63.01,8.45,0,.16.08.24.24.24h1.99c.19,0,.29-.1.29-.29v-8.32c0-.13.04-.24.11-.34Zm32.98-.92c-.03-2.73-1.3-5.02-3.98-5.95-.17-.06-.26,0-.26.19v4.08c0,.16.04.3.13.43l1.46,2.19c.09.13.13.28.13.44v8.15c0,.23.11.34.34.34h1.93c.16,0,.24-.08.24-.23.03-3.23.03-6.44,0-9.64Zm-15.78-1.16c.19,0,.36.13.41.32.82,3.42,1.35,6.89,1.6,10.4.01.21.12.31.33.31h2.13c.19,0,.29-.1.29-.29v-12.25c0-.15-.08-.23-.23-.23h-13.11c-.15,0-.23.08-.23.23v12.19c0,.23.11.34.34.34h2.06c.21,0,.32-.1.34-.31.28-3.48.81-6.93,1.6-10.33.06-.23.27-.4.51-.4h3.96Zm-2.25,1.65c-.21-.06-.41-.03-.61.08-.12.06-.19.16-.22.3-.23,1.09-.94,3.06-.36,4.02.63,1.03,1.98,1.07,2.76.17.77-.87-.12-3.25-.32-4.35-.03-.2-.15-.29-.36-.26l-.53.07c-.13.02-.25,0-.37-.03Zm2.01,6.25c-1.23.85-2.3.63-3.62.06-.17-.07-.26-.02-.28.16l-.28,2.68c-.02.16.05.23.21.23h4.33c.21,0,.3-.1.27-.3l-.31-2.68c-.02-.23-.13-.28-.32-.15Z"/>
  <path class="cls-1" d="m47.91,1.77c1.03,2.45,1.98,3.85,4.74,4.57.19.05.29.17.3.36l.05.73c.02.23-.09.38-.31.44-2.46.67-4.04,2.22-4.75,4.66-.05.17-.14.29-.29.38-.69.42-1.22-.01-1.46-.7-.76-2.24-2.31-3.69-4.64-4.36-.21-.06-.32-.2-.32-.42v-.64c0-.18.09-.29.26-.34,2.46-.71,4.07-2.29,4.81-4.72.05-.15.14-.27.28-.34.63-.34,1.07-.21,1.32.4Zm-3.39,5.49c1,1.1,1.66,1.31,2.42,2.58.11.19.23.19.34,0,.6-1.03,1.41-1.86,2.43-2.5.19-.12.2-.24,0-.37-.98-.68-1.79-1.52-2.45-2.52-.13-.19-.25-.19-.36.01-.57,1-1.35,1.8-2.34,2.4-.18.11-.2.24-.06.4Z"/>
  <path class="cls-1" d="m41.23,22.74c-.84-2.22-2.18-3.05-4.07-3.96-.35-.17-.5-.6-.33-.95.08-.17.22-.29.4-.36,2-.73,3.38-2.09,4.14-4.06.14-.37.55-.55.91-.41.19.07.35.23.42.42.72,1.97,2.07,3.31,4.05,4.01.17.06.26.18.27.36l.03.73c0,.18-.07.3-.24.36-1.88.67-3.21,1.92-3.99,3.75-.26.61-.69.75-1.3.43-.13-.07-.23-.18-.28-.32Zm.88-6.65s-.12-.05-.17,0h0s-2.01,1.99-2.01,1.99c-.05.05-.05.12,0,.17h0s1.98,2,1.98,2c.05.05.12.05.17,0h0s2.01-1.99,2.01-1.99c.05-.05.05-.12,0-.17h0s-1.98-2-1.98-2Z"/>
  <path class="cls-1" d="m14.89,17.3c-.74.19-1.32.62-1.73,1.29-.11.17-.24.19-.38.04l-.86-.86c-.11-.11-.11-.23-.02-.35,1.69-2.23,4.35-2.49,5.86.1.09.15.06.28-.06.4l-.69.63c-.16.14-.32.14-.47,0l-1.15-1.12c-.14-.13-.3-.17-.49-.13Z"/>
  <path class="cls-1" d="m22.09,17.54c1.53-2.64,4.12-2.36,5.88-.09.1.13.09.26-.02.37l-.75.75c-.14.14-.29.15-.43,0l-1.07-1.06c-.1-.1-.22-.15-.36-.16-.87-.04-1.53.35-1.96,1.18-.11.22-.26.24-.44.08l-.79-.73c-.11-.1-.13-.22-.06-.35Z"/>
  <path class="cls-1" d="m25.43,24.07c-3.2,3.33-7.72,3.59-11,0-.13-.14-.12-.27,0-.4l.72-.72c.14-.15.29-.15.44-.01,2.99,2.73,5.88,2.71,8.66-.07.12-.12.24-.12.36,0l.81.81c.13.13.13.25,0,.38Z"/>
</svg>