<?xml version="1.0" encoding="UTF-8"?>
<svg id="_Слой_1" data-name="Слой 1" xmlns="http://www.w3.org/2000/svg" width="54" height="54" viewBox="0 0 54 54">
  <defs>
    <style>
      .cls-1 {
        fill: #aeabaa;
      }
    </style>
  </defs>
  <path class="cls-1" d="m27.99,47.81c-6.75,0-13.49,0-20.24,0-3.3,0-3.25,0-3.32-3.23-.06-2.99.08-5.97.27-8.95.28-4.26,4.42-8.79,10.13-8.43.64.04,1.3-.04,1.94.23.63.27,1.09-.16,1.54-.51,2.27-1.73,4.74-2.99,7.61-3.39,3.44-.48,6.52.42,9.41,2.19.07.04.13.1.19.15,1.32,1.15,2.64,1.73,4.61,1.47,5.32-.7,9.68,3.32,10.51,7.42.18.91.34,1.85.36,2.78.04,2.74.02,5.48,0,8.22-.01,1.83-.23,2.05-2.05,2.05-5.97,0-11.94-.01-17.91-.02-1.02,0-2.04,0-3.07,0,0,0,0,.02,0,.03Zm-.25-2.16s0,.01,0,.02c3.64,0,7.28,0,10.92,0,.69,0,1.21-.09,1.2-.97-.03-2.69.26-5.36-.03-8.07-.81-7.66-7.13-11.66-13.97-10.76-6.21.81-10.38,6.01-10.38,12.32,0,2.04.18,4.08.15,6.12-.02,1.04.33,1.36,1.32,1.35,3.6-.04,7.2-.01,10.79-.01Zm-20.87-5.75c0,1.87.02,3.3,0,4.72-.01.66.27.99.93,1,1.55.01,3.1.02,4.65.05.63.01.87-.3.89-.89.05-1.71.23-3.43.15-5.13-.15-3.2.3-6.24,1.85-9.09.55-1.03.34-1.28-.8-1.29-3.24-.02-6.62,2.58-7.45,5.72-.47,1.77-.13,3.57-.22,4.92Zm35.14.72c.13,1.3.22,2.61.11,3.91-.06.77.22,1.13,1.03,1.12,1.39-.02,2.78-.01,4.17.02.99.03,1.35-.37,1.32-1.39-.07-2.53,0-5.06-.03-7.59-.06-4.16-3.94-7.62-8.06-7.25-.69.06-.86.25-.54.9.45.91.85,1.85,1.23,2.8.97,2.42.7,4.98.78,7.49Z"/>
  <path class="cls-1" d="m27.89,5.84c4.37-.15,8.37,4.12,8.17,8.61-.17,3.84-3.62,8.06-8.66,7.93-3.38-.09-8.08-3.28-7.98-8.34.1-4.59,3.92-8.28,8.46-8.21Zm-6.07,8.29c-.22,3.64,2.86,5.97,5.8,5.93,4.17-.06,6.24-3.43,6.06-6.53-.17-2.99-2.88-5.55-6.06-5.48-3.37.08-5.87,2.69-5.8,6.08Z"/>
  <path class="cls-1" d="m20.12,19.79c.03,3.19-2.53,5.92-5.67,5.84-3.25-.08-5.35-2.48-5.54-5.59-.16-2.7,2.82-5.54,5.55-5.52,2.75.01,5.64,2.7,5.66,5.27Zm-2.41.45c.01-1.99-1.28-3.3-3.27-3.31-1.73,0-3.19,1.46-3.19,3.2,0,2.03,1.21,3.21,3.31,3.22,1.89.01,3.13-1.22,3.15-3.12Z"/>
  <path class="cls-1" d="m46.51,20.09c.06,2.91-2.53,5.62-5.54,5.54-3-.08-5.47-2.18-5.51-5.57-.04-3.16,2.33-5.32,5.46-5.5,2.88-.17,5.53,2.58,5.59,5.53Zm-5.45,3.27c1.93.02,3.16-1.17,3.16-3.09,0-1.99-1.32-3.34-3.26-3.34-1.73,0-3.2,1.46-3.21,3.19-.01,2.02,1.2,3.2,3.31,3.23Z"/>
</svg>