<?xml version="1.0" encoding="UTF-8"?>
<svg id="_Слой_1" data-name="Слой 1" xmlns="http://www.w3.org/2000/svg" width="54" height="54" viewBox="0 0 54 54">
  <defs>
    <style>
      .cls-1 {
        fill: #b0abaa;
      }
    </style>
  </defs>
  <path class="cls-1" d="m28.55,4.66c10.74-.77,21.75,9.51,21.8,20.51.07,14.89-10.98,23.35-22.07,23.38-11.51.04-22.23-10.23-21.86-22.62.34-11.21,9.94-21.72,22.12-21.27Zm.03,2.82c-10.55.01-19.25,8.6-19.17,19.04.08,10.95,8.8,18.98,19.72,19.02,9.95.04,18.8-9.55,18.44-19.03-.41-10.46-8.61-19.05-18.99-19.03Z"/>
  <path class="cls-1" d="m42.99,26.34c-.68.96-1.5,1.59-2.75,1.58-2.61,0-5.22.09-7.83.03-1.59-.04-2.13.51-2.26,2.17-.25,3-.36,5.99-.5,8.99-.04.79-.09,1.81-1.08,1.81-.99,0-1.04-.96-1.07-1.79-.13-3-.37-6-.42-9.01-.02-1.3-.41-1.71-1.73-1.87-2.92-.36-5.84-.32-8.77-.36-1.09-.02-2.59.14-2.58-1.3,0-1.12,1.35-1.28,2.45-1.29,2.93-.03,5.85-.17,8.78-.18,1.29,0,1.81-.4,1.83-1.77.06-3.08.3-6.16.46-9.24.04-.77-.07-1.87.81-1.93.92-.07.97.98,1.1,1.79.46,2.99.43,6,.43,9,0,1.61.52,2.26,2.22,2.2,2.92-.1,5.85,0,8.78.04.88.01,1.72.14,2.15,1.11Z"/>
</svg>