<svg xmlns="http://www.w3.org/2000/svg" width="54" height="54" viewBox="0 0 54 54">
                            <path d="M25.3 5.49c1.73 2.26 1.62 5.24-.38 7.22-1.9 1.88-4.68 1.93-7.05.13-1.94-1.47-2.49-4.59-1.19-6.77.33-.55.84-1.23 1.47-1.6 3.55-2.1 6.58.27 7.15 1.02Zm-4.18 7.16c2.42.03 3.9-1.38 3.95-3.75.06-2.36-1.58-4.04-3.93-4.05-1.93 0-3.84 1.84-3.86 3.73-.03 2.53 1.39 4.05 3.84 4.08ZM28.09 49.87c-4.01 0-8.02.03-12.03 0-6.84-.07-10.8-7.02-7.36-12.93.94-1.61 2.07-3.12 3.11-4.67.67-1 1.05-1.85-.27-2.77-1.41-.98-1.42-2.54-1.03-4.04.38-1.48 1.3-2.57 2.92-2.69 1.15-.09 1.67-.57 1.97-1.7.52-2.02 2.71-3.65 4.7-3.74 2.26-.1 4.59 1.33 5.25 3.5.42 1.39 1.14 1.56 2.44 1.43 4.77-.48 9.55-.53 14.3.13 1.56.22 3.29.81 3.76 2.62.45 1.72.44 3.51-1.23 4.75-.91.67-.74 1.36-.2 2.16 1.18 1.78 2.41 3.52 3.45 5.38 3.16 5.66-.85 12.49-7.37 12.58-4.14.06-8.28.01-12.42.01 0 0 0-.01 0-.02Zm0-1.51c4.26 0 8.53.03 12.79-.01 2.86-.03 5.8-1.99 6.51-5.26.71-3.28-.9-5.59-2.48-8.02-1.16-1.78-2.68-3.36-3.31-5.42-.37-1.23-.99-1.56-2.22-1.55-7.11.05-14.21.07-21.32-.01-1.75-.02-3.33-.28-3.4 2.2-.01.44-.52.86-.81 1.29-1.29 1.93-2.64 3.82-3.87 5.79-1.61 2.56-1.77 5.28-.16 7.85 1.44 2.3 3.71 3.22 6.45 3.17 3.94-.07 7.88-.02 11.82-.02Zm-4.97-26s.61.09.75-.58c.14-.66-.01-1.27-.49-1.79-1.47-1.59-4.43-1.54-5.81.16-.44.54-1.38 1.21-.57 1.92.8.7 1.45.12 1.94-.77.63-1.13 1.46-1.31 2.03.1.32.77.81 1.13 2.14.95Zm-10.62 5.41c.41.02 1.74-.43 2.97-1.01.59-.28 8.32.22 8.85.22 2.19 0 15.75.12 16.63-.23.27-.11 1.09-2.18-.91-2.83s-25.44.12-25.79.1c-.94-.05-2.69 1.44-2.77 2.4-.07.78.39 1.17 1.02 1.35Zm30.34-3.46c-.87.34-.84 1.07-.78 1.65.11 1.09.8 1.74 1.92 1.78.63.02.96-.44.84-1.03-.24-1.14-1-1.89-1.98-2.4Z" />
                            <path d="M35.26 20.4c-2.76.03-5.39-2.61-5.47-5.49-.07-2.39 2.82-5.33 5.23-5.34 2.86 0 5.4 2.51 5.5 5.44.09 2.77-2.44 5.37-5.26 5.39Zm-.29-1.53c2.45.05 4.03-1.44 4.07-3.85.04-2.19-1.64-3.93-3.81-3.96-2.17-.02-3.94 1.67-3.98 3.83-.05 2.32 1.45 3.92 3.73 3.97ZM19.15 9.16c-.04-1.07.23-1.7.7-2.27.39-.47.91-.58 1.38-.31.58.34.41.88.03 1.29-.32.34-.54.68-.58 1.16-.05.58.61 1.6-.53 1.59-.95-.01-.96-1.03-.99-1.47ZM12.22 38.08c.25.94-.23 1.63-.33 2.38-.39 2.71.77 4.32 3.47 4.79.5.09 1 .2 1.49.32.52.13 1.41.02 1.27.79-.12.68-.98.4-1.52.42-4.29.12-7.14-3.44-5.83-7.29.22-.64.42-1.4 1.45-1.42ZM13.69 36.44c-.54.02-.76-.27-.65-.71.15-.61.58-.98 1.22-.99.49 0 .96.28.87.77-.13.75-.88.77-1.44.92Z" />
                            <path d="m34.77,12.77c.15.08.43.14.57.31.27.35.19.75-.13,1.03-.67.57-.89,1.18-.44,2,.15.27.09.73-.22.83-.23.07-.64-.11-.84-.31-.56-.55-1.01-1.19-.63-2.04.34-.76.69-1.53,1.7-1.83Z" />
                        </svg>