<?xml version="1.0" encoding="UTF-8"?>
<svg id="_Слой_1" data-name="Слой 1" xmlns="http://www.w3.org/2000/svg" width="54" height="54" viewBox="0 0 54 54">
  <defs>
    <style>
      .cls-1 {
        fill: #aca8a7;
      }
    </style>
  </defs>
  <path class="cls-1" d="m48.85,34.96c-1.6,3.62-3.93,6.8-7.4,9.56-2.82,2.24-6.02,3.72-9.57,4.35-11.1,1.97-21.65-4.06-25.27-14.52-4.04-11.69.78-23.91,12.08-28.21,6.39-2.43,13.19-1.27,13.75-1.19,4.74.72,8.64,3.06,11.77,6.57.92,1.03,1.88,2.04,2.57,3.22,5.69,9.71,3.05,17.99,2.07,20.21ZM7.4,27.14c-.12,10.02,8.24,19.85,20.5,19.98,10.14.11,20.42-8.7,20.32-20.58-.09-10.33-8.31-20.49-21.32-20.14-10.26.27-19.68,8.65-19.5,20.75Z"/>
  <path class="cls-1" d="m28.41,17.75c-.17,2.65.45,5.28.3,7.93-.04.66.44,1.12.87,1.55,2.02,2.01,4.04,4.02,6.09,6.01.58.57.84,1.04.1,1.71-.43.39-.76.42-1.14.04-2.48-2.47-4.96-4.95-7.42-7.44-.43-.44-.44-1.01-.44-1.6-.04-3.22.44-6.41.27-9.64-.06-1.18-.05-2.36-.25-3.53-.13-.77.21-.99.95-.98.7,0,1.05.14.98.94-.14,1.66-.21,3.33-.3,4.99Z"/>
</svg>