<?xml version="1.0" encoding="UTF-8"?>
<svg id="_Слой_1" data-name="Слой 1" xmlns="http://www.w3.org/2000/svg" width="23.19" height="22.92" viewBox="0 0 65.74 64.96">
  <defs>
    <style>
      .cls-1 {
        fill: none;
        stroke: #000;
        stroke-linecap: round;
        stroke-linejoin: round;
        stroke-width: 2px;
      }
    </style>
  </defs>
  <path class="cls-1" d="m29.47,24.46c-.29.69-.78,1.23-1.3,1.75-1.97,1.98-2.11,5.46-.19,7.58,1.11,1.22,2.26,2.4,3.5,3.5,1.65,1.47,3.56,1.75,5.63,1.1,1.1-.34,1.91-1.11,2.73-1.87,1.28-1.18,3.64-1.19,4.91,0,1.51,1.42,3,2.88,4.4,4.41,1.25,1.36,1.3,3.16.33,4.58-.56.83-1.33,1.47-2.06,2.15-1.34,1.24-2.91,1.9-4.73,2.02-1.02.06-2.03,0-3.05,0-1.76-.01-3.49-.3-5.18-.74-4.01-1.04-7.57-2.95-10.63-5.76-3.21-2.95-5.54-6.48-6.94-10.62-1.04-3.07-1.36-6.24-1.29-9.46.03-1.41.39-2.74,1.11-3.95.7-1.17,1.71-2.08,2.71-2.98,1.35-1.22,3.6-1.24,4.92,0,1.28,1.2,2.5,2.47,3.77,3.68.92.88,1.61,1.85,1.61,3.18,0,0-.15,1.14-.26,1.42Z"/>
  <path class="cls-1" d="m1.48,63.58c1.42-.04,2.73-.29,3.76-.5,3.54-.71,7.08-1.43,10.63-2.14.17-.04.35-.07.52-.13,1.5-.55,2.85-.16,4.22.51,2.39,1.16,4.96,1.79,7.58,2.2,2.31.37,4.66.46,6.99.26,6.44-.55,12.24-2.77,17.3-6.85,3.87-3.11,6.83-6.92,8.93-11.41,1.2-2.56,2.02-5.25,2.45-8.04.37-2.4.5-4.81.31-7.26-.26-3.27-.95-6.42-2.17-9.45-1.29-3.21-3.1-6.12-5.36-8.76-2.91-3.39-6.38-6.02-10.38-7.94-2.5-1.2-5.14-2.03-7.89-2.49-2-.33-4.01-.55-6.03-.5-4.61.12-9,1.14-13.16,3.16-3.88,1.89-7.21,4.48-10.03,7.72-3.61,4.14-5.93,8.95-7.05,14.32-.47,2.25-.65,4.56-.6,6.86.08,3.19.61,6.3,1.62,9.33.4,1.19.8,2.41,1.44,3.49.51.87.26,1.71.09,2.54-.87,4.31-1.81,8.6-2.69,12.9-.12.58-.48,2.18-.48,2.18Z"/>
</svg>