<?xml version="1.0" encoding="utf-8"?>
<!-- Generator: Adobe Illustrator 22.1.0, SVG Export Plug-In . SVG Version: 6.00 Build 0)  -->
<svg version="1.1" id="Слой_1" xmlns="http://www.w3.org/2000/svg" xmlns:xlink="http://www.w3.org/1999/xlink" x="0px" y="0px"
	 width="317px" height="54px" viewBox="0 0 317 54" style="enable-background:new 0 0 317 54;" xml:space="preserve">
<style type="text/css">
	.st0{fill:#5C7EE5;}
	.st1{fill:#E57373;stroke:#102875;stroke-width:3;}
	.st2{fill:#FFFFFF;stroke:#FFFFFF;stroke-width:0.4;}
	.st3{fill:#FFFFFF;}
	.st4{fill:none;stroke:#C11311;stroke-width:0.4;}
	.st5{fill:#DEE5FA;}
	.st6{fill:#DEE5FA;stroke:#DEE5FA;}
	.st7{font-family:'Arial-BoldMT';}
	.st8{font-size:28px;}
</style>
<path class="st0" d="M39,7h270c4.4,0,8,3.6,8,8v25c0,4.4-3.6,8-8,8H39c-4.4,0-8-3.6-8-8V15C31,10.6,34.6,7,39,7z"/>
<circle class="st1" cx="27" cy="27" r="25.5"/>
<path class="st0" d="M48,27c0,11.6-9.4,21-21,21S6,38.6,6,27S15.4,6,27,6S48,15.4,48,27z"/>
<path class="st2" d="M36.7,15c0.1,0,0.2,0,0.3-0.1l2.5-1c0.3-0.1,0.5-0.4,0.3-0.7s-0.5-0.4-0.9-0.3l-2.5,1c-0.3,0.1-0.5,0.4-0.3,0.7
	S36.5,15,36.7,15z"/>
<path class="st2" d="M39.5,21.4l-1.8-0.7c-0.3-0.1-0.7,0-0.9,0.3s0,0.6,0.3,0.7l1.8,0.7c0.1,0,0.2,0.1,0.3,0.1
	c0.2,0,0.5-0.1,0.6-0.3C40,21.8,39.8,21.5,39.5,21.4z"/>
<path class="st3" d="M35.4,19.8l-3.5-1.4V17l2-0.8c0.3-0.1,0.5-0.4,0.3-0.7s-0.5-0.4-0.9-0.3l-2,0.8c-0.2-0.1-0.4-0.2-0.7-0.2H20.2
	c-2.9,0-5.2,1.9-5.2,4.3v0.7c0,0.2,0.1,0.4,0.3,0.5c0.1,0,0.2,0.1,0.3,0.1s0.2,0,0.4-0.1c0.7-0.4,1.6-0.6,2.5-0.6h0.1v1.6
	c-1,2-1.5,4.1-1.8,6.2c0,0.3-0.4,4.8-0.1,4.8l0.9-3.7c0.3,0,0.4-0.7,0.4-1c0.2-2,0.7-3.9,1.6-5.7h4.9v1.4c0,1.8,1.4,3.3,3.4,3.9
	c1.5,0.4,2.5,1.6,2.5,2.9v6.1c0,1-0.9,1.7-2.1,1.7h-8.2c-1.2,0-2.1-0.8-2.1-1.7v-3.9c0-0.3,0.3-8.4-0.4-4.2c-0.4,0-0.9,3.9-0.9,4.2
	v3.9c0,1.5,1.5,2.8,3.4,2.8h8.2c1.9,0,3.4-1.2,3.4-2.8v-6.1c0-1.8-1.4-3.3-3.4-3.9c-1.5-0.4-2.5-1.6-2.5-2.9v-1.7
	c0.9,0.8,2.1,1.3,3.4,1.4c0,0,0,0,0.1,0c0.2,0,0.5-0.1,0.6-0.3c0.1-0.2,0.1-0.4-0.1-0.6c-0.8-0.6-1.2-1.4-1.2-2.3v-1.3h1.9
	c0.3,0,0.5-0.1,0.7-0.2l3.5,1.4c0.1,0,0.2,0.1,0.3,0.1c0.2,0,0.5-0.1,0.6-0.3C35.8,20.2,35.7,19.9,35.4,19.8z M16.3,20
	c0.1-1.7,1.8-3.1,3.9-3.1h7.5v1.6h-0.9c-0.2,0-0.3,0-0.4,0.1l-1.4,1h-6.5C17.8,19.6,17,19.7,16.3,20z M24.6,20.7v1.2H20v-1.2H24.6z
	 M26,20.3l1.1-0.8h0.3v1.3c0,0.6,0.2,1.2,0.4,1.7C26.9,22.1,26.2,21.3,26,20.3z M30.6,18.5h-1.5v-1.6h1.5V18.5z"/>
<path class="st4" d="M16.8,33.3c-0.4,0,0.1-4.5,0.1-4.8c0.2-2.1,0.8-4.2,1.8-6.2v-1.6h-0.1c-0.9,0-1.8,0.2-2.5,0.6
	c-0.1,0.1-0.2,0.1-0.4,0.1c-0.1,0-0.2,0-0.3-0.1C15.1,21.2,15,21,15,20.8v-0.7c0-2.4,2.3-4.3,5.2-4.3h10.4c0.3,0,0.5,0.1,0.7,0.2
	l2-0.8c0.3-0.1,0.7,0,0.9,0.3s0,0.6-0.3,0.7l-2,0.8v1.4l3.5,1.4c0.3,0.1,0.5,0.4,0.3,0.7c-0.1,0.2-0.3,0.3-0.6,0.3
	c-0.1,0-0.2,0-0.3-0.1l-3.5-1.4c-0.2,0.1-0.4,0.2-0.7,0.2h-1.9v1.3c0,0.9,0.4,1.7,1.2,2.3c0.2,0.2,0.2,0.4,0.1,0.6S29.7,24,29.4,24
	c0,0,0,0-0.1,0c-1.4-0.1-2.6-0.6-3.4-1.4v1.7c0,1.3,1,2.5,2.5,2.9c2,0.6,3.4,2.2,3.4,3.9v6.1c0,1.5-1.5,2.8-3.4,2.8h-8.2
	c-1.9,0-3.4-1.2-3.4-2.8C16.8,37.2,16.8,33.3,16.8,33.3z M18.1,28.9l0.1-0.3c0-0.3-0.1,0.3-0.1,0c0.2-2,0.7-3.9,1.6-5.7h4.9v1.4
	c0,1.8,1.4,3.3,3.4,3.9c1.5,0.4,2.5,1.6,2.5,2.9v6.1c0,1-0.9,1.7-2.1,1.7h-8.2c-1.2,0-2.1-0.8-2.1-1.7v-3.9c-0.2,1.1,0-3.7,0-4.7
	C18.1,29,18.1,28.6,18.1,28.9z M16.3,20c0.1-1.7,1.8-3.1,3.9-3.1h7.5v1.6h-0.9c-0.2,0-0.3,0-0.4,0.1l-1.4,1h-6.5
	C17.8,19.6,17,19.7,16.3,20z M24.6,20.7v1.2H20v-1.2H24.6z M26,20.3l1.1-0.8h0.3v1.3c0,0.6,0.2,1.2,0.4,1.7
	C26.9,22.1,26.2,21.3,26,20.3z M30.6,18.5h-1.5v-1.6h1.5V18.5z"/>
<path class="st2" d="M35.1,18.2h2.4c0.4,0,0.6-0.2,0.6-0.5s-0.3-0.5-0.6-0.5h-2.4c-0.4,0-0.6,0.2-0.6,0.5
	C34.4,18,34.7,18.2,35.1,18.2z"/>
<path class="st5" d="M19.6,31.4c0-0.6,0.4-1,1-1h7.1c0.6,0,1,0.4,1,1v5.3c0,0.6-0.4,1-1,1h-7.1c-0.6,0-1-0.4-1-1V31.4z"/>
<line class="st6" x1="22.8" y1="22.1" x2="23.7" y2="31.2"/>
<text transform="matrix(1 0 0 0.81 135.4602 36.4595)" class="st3 st7 st8">ЖМИ!</text>
</svg>
