<svg width="317" height="54" viewBox="0 0 317 54" fill="none" xmlns="http://www.w3.org/2000/svg">
<rect x="31" y="7" width="286" height="41" rx="8" fill="#00AEA6"/>
<circle cx="27" cy="27" r="25.5" fill="white" stroke="#00955D" stroke-width="3"/>
<rect x="99" y="39" width="140" height="15" fill="#00955D"/>
<path d="M48 27C48 38.598 38.598 48 27 48C15.402 48 6 38.598 6 27C6 15.402 15.402 6 27 6C38.598 6 48 15.402 48 27Z" fill="#00AEA6"/>
<path d="M93.957 39.0693H90.0347V34H77.6021V39.0552H73.5806L73.354 30.5874H74.9116C75.7518 29.8888 76.3984 28.8646 76.8516 27.5146C77.3141 26.1553 77.6257 24.4749 77.7861 22.4736L78.3809 13.3828H91.8896V30.5874H94.2969L93.957 39.0693ZM79.7827 30.5874H87.6416V16.8237H82.4165L82.0625 22.2471C81.7793 25.8815 81.0194 28.6616 79.7827 30.5874ZM108.938 25.0649H100.782V30.5874H110.354V34H96.5342V13.3828H110.326V16.8237H100.782V21.7373H108.938V25.0649ZM123.014 19.061C123.014 18.2775 122.707 17.6639 122.093 17.2202C121.48 16.7671 120.668 16.5405 119.658 16.5405C118.751 16.5405 117.996 16.7671 117.392 17.2202C116.797 17.6639 116.5 18.2445 116.5 18.9619H112.252C112.252 17.848 112.563 16.8473 113.187 15.96C113.819 15.0632 114.711 14.3646 115.863 13.8643C117.024 13.3639 118.289 13.1138 119.658 13.1138C122.037 13.1138 123.901 13.6235 125.251 14.6431C126.601 15.6626 127.276 17.1069 127.276 18.9761C127.276 19.8918 126.997 20.7414 126.44 21.5249C125.893 22.3084 125.109 22.9362 124.09 23.4082C125.223 23.8047 126.091 24.4089 126.695 25.2207C127.299 26.0231 127.602 27.0238 127.602 28.2227C127.602 30.0729 126.875 31.5456 125.421 32.6406C123.977 33.7262 122.056 34.269 119.658 34.269C118.157 34.269 116.807 34.0142 115.608 33.5044C114.409 32.9852 113.498 32.2819 112.875 31.3945C112.261 30.4977 111.955 29.4593 111.955 28.2793H116.231C116.231 29.0156 116.552 29.634 117.194 30.1343C117.836 30.6252 118.657 30.8706 119.658 30.8706C120.791 30.8706 121.683 30.6157 122.334 30.106C122.995 29.5962 123.325 28.9495 123.325 28.166C123.325 27.0898 123.033 26.3205 122.447 25.8579C121.862 25.3859 121.008 25.1499 119.884 25.1499H117.35V21.8223H119.969C121.999 21.7939 123.014 20.8735 123.014 19.061ZM143.107 13.3828H147.369V34H143.107V20.3071L134.852 34H130.604V13.3828H134.852V27.104L143.107 13.3828ZM167.831 34H163.583V25.1641H155.299V34H151.051V13.3828H155.299V21.7373H163.583V13.3828H167.831V34ZM183.662 15.2236H183.917C185.531 15.2236 186.989 15.5824 188.292 16.2998C189.604 17.0078 190.624 18.0179 191.351 19.3301C192.077 20.6423 192.441 22.1338 192.441 23.8047C192.441 26.278 191.648 28.2982 190.062 29.8652C188.486 31.4323 186.352 32.2158 183.662 32.2158V34.8496H179.569V32.2158H179.3C177.667 32.2158 176.194 31.8665 174.882 31.168C173.57 30.46 172.551 29.4688 171.824 28.1943C171.106 26.9199 170.748 25.4661 170.748 23.833C170.748 22.181 171.106 20.7036 171.824 19.4009C172.541 18.0981 173.547 17.0833 174.84 16.3564C176.133 15.6201 177.577 15.2425 179.173 15.2236H179.569V12.5332H183.662V15.2236ZM179.3 18.7495C177.894 18.7495 176.785 19.1932 175.973 20.0806C175.17 20.9679 174.769 22.2188 174.769 23.833C174.769 25.3434 175.17 26.5329 175.973 27.4014C176.775 28.2604 177.903 28.6899 179.357 28.6899H179.569V18.7495H179.3ZM183.662 18.7495V28.6899H183.945C185.333 28.6899 186.423 28.2557 187.216 27.3872C188.018 26.5093 188.419 25.3151 188.419 23.8047C188.419 22.2282 188.028 20.9915 187.244 20.0947C186.461 19.1979 185.337 18.7495 183.874 18.7495H183.662ZM207.635 25.0649H199.479V30.5874H209.051V34H195.23V13.3828H209.022V16.8237H199.479V21.7373H207.635V25.0649ZM218.269 25.5747H215.819V34H211.571V13.3828H215.819V21.6382H217.759L222.8 13.3828H227.983L221.625 23.1392L228.648 34H223.579L218.269 25.5747ZM230.107 13.3828H234.355V30.5874H242.61V13.3828H246.873V30.5874H249.69L249.407 38.9702H245.442V34H230.107V13.3828ZM264.658 13.3828H268.92V34H264.658V20.3071L256.402 34H252.154V13.3828H256.402V27.104L264.658 13.3828ZM282.131 34V26.5659H278.676L274.952 34H270.364L274.768 25.2065C272.644 24.036 271.582 22.2188 271.582 19.7549C271.582 17.7347 272.243 16.1724 273.564 15.0679C274.886 13.9634 276.732 13.4017 279.101 13.3828H286.394V34H282.131ZM275.83 20.0664C275.83 21.2181 276.109 22.0535 276.666 22.5728C277.232 23.092 278.077 23.3516 279.2 23.3516H282.131V16.8237H279.2C276.953 16.8237 275.83 17.9046 275.83 20.0664Z" fill="white"/>
<path d="M130.532 48.3887H127.707L127.17 50H125.457L128.368 42.1797H129.861L132.788 50H131.075L130.532 48.3887ZM128.142 47.0835H130.097L129.114 44.1562L128.142 47.0835ZM138.761 43.4849H136.365V50H134.754V43.4849H132.391V42.1797H138.761V43.4849ZM145.657 43.4849H143.262V50H141.65V43.4849H139.287V42.1797H145.657V43.4849ZM148.192 47.2446V50H146.581V42.1797H149.632C150.219 42.1797 150.735 42.2871 151.179 42.502C151.626 42.7168 151.97 43.0229 152.21 43.4204C152.45 43.8143 152.57 44.2637 152.57 44.7686C152.57 45.5348 152.307 46.14 151.78 46.584C151.257 47.0244 150.532 47.2446 149.605 47.2446H148.192ZM148.192 45.9395H149.632C150.058 45.9395 150.382 45.8392 150.604 45.6387C150.83 45.4382 150.942 45.1517 150.942 44.7793C150.942 44.3962 150.83 44.0864 150.604 43.8501C150.378 43.6138 150.067 43.492 149.669 43.4849H148.192V45.9395ZM157.141 48.3887H154.315L153.778 50H152.065L154.976 42.1797H156.469L159.396 50H157.683L157.141 48.3887ZM154.75 47.0835H156.706L155.723 44.1562L154.75 47.0835ZM162.678 46.8042H161.749V50H160.138V42.1797H161.749V45.311H162.485L164.397 42.1797H166.363L163.951 45.8804L166.615 50H164.692L162.678 46.8042ZM167.168 42.1797H168.78V48.7056H171.911V42.1797H173.528V48.7056H174.597L174.489 51.8853H172.985V50H167.168V42.1797ZM180.274 42.1797H181.891V50H180.274V44.8062L177.143 50H175.531V42.1797H177.143V47.3843L180.274 42.1797ZM189.711 46.2671C189.711 47.0369 189.575 47.7119 189.303 48.292C189.031 48.8721 188.64 49.3197 188.132 49.6348C187.627 49.9499 187.047 50.1074 186.392 50.1074C185.743 50.1074 185.165 49.9517 184.657 49.6401C184.148 49.3286 183.754 48.8846 183.475 48.3081C183.196 47.728 183.054 47.062 183.051 46.3101V45.9233C183.051 45.1535 183.189 44.4767 183.464 43.8931C183.744 43.3058 184.136 42.8564 184.641 42.5449C185.149 42.2298 185.729 42.0723 186.381 42.0723C187.033 42.0723 187.611 42.2298 188.116 42.5449C188.624 42.8564 189.016 43.3058 189.292 43.8931C189.571 44.4767 189.711 45.1517 189.711 45.918V46.2671ZM188.078 45.9126C188.078 45.0926 187.931 44.4696 187.638 44.0435C187.344 43.6174 186.925 43.4043 186.381 43.4043C185.84 43.4043 185.423 43.6156 185.129 44.0381C184.836 44.457 184.687 45.0729 184.684 45.8857V46.2671C184.684 47.0656 184.83 47.6851 185.124 48.1255C185.418 48.5659 185.84 48.7861 186.392 48.7861C186.932 48.7861 187.348 48.5749 187.638 48.1523C187.928 47.7262 188.075 47.1068 188.078 46.2939V45.9126ZM197.247 50H195.635V46.6484H192.493V50H190.882V42.1797H192.493V45.3486H195.635V42.1797H197.247V50ZM205.083 46.2671C205.083 47.0369 204.947 47.7119 204.675 48.292C204.403 48.8721 204.012 49.3197 203.504 49.6348C202.999 49.9499 202.419 50.1074 201.764 50.1074C201.116 50.1074 200.537 49.9517 200.029 49.6401C199.52 49.3286 199.126 48.8846 198.847 48.3081C198.568 47.728 198.426 47.062 198.423 46.3101V45.9233C198.423 45.1535 198.561 44.4767 198.836 43.8931C199.116 43.3058 199.508 42.8564 200.013 42.5449C200.521 42.2298 201.101 42.0723 201.753 42.0723C202.405 42.0723 202.983 42.2298 203.488 42.5449C203.996 42.8564 204.388 43.3058 204.664 43.8931C204.943 44.4767 205.083 45.1517 205.083 45.918V46.2671ZM203.45 45.9126C203.45 45.0926 203.303 44.4696 203.01 44.0435C202.716 43.6174 202.297 43.4043 201.753 43.4043C201.212 43.4043 200.795 43.6156 200.501 44.0381C200.208 44.457 200.059 45.0729 200.056 45.8857V46.2671C200.056 47.0656 200.202 47.6851 200.496 48.1255C200.79 48.5659 201.212 48.7861 201.764 48.7861C202.304 48.7861 202.72 48.5749 203.01 48.1523C203.3 47.7262 203.447 47.1068 203.45 46.2939V45.9126ZM206.254 50V42.1797H208.993C209.942 42.1797 210.662 42.3623 211.152 42.7275C211.643 43.0892 211.888 43.6209 211.888 44.3228C211.888 44.7059 211.79 45.0443 211.593 45.3379C211.396 45.6279 211.122 45.841 210.771 45.9771C211.172 46.0773 211.487 46.2796 211.716 46.584C211.949 46.8883 212.065 47.2607 212.065 47.7012C212.065 48.4531 211.826 49.0225 211.346 49.4092C210.866 49.7959 210.182 49.9928 209.294 50H206.254ZM207.865 46.5947V48.7056H209.246C209.625 48.7056 209.921 48.616 210.132 48.437C210.347 48.2544 210.454 48.0037 210.454 47.6851C210.454 46.9689 210.083 46.6055 209.342 46.5947H207.865ZM207.865 45.4561H209.058C209.87 45.4417 210.277 45.1177 210.277 44.4839C210.277 44.1294 210.173 43.8752 209.965 43.7212C209.761 43.5636 209.437 43.4849 208.993 43.4849H207.865V45.4561Z" fill="white"/>
<path d="M36.7326 15.0293C36.8249 15.0293 36.9187 15.013 37.0076 14.9785L39.5187 14.0041C39.8399 13.8794 39.977 13.565 39.8249 13.3018C39.6729 13.0386 39.2891 12.9262 38.968 13.0509L36.4569 14.0253C36.1357 14.15 35.9986 14.4644 36.1507 14.7276C36.2606 14.9178 36.4916 15.0293 36.7326 15.0293Z" fill="white" stroke="white" stroke-width="0.4"/>
<path d="M39.5191 21.3751L37.7532 20.6898C37.4322 20.5653 37.0484 20.6776 36.8963 20.9408C36.7442 21.204 36.8813 21.5184 37.2025 21.6431L38.9684 22.3283C39.0573 22.3628 39.151 22.3791 39.2433 22.3791C39.4843 22.3791 39.7153 22.2676 39.8253 22.0773C39.9774 21.8141 39.8402 21.4997 39.5191 21.3751Z" fill="white" stroke="white" stroke-width="0.4"/>
<path d="M35.3549 19.7593L31.8688 18.4066V16.9725L33.8548 16.2017C34.1761 16.0771 34.3131 15.7627 34.1611 15.4994C34.009 15.2362 33.6252 15.1238 33.3041 15.2485L31.3117 16.0217C31.112 15.9119 30.8722 15.8477 30.6143 15.8477H20.2312C17.3467 15.8477 15 17.7708 15 20.1347V20.8448C15 21.0393 15.1306 21.2179 15.3398 21.3097C15.4349 21.3514 15.5393 21.3721 15.6434 21.3721C15.7683 21.3721 15.8926 21.3424 16.0003 21.2836C16.7498 20.8744 17.6219 20.6581 18.5224 20.6581H18.6722V22.2856C17.716 24.2815 17.125 26.3765 16.9171 28.5146C16.889 28.8049 16.4789 33.2783 16.8332 33.3015C16.8507 33.3026 17.5422 29.0839 17.5593 29.0839C17.8915 29.0839 18.1733 28.8745 18.2001 28.5984C18.3901 26.6439 18.9163 24.7273 19.764 22.8959H24.63V24.2676C24.63 26.0358 25.9999 27.6123 28.039 28.1906C29.56 28.6219 30.5819 29.7979 30.5819 31.1169V37.2192C30.5819 38.1709 29.637 38.9453 28.4757 38.9453H20.2264C19.065 38.9453 18.1202 38.1709 18.1202 37.2192V33.3015C18.1202 33.0102 18.4532 24.8893 17.7298 29.065C17.3745 29.065 16.8332 33.0102 16.8332 33.3015V37.2192C16.8332 38.7525 18.3554 40 20.2264 40H28.4756C30.3466 40 31.8688 38.7525 31.8688 37.2192V31.1168C31.8688 29.3486 30.4988 27.7721 28.4598 27.1938C26.9389 26.7625 25.9169 25.5865 25.9169 24.2675V22.5929C26.773 23.3854 27.9825 23.9152 29.3454 24.0164C29.3649 24.0178 29.3843 24.0185 29.4036 24.0185C29.6526 24.0185 29.8818 23.9001 29.9876 23.7122C30.1016 23.5097 30.048 23.2703 29.8535 23.1143C29.0927 22.5041 28.6738 21.6878 28.6738 20.816V19.5314H30.6141C30.872 19.5314 31.1119 19.4671 31.3115 19.3574L34.804 20.7126C34.893 20.7471 34.9867 20.7634 35.079 20.7634C35.32 20.7634 35.5511 20.6519 35.661 20.4616C35.8132 20.1984 35.6761 19.884 35.3549 19.7593ZM16.2923 19.9658C16.3997 18.2616 18.1253 16.9023 20.2312 16.9023H27.7652V18.4766H26.8429C26.6869 18.4766 26.5362 18.5231 26.4188 18.6073L25.0314 19.6034H18.5225C17.7508 19.6034 16.9954 19.7272 16.2923 19.9658ZM24.63 20.658V21.8411H19.9593V20.658H24.63ZM25.9601 20.3388L27.0849 19.5313H27.3868V20.816C27.3868 21.4177 27.5371 21.9995 27.8232 22.5333C26.8614 22.0673 26.1659 21.274 25.9601 20.3388ZM30.5818 18.4766H29.0523V16.9024H30.5818V18.4766Z" fill="white"/>
<path d="M16.8332 33.3015C16.4789 33.2783 16.889 28.8049 16.9171 28.5146C17.125 26.3765 17.716 24.2815 18.6722 22.2856V20.6581H18.5224C17.6219 20.6581 16.7498 20.8744 16.0003 21.2836C15.8926 21.3424 15.7683 21.3721 15.6434 21.3721C15.5393 21.3721 15.4349 21.3514 15.3398 21.3097C15.1306 21.2179 15 21.0393 15 20.8448V20.1347C15 17.7708 17.3467 15.8477 20.2312 15.8477H30.6143C30.8722 15.8477 31.112 15.9119 31.3117 16.0217L33.3041 15.2485C33.6252 15.1238 34.009 15.2362 34.1611 15.4994C34.3131 15.7627 34.1761 16.0771 33.8548 16.2017L31.8688 16.9725V18.4066L35.3549 19.7593C35.6761 19.884 35.8132 20.1984 35.661 20.4616C35.5511 20.6519 35.32 20.7634 35.079 20.7634C34.9867 20.7634 34.893 20.7471 34.804 20.7126L31.3115 19.3574C31.1119 19.4671 30.872 19.5314 30.6141 19.5314H28.6738V20.816C28.6738 21.6878 29.0927 22.5041 29.8535 23.1143C30.048 23.2703 30.1016 23.5097 29.9876 23.7122C29.8818 23.9001 29.6526 24.0185 29.4036 24.0185C29.3843 24.0185 29.3649 24.0178 29.3454 24.0164C27.9825 23.9152 26.773 23.3854 25.9169 22.5929V24.2675C25.9169 25.5865 26.9389 26.7625 28.4598 27.1938C30.4988 27.7721 31.8688 29.3486 31.8688 31.1168V37.2192C31.8688 38.7525 30.3466 40 28.4756 40H20.2264C18.3554 40 16.8332 38.7525 16.8332 37.2192V33.3015ZM16.8332 33.3015C16.8507 33.3026 17.5422 29.0839 17.5593 29.0839C17.8915 29.0839 18.1733 28.8745 18.2001 28.5984C18.3901 26.6439 18.9163 24.7273 19.764 22.8959H24.63V24.2676C24.63 26.0358 25.9999 27.6123 28.039 28.1906C29.56 28.6219 30.5819 29.7979 30.5819 31.1169V37.2192C30.5819 38.1709 29.637 38.9453 28.4757 38.9453H20.2264C19.065 38.9453 18.1202 38.1709 18.1202 37.2192V33.3015C18.1202 33.0102 18.4532 24.8893 17.7298 29.065C17.3745 29.065 16.8332 33.0102 16.8332 33.3015ZM16.2923 19.9658C16.3997 18.2616 18.1253 16.9023 20.2312 16.9023H27.7652V18.4766H26.8429C26.6869 18.4766 26.5362 18.5231 26.4188 18.6073L25.0314 19.6034H18.5225C17.7508 19.6034 16.9954 19.7272 16.2923 19.9658ZM24.63 20.658V21.8411H19.9593V20.658H24.63ZM25.9601 20.3388L27.0849 19.5313H27.3868V20.816C27.3868 21.4177 27.5371 21.9995 27.8232 22.5333C26.8614 22.0673 26.1659 21.274 25.9601 20.3388ZM30.5818 18.4766H29.0523V16.9024H30.5818V18.4766Z" stroke="white" stroke-width="0.4"/>
<path d="M35.0793 18.2168H37.4773C37.8326 18.2168 38.1208 17.9807 38.1208 17.6895C38.1208 17.3982 37.8326 17.1621 37.4773 17.1621H35.0793C34.7239 17.1621 34.4358 17.3982 34.4358 17.6895C34.4358 17.9807 34.7239 18.2168 35.0793 18.2168Z" fill="white" stroke="white" stroke-width="0.4"/>
<path d="M19.5742 31.3818C19.5742 30.8296 20.0219 30.3818 20.5742 30.3818H27.7226C28.2749 30.3818 28.7226 30.8296 28.7226 31.3818V36.7005C28.7226 37.2528 28.2749 37.7005 27.7226 37.7005H20.5742C20.0219 37.7005 19.5742 37.2528 19.5742 36.7005V31.3818Z" fill="white"/>
<line x1="22.8161" y1="22.0986" x2="23.731" y2="31.2469" stroke="white"/>
</svg>
