<?xml version="1.0" encoding="utf-8"?>
<!-- Generator: Adobe Illustrator 22.1.0, SVG Export Plug-In . SVG Version: 6.00 Build 0)  -->
<svg version="1.1" id="Слой_1" xmlns="http://www.w3.org/2000/svg" xmlns:xlink="http://www.w3.org/1999/xlink" x="0px" y="0px"
	 width="317px" height="54px" viewBox="0 0 317 54" style="enable-background:new 0 0 317 54;" xml:space="preserve">
<style type="text/css">
	.st0{fill:#00AEA6;}
	.st1{fill:#FFFFFF;stroke:#00955D;stroke-width:3;}
	.st2{fill:#00955D;}
	.st3{fill:#FFFFFF;}
	.st4{fill:#FFFFFF;stroke:#FFFFFF;stroke-width:0.4;}
	.st5{fill:none;stroke:#FFFFFF;stroke-width:0.4;}
	.st6{fill:none;stroke:#FFFFFF;}
</style>
<path class="st0" d="M39,7h270c4.4,0,8,3.6,8,8v25c0,4.4-3.6,8-8,8H39c-4.4,0-8-3.6-8-8V15C31,10.6,34.6,7,39,7z"/>
<circle class="st1" cx="27" cy="27" r="25.5"/>
<rect x="99" y="39" class="st2" width="140" height="15"/>
<path class="st0" d="M48,27c0,11.6-9.4,21-21,21S6,38.6,6,27S15.4,6,27,6S48,15.4,48,27z"/>
<path class="st3" d="M94,39.1H90V34H77.6v5.1h-4l-0.2-8.5h1.6c0.8-0.7,1.5-1.7,1.9-3.1c0.5-1.4,0.8-3,0.9-5l0.6-9.1h13.5v17.2h2.4
	L94,39.1z M79.8,30.6h7.9V16.8h-5.2l-0.4,5.4C81.8,25.9,81,28.7,79.8,30.6z M108.9,25.1h-8.2v5.5h9.6V34H96.5V13.4h13.8v3.4h-9.5
	v4.9h8.2V25.1z M123,19.1c0-0.8-0.3-1.4-0.9-1.8c-0.6-0.5-1.4-0.7-2.4-0.7c-0.9,0-1.7,0.2-2.3,0.7c-0.6,0.4-0.9,1-0.9,1.7h-4.2
	c0-1.1,0.3-2.1,0.9-3c0.6-0.9,1.5-1.6,2.7-2.1c1.2-0.5,2.4-0.8,3.8-0.8c2.4,0,4.2,0.5,5.6,1.5c1.3,1,2,2.5,2,4.3
	c0,0.9-0.3,1.8-0.8,2.5c-0.5,0.8-1.3,1.4-2.4,1.9c1.1,0.4,2,1,2.6,1.8c0.6,0.8,0.9,1.8,0.9,3c0,1.9-0.7,3.3-2.2,4.4
	c-1.4,1.1-3.4,1.6-5.8,1.6c-1.5,0-2.9-0.3-4-0.8c-1.2-0.5-2.1-1.2-2.7-2.1c-0.6-0.9-0.9-1.9-0.9-3.1h4.3c0,0.7,0.3,1.4,1,1.9
	c0.6,0.5,1.5,0.7,2.5,0.7c1.1,0,2-0.3,2.7-0.8c0.7-0.5,1-1.2,1-1.9c0-1.1-0.3-1.8-0.9-2.3c-0.6-0.5-1.4-0.7-2.6-0.7h-2.5v-3.3h2.6
	C122,21.8,123,20.9,123,19.1z M143.1,13.4h4.3V34h-4.3V20.3L134.9,34h-4.2V13.4h4.2v13.7L143.1,13.4z M167.8,34h-4.2v-8.8h-8.3V34
	h-4.2V13.4h4.2v8.4h8.3v-8.4h4.2V34z M183.7,15.2h0.3c1.6,0,3.1,0.4,4.4,1.1c1.3,0.7,2.3,1.7,3.1,3c0.7,1.3,1.1,2.8,1.1,4.5
	c0,2.5-0.8,4.5-2.4,6.1c-1.6,1.6-3.7,2.4-6.4,2.4v2.6h-4.1v-2.6h-0.3c-1.6,0-3.1-0.3-4.4-1c-1.3-0.7-2.3-1.7-3.1-3
	c-0.7-1.3-1.1-2.7-1.1-4.4c0-1.7,0.4-3.1,1.1-4.4c0.7-1.3,1.7-2.3,3-3c1.3-0.7,2.7-1.1,4.3-1.1h0.4v-2.7h4.1V15.2z M179.3,18.7
	c-1.4,0-2.5,0.4-3.3,1.3c-0.8,0.9-1.2,2.1-1.2,3.8c0,1.5,0.4,2.7,1.2,3.6c0.8,0.9,1.9,1.3,3.4,1.3h0.2v-9.9H179.3z M183.7,18.7v9.9
	h0.3c1.4,0,2.5-0.4,3.3-1.3c0.8-0.9,1.2-2.1,1.2-3.6c0-1.6-0.4-2.8-1.2-3.7c-0.8-0.9-1.9-1.3-3.4-1.3H183.7z M207.6,25.1h-8.2v5.5
	h9.6V34h-13.8V13.4H209v3.4h-9.5v4.9h8.2V25.1z M218.3,25.6h-2.4V34h-4.2V13.4h4.2v8.3h1.9l5-8.3h5.2l-6.4,9.8l7,10.9h-5.1
	L218.3,25.6z M230.1,13.4h4.2v17.2h8.3V13.4h4.3v17.2h2.8l-0.3,8.4h-4v-5h-15.3V13.4z M264.7,13.4h4.3V34h-4.3V20.3L256.4,34h-4.2
	V13.4h4.2v13.7L264.7,13.4z M282.1,34v-7.4h-3.5L275,34h-4.6l4.4-8.8c-2.1-1.2-3.2-3-3.2-5.5c0-2,0.7-3.6,2-4.7
	c1.3-1.1,3.2-1.7,5.5-1.7h7.3V34H282.1z M275.8,20.1c0,1.2,0.3,2,0.8,2.5c0.6,0.5,1.4,0.8,2.5,0.8h2.9v-6.5h-2.9
	C277,16.8,275.8,17.9,275.8,20.1z"/>
<path class="st4" d="M36.7,15c0.1,0,0.2,0,0.3-0.1l2.5-1c0.3-0.1,0.5-0.4,0.3-0.7c-0.2-0.3-0.5-0.4-0.9-0.3l-2.5,1
	c-0.3,0.1-0.5,0.4-0.3,0.7C36.3,14.9,36.5,15,36.7,15z"/>
<path class="st4" d="M39.5,21.4l-1.8-0.7c-0.3-0.1-0.7,0-0.9,0.3c-0.2,0.3,0,0.6,0.3,0.7l1.8,0.7c0.1,0,0.2,0.1,0.3,0.1
	c0.2,0,0.5-0.1,0.6-0.3C40,21.8,39.8,21.5,39.5,21.4z"/>
<path class="st3" d="M35.4,19.8l-3.5-1.4V17l2-0.8c0.3-0.1,0.5-0.4,0.3-0.7c-0.2-0.3-0.5-0.4-0.9-0.3l-2,0.8
	c-0.2-0.1-0.4-0.2-0.7-0.2H20.2c-2.9,0-5.2,1.9-5.2,4.3v0.7c0,0.2,0.1,0.4,0.3,0.5c0.1,0,0.2,0.1,0.3,0.1c0.1,0,0.2,0,0.4-0.1
	c0.7-0.4,1.6-0.6,2.5-0.6h0.1v1.6c-1,2-1.5,4.1-1.8,6.2c0,0.3-0.4,4.8-0.1,4.8c0,0,0.7-4.2,0.7-4.2c0.3,0,0.6-0.2,0.6-0.5
	c0.2-2,0.7-3.9,1.6-5.7h4.9v1.4c0,1.8,1.4,3.3,3.4,3.9c1.5,0.4,2.5,1.6,2.5,2.9v6.1c0,1-0.9,1.7-2.1,1.7h-8.2
	c-1.2,0-2.1-0.8-2.1-1.7v-3.9c0-0.3,0.3-8.4-0.4-4.2c-0.4,0-0.9,3.9-0.9,4.2v3.9c0,1.5,1.5,2.8,3.4,2.8h8.2c1.9,0,3.4-1.2,3.4-2.8
	v-6.1c0-1.8-1.4-3.3-3.4-3.9c-1.5-0.4-2.5-1.6-2.5-2.9v-1.7c0.9,0.8,2.1,1.3,3.4,1.4c0,0,0,0,0.1,0c0.2,0,0.5-0.1,0.6-0.3
	c0.1-0.2,0.1-0.4-0.1-0.6c-0.8-0.6-1.2-1.4-1.2-2.3v-1.3h1.9c0.3,0,0.5-0.1,0.7-0.2l3.5,1.4c0.1,0,0.2,0.1,0.3,0.1
	c0.2,0,0.5-0.1,0.6-0.3C35.8,20.2,35.7,19.9,35.4,19.8z M16.3,20c0.1-1.7,1.8-3.1,3.9-3.1h7.5v1.6h-0.9c-0.2,0-0.3,0-0.4,0.1l-1.4,1
	h-6.5C17.8,19.6,17,19.7,16.3,20z M24.6,20.7v1.2H20v-1.2H24.6z M26,20.3l1.1-0.8h0.3v1.3c0,0.6,0.2,1.2,0.4,1.7
	C26.9,22.1,26.2,21.3,26,20.3z M30.6,18.5h-1.5v-1.6h1.5V18.5z"/>
<path class="st5" d="M16.8,33.3c-0.4,0,0.1-4.5,0.1-4.8c0.2-2.1,0.8-4.2,1.8-6.2v-1.6h-0.1c-0.9,0-1.8,0.2-2.5,0.6
	c-0.1,0.1-0.2,0.1-0.4,0.1c-0.1,0-0.2,0-0.3-0.1C15.1,21.2,15,21,15,20.8v-0.7c0-2.4,2.3-4.3,5.2-4.3h10.4c0.3,0,0.5,0.1,0.7,0.2
	l2-0.8c0.3-0.1,0.7,0,0.9,0.3c0.2,0.3,0,0.6-0.3,0.7l-2,0.8v1.4l3.5,1.4c0.3,0.1,0.5,0.4,0.3,0.7c-0.1,0.2-0.3,0.3-0.6,0.3
	c-0.1,0-0.2,0-0.3-0.1l-3.5-1.4c-0.2,0.1-0.4,0.2-0.7,0.2h-1.9v1.3c0,0.9,0.4,1.7,1.2,2.3c0.2,0.2,0.2,0.4,0.1,0.6
	c-0.1,0.2-0.3,0.3-0.6,0.3c0,0,0,0-0.1,0c-1.4-0.1-2.6-0.6-3.4-1.4v1.7c0,1.3,1,2.5,2.5,2.9c2,0.6,3.4,2.2,3.4,3.9v6.1
	c0,1.5-1.5,2.8-3.4,2.8h-8.2c-1.9,0-3.4-1.2-3.4-2.8V33.3z M16.8,33.3c0,0,0.7-4.2,0.7-4.2c0.3,0,0.6-0.2,0.6-0.5
	c0.2-2,0.7-3.9,1.6-5.7h4.9v1.4c0,1.8,1.4,3.3,3.4,3.9c1.5,0.4,2.5,1.6,2.5,2.9v6.1c0,1-0.9,1.7-2.1,1.7h-8.2
	c-1.2,0-2.1-0.8-2.1-1.7v-3.9c0-0.3,0.3-8.4-0.4-4.2C17.4,29.1,16.8,33,16.8,33.3z M16.3,20c0.1-1.7,1.8-3.1,3.9-3.1h7.5v1.6h-0.9
	c-0.2,0-0.3,0-0.4,0.1l-1.4,1h-6.5C17.8,19.6,17,19.7,16.3,20z M24.6,20.7v1.2H20v-1.2H24.6z M26,20.3l1.1-0.8h0.3v1.3
	c0,0.6,0.2,1.2,0.4,1.7C26.9,22.1,26.2,21.3,26,20.3z M30.6,18.5h-1.5v-1.6h1.5V18.5z"/>
<path class="st4" d="M35.1,18.2h2.4c0.4,0,0.6-0.2,0.6-0.5c0-0.3-0.3-0.5-0.6-0.5h-2.4c-0.4,0-0.6,0.2-0.6,0.5
	C34.4,18,34.7,18.2,35.1,18.2z"/>
<path class="st3" d="M19.6,31.4c0-0.6,0.4-1,1-1h7.1c0.6,0,1,0.4,1,1v5.3c0,0.6-0.4,1-1,1h-7.1c-0.6,0-1-0.4-1-1V31.4z"/>
<line class="st6" x1="22.8" y1="22.1" x2="23.7" y2="31.2"/>
<g>
	<path class="st3" d="M116.2,51.3v-3.4h-3.8v3.4h-1.7v-8h1.7v3.1h3.8v-3.1h1.7v8H116.2z"/>
	<path class="st3" d="M125.5,51.3l-0.5-1.4h-3.4l-0.5,1.4h-1.9l3.1-8h2.1l3.1,8H125.5z M123.3,45l-1.2,3.4h2.5L123.3,45z"/>
	<path class="st3" d="M139.3,51.3v-5.6l-2.3,5.6h-0.7l-2.3-5.6v5.6h-1.7v-8h2.4l1.9,4.8l1.9-4.8h2.4v8H139.3z"/>
	<path class="st3" d="M143.2,51.3v-8h5.7v1.5h-4v1.7h3.9V48h-3.9v1.8h4v1.5H143.2z"/>
	<path class="st3" d="M150.7,51.3v-8h3.7c1.7,0,2.7,1.2,2.7,2.6c0,1.4-1,2.6-2.7,2.6h-2v2.8H150.7z M155.4,45.9
		c0-0.7-0.5-1.1-1.2-1.1h-1.8v2.2h1.8C154.9,46.9,155.4,46.5,155.4,45.9z"/>
	<path class="st3" d="M158.4,47.3c0-2.4,1.8-4.1,4.2-4.1c2.4,0,4.2,1.7,4.2,4.1s-1.8,4.1-4.2,4.1C160.1,51.4,158.4,49.7,158.4,47.3z
		 M165,47.3c0-1.5-1-2.6-2.4-2.6s-2.4,1.1-2.4,2.6c0,1.5,0.9,2.6,2.4,2.6S165,48.8,165,47.3z"/>
	<path class="st3" d="M173.9,51.3v-6.5h-3.8v6.5h-1.7v-8h7.2v8H173.9z"/>
	<path class="st3" d="M177.8,51.3v-8h3.7c1.7,0,2.7,1.2,2.7,2.6c0,1.4-1,2.6-2.7,2.6h-2v2.8H177.8z M182.5,45.9
		c0-0.7-0.5-1.1-1.2-1.1h-1.8v2.2h1.8C182,46.9,182.5,46.5,182.5,45.9z"/>
	<path class="st3" d="M185.8,51.3v-8h1.7v5.2l3.7-5.2h1.8v8h-1.7v-5.4l-3.8,5.4H185.8z"/>
	<path class="st3" d="M194.7,51.3l1.8-3c-0.9-0.2-1.8-1-1.8-2.4c0-1.5,1-2.6,2.7-2.6h3.7v8h-1.7v-2.8h-1.2l-1.6,2.8H194.7z
		 M199.5,46.9v-2.2h-1.8c-0.7,0-1.2,0.4-1.2,1.1s0.5,1.1,1.2,1.1H199.5z"/>
	<path class="st3" d="M205.2,51.3v-6.5h-2.3v-1.5h6.4v1.5h-2.3v6.5H205.2z"/>
	<path class="st3" d="M210.9,51.3v-8h1.7v5.2l3.7-5.2h1.8v8h-1.7v-5.4l-3.8,5.4H210.9z"/>
	<path class="st3" d="M220.2,51.3v-8h1.7v5.2l3.7-5.2h1.8v8h-1.7v-5.4l-3.8,5.4H220.2z"/>
</g>
</svg>
