<svg width="28" height="32" fill="none" xmlns="http://www.w3.org/2000/svg"><path d="M21.333 28l-3.077-5.334L15.282 28l2.256 3.795h1.539l2.154-3.898.102.103z" fill="#67308F"/><path d="M21.23 27.898l-2.153 3.897h4.41L21.333 28l-.102-.102z" fill="#2A3C90"/><path d="M18.256 22.667l-2.769-5.026-3.077 5.23 2.872 5.13 2.974-5.334z" fill="#EB0D8C"/><path d="M8.205 17.641L0 31.795h5.949l8.205-14.154H8.205z" fill="#EC2227"/><path d="M21.333 4.308l-.718-1.128h-5.333l-4.718 4.307 7.18-.102 3.59-3.077z" fill="#FBB042"/><path d="M20.615 3.18L18.77 0l-3.487 3.18h5.333z" fill="#F15B2B"/><path d="M5.949 11.59l7.282-.103 4.513-4.102-7.18.102L5.95 11.59z" fill="#2DB674"/><path d="M8.205 16.718H28l-2.462-4.308H5.744l2.461 4.308z" fill="#EC2227"/><path d="M9.949 6.564L8.923 1.128l-4.718 4.41 1.026 5.437 4.718-4.41z" fill="#1C76BC"/></svg>