<?xml version="1.0" encoding="UTF-8"?>
<svg id="_Слой_1" data-name="Слой 1" xmlns="http://www.w3.org/2000/svg" width="227" height="166" viewBox="0 0 227 166">
  <defs>
    <style>
      .cls-1 {
        opacity: .3;
      }
    </style>
  </defs>
  <path class="cls-1" d="m120.96,36.09c2.3,1.11,1.11,3.61,2.93,4.13,2.5.71,4.51,1.41,6.04,2.1,6.21,2.78,5.12,12.59,4.58,17.99-.04.39-.36.69-.75.69h-39.26c-.62,0-1.13-.51-1.13-1.14,0-.02,0-.04,0-.06.57-11.3-2.31-16.53,11.27-19.6.35-.08.53-.3.53-.67-.03-2.3,1.13-3.64,3.49-4.02.26-.05.38-.2.35-.45-.01-.11-.05-.21-.1-.3-.07-.12-.16-.15-.28-.08-2.44,1.35-4.58.99-6.41-1.08-.24-.27-.53-.37-.88-.32-7.08,1-4.86-5.2-7.49-8.64-.19-.26-.31-.55-.34-.86-.35-3.27,1.05-5.29,4.18-6.04.3-.07.46-.26.49-.57,1.79-20.03,29.94-20.15,31.52-.08.03.37.22.61.58.71l1.66.46c.31.08.57.23.78.46,2.48,2.58,2.5,5.25.06,8-.19.21-.26.46-.2.74.74,3.6-2.31,6.68-5.91,5.86-.33-.07-.6.01-.82.26-1.16,1.34-2.68,1.91-4.57,1.72-.27-.03-.44.05-.53.23-.11.25-.04.44.21.56Zm-2.37-31.45c-9.12-2.69-17.72,2.97-18.34,12.59-.03.48.16.61.58.39l3.01-1.57c.3-.15.62-.24.96-.27,6.76-.43,11.58-3.63,14.47-9.61.27-.54.04-1.19-.5-1.46-.06-.03-.12-.05-.18-.07Zm8.07,12.72l.72.42c.38.22.55.11.52-.34-.4-4.6-2.39-8.29-5.98-11.08-.21-.17-.51-.13-.68.08-.02.02-.04.05-.05.08l-2.12,4.06c-.2.38-.05.85.33,1.05.04.02.09.04.13.05l4.7,1.44c.33.1.55.31.67.63.2.55.22,1.15.06,1.79-.09.33-.04.64.15.93.15.24.35.41.58.5.6.23.92.36.97.39Zm-3.69-1.23c.24-1.66-3.7-2.47-4.98-3.46-.31-.25-.62-.24-.91.03-1.64,1.47-3.47,2.63-5.5,3.49-1.15.49-1.1.72.15.69l10.6-.19c.37,0,.59-.19.64-.56Zm-17.87,5.25c-.93,4.12,9.73,5.6,7.77-2.11-.09-.33-.3-.5-.64-.51l-1.36-.05c-.35-.01-.48.15-.38.49l.43,1.46c.09.32.06.62-.11.9-1.23,2.15-4.67.53-3.17-2.1.27-.47.13-.71-.41-.71h-1.54c-.55,0-.79.27-.72.82l.15,1.12c.03.23.03.46-.02.69Zm10.17-2.17c-1.92,5.07,4.03,7.37,7.08,3.99.23-.25.36-.53.39-.86l.31-2.7c.06-.51-.17-.79-.68-.84l-1.57-.16c-.61-.06-.78.18-.5.73l.38.72c.15.29.18.58.1.89-.78,2.99-5.25,1.21-3.21-1.56.33-.45.21-.67-.34-.67h-1.3c-.33,0-.55.15-.66.46Zm-12.05,1.32c.1-.52.05-1-.15-1.43-.14-.31-.51-.45-.82-.31-.11.05-.21.13-.27.23-.74,1.11-.77,2.15-.09,3.1.29.41.63.45,1.02.12.33-.29.44-.65.32-1.09-.05-.21-.05-.41-.01-.62Zm21.79-1.02l-.09,2.45c-.02.57.22.71.72.44,1.28-.72,1.41-2.47.19-3.31-.53-.36-.8-.22-.82.42Zm-24.2,11.85c3.27-1.58,3.76,4.34,6.75,1.55.27-.25.26-.48-.03-.69-2.35-1.75-3.76-4.08-4.23-6.98-.06-.37-.27-.59-.63-.66-2.18-.47-3.33-1.86-3.44-4.15-.02-.39-.22-.61-.61-.66-3.87-.55-4.53,4.21-1.14,5.77.33.16.48.42.45.79-.04.4-.19.77-.45,1.1-.19.26-.28.55-.26.87.11,1.71.96,2.76,2.56,3.16.35.09.7.06,1.03-.1Zm25.08-.48c2.82,1.85,6.08-.94,4.24-3.99-.19-.31-.18-.6.03-.89.62-.86,1.67-1.08,2.16-1.87,1.21-1.95-.44-4.86-2.81-4.33-.4.09-.63.33-.68.74-.3,2.21-1.5,3.57-3.6,4.09-.29.07-.45.25-.5.54-.45,2.87-1.82,5.17-4.11,6.9-.27.21-.35.47-.24.79.77,2.32,3.87-.48,4.64-1.78.22-.37.51-.43.87-.2Zm-20.23-4.13c3.41,7.93,12.68,7.39,16.72.07.41-.74.21-.96-.58-.66-2.68,1.02-5.12.68-7.32-1.01-.32-.24-.65-.25-.98-.04l-1.79,1.17c-.37.24-.36.46.03.65,1.48.74,2.97.77,4.46.09.31-.15.55-.07.7.24,1.3,2.6-6.49,3.43-5.89-.05.06-.33-.08-.5-.41-.53l-4.65-.34c-.32-.02-.42.12-.29.41Zm11.29,8.22c0-.39-.3-.71-.69-.71l-4.5-.09c-.39,0-.71.3-.71.69h0s0,.1,0,.1c0,.39.3.71.69.71l4.5.09c.39,0,.71-.3.71-.69h0s0-.1,0-.1Zm3.82,4.37c0-1.03-.83-1.86-1.86-1.86h-9.8c-1.03,0-1.86.83-1.86,1.86h0v.26c0,1.03.83,1.86,1.86,1.86h9.8c1.03,0,1.86-.83,1.86-1.86v-.26Zm11.96,19.29c.18-9.91,1.3-14.59-10.28-16.59-.32-.05-.6.03-.84.25-1.75,1.62-12.49,1.8-15.47-.1-.27-.18-.57-.23-.89-.15-11.59,2.88-10.05,6.28-9.99,16.54,0,.48.24.71.72.69l4.31-.16c.77-.03.95-.37.54-1.02-2.15-3.39-2.07-6.71.24-9.97.2-.28.46-.36.79-.24.85.32,1.04.93.57,1.82-1.9,3.54-1.16,5.57.93,9.16.15.26.37.39.67.39h19.75c.36,0,.65-.14.87-.43,2.19-2.85,2.48-6.03.87-9.56-.31-.69-.09-1.16.66-1.41.32-.11.58-.02.77.26,2.33,3.32,2.34,6.68.05,10.07-.22.31-.14.74.18.96.12.08.25.12.39.12l4.54-.02c.41,0,.61-.2.62-.61Z"/>
  <path class="cls-1" d="m29.44,67.64c0,3.63-2.95,6.58-6.58,6.58h0c-3.63,0-6.58-2.95-6.58-6.58h0c0-3.63,2.95-6.58,6.58-6.58s6.58,2.95,6.58,6.58Zm-2.37.02c0-2.34-1.89-4.23-4.23-4.23h0c-2.34,0-4.23,1.89-4.23,4.23h0c0,2.34,1.89,4.23,4.23,4.23s4.23-1.89,4.23-4.23Z"/>
  <path class="cls-1" d="m210.73,67.63c0,3.64-2.95,6.59-6.59,6.59h0c-3.64,0-6.59-2.95-6.59-6.59h0c0-3.64,2.95-6.59,6.59-6.59,3.64,0,6.59,2.95,6.59,6.59Zm-2.34.04c0-2.34-1.9-4.24-4.24-4.24h0c-2.34,0-4.24,1.9-4.24,4.24s1.9,4.24,4.24,4.24c2.34,0,4.24-1.9,4.24-4.24h0Z"/>
  <path class="cls-1" d="m177,100.9c0,5.58-4.52,10.1-10.1,10.1H60.1c-5.58,0-10.1-4.52-10.1-10.1v-24.8c0-5.58,4.52-10.1,10.1-10.1h106.8c5.58,0,10.1,4.52,10.1,10.1h0v24.8Zm-1.99-24.72c0-4.46-3.6-8.09-8.07-8.09h0l-106.82-.19c-4.46,0-8.09,3.6-8.09,8.07h0s-.04,24.86-.04,24.86c0,4.46,3.6,8.09,8.07,8.09h0l106.82.19c4.46,0,8.09-3.6,8.09-8.07h0s.04-24.86.04-24.86Z"/>
  <path class="cls-1" d="m16.96,95.84c.09-4.14-1.1-15.07,1.15-18.2,2.1-2.92,7.7-2.99,9.79.32,1.71,2.73,1.23,8.51.89,11.63-.05.43.27.82.71.87.11.01.23,0,.34-.04,2.99-1.04,4.99.16,6.03,3.12,1.98,5.65,3.32,10.24,4.03,13.77.52,2.57-3.02,4.29-5.07,3.31-2.27-1.07-4.34-10-5.12-12.51-.08-.25-.34-.4-.6-.32-.2.06-.34.25-.34.46-.03,3.07,1.63,13.76-3.96,12.45-2.92-.69-1.98-5.92-2.12-8.24-.02-.31-.19-.46-.5-.46h-5.46c-.47,0-.71.23-.72.7-.03,1.26-.02,2.94.02,5.04.09,4.16-6.01,4.35-6.02-1.22-.01-7.25-.02-14.5-.01-21.76.01-6,6.45-5.74,6.24-.14-.14,3.63-.23,7.27-.27,10.91,0,.32.15.48.47.47h.35c.11,0,.17-.05.17-.16Zm14.77.72c1.12,3.53,2.21,7.06,3.26,10.6.35,1.17,1.01,1.72,2.22,1.13.33-.16.49-.53.39-.88l-4.11-14.14c-.15-.51-.49-.77-1.02-.77h-4.79c-.51,0-.93-.4-.95-.91-.18-3.83-.27-7.31-.26-10.45.01-4.62-7.32-4.74-7.47,1.12-.11,4.13-.04,8.08.2,11.85.06,1.06.95,1.89,2.01,1.89h9.76c.39,0,.64.19.76.56Zm-18.05-13.16c0-.34-.28-.61-.61-.61h-.2c-.34,0-.61.28-.61.62h0s.17,24.42.17,24.42c0,.34.28.61.61.61h.2c.34,0,.61-.28.61-.62h0s-.17-24.42-.17-24.42Zm12.06,25.09c1.24-.22.76-8.36.67-9.65-.03-.39-.25-.59-.64-.59h-9.02c-.33,0-.5.17-.5.5v.5c0,.33.17.5.5.5h7.09c.61,0,1.11.49,1.12,1.1l.12,7.1c.01.44.23.62.66.54Z"/>
  <path class="cls-1" d="m198.14,98.51c-.02-.3-.28-.52-.58-.5-.23.02-.42.18-.48.4-.95,3.53-2.02,6.94-3.2,10.21-1.13,3.15-5.35,3.05-6.48.27-.89-2.2,1.85-9.51,2.61-11.96,1.32-4.28,1.81-7.9,7.03-6.51.45.12.92-.15,1.04-.6.02-.09.03-.19.03-.28-.33-4.77-1.25-15.52,7.13-14.07,3.33.58,4.94,2.76,4.83,6.53-.12,4.51-.13,9.03-.02,13.56.01.31.17.46.48.44h.27c.13,0,.19-.06.19-.18.03-3.95.03-7.9,0-11.85-.04-5.15,5.98-4.6,6,.41.03,7.33.02,14.67-.01,22.01-.02,2.47-.82,4.83-3.72,4.35-3.2-.53-2.18-5.93-2.36-8.19-.03-.37-.23-.55-.6-.55h-5.42c-.42,0-.63.21-.63.62v5.43c0,.94-.52,1.8-1.35,2.23-6.36,3.28-4.56-9.18-4.76-11.77Zm9.76-16.94c-.16-5.1-7.38-5.49-7.39.85,0,2.83,0,5.69,0,8.56,0,.84-.68,1.52-1.53,1.52h-4.56c-.41,0-.68.2-.8.59l-4.27,14.32c-.13.46.03.74.5.85l1.04.24c.43.1.7-.06.83-.47l3.52-11.36c.13-.39.49-.66.9-.66h9.87c1.05,0,1.91-.85,1.93-1.9.11-4.46.1-8.64-.03-12.54Zm6.65,1.76c0-.31-.25-.56-.56-.56h-.18c-.31,0-.56.25-.56.56h0v24.54c0,.31.25.56.56.56h.18c.31,0,.56-.25.56-.56v-24.54Zm-11.82,16.42h7.72c.37-.01.55-.19.55-.56v-.39c0-.37-.18-.55-.55-.55h-9.46c-.34,0-.51.17-.51.51l.09,9.05c0,.39.32.7.7.7.03,0,.06,0,.1,0,1.01-.14.62-6.97.75-8.19.04-.37.24-.56.61-.56Z"/>
  <path class="cls-1" d="m83.44,120.64c0,3.63-2.95,6.58-6.58,6.58h0c-3.63,0-6.58-2.95-6.58-6.58h0c0-3.63,2.95-6.58,6.58-6.58h0c3.63,0,6.58,2.95,6.58,6.58h0Zm-2.37.01c0-2.34-1.89-4.23-4.23-4.23h0c-2.34,0-4.23,1.89-4.23,4.23s1.89,4.23,4.23,4.23,4.23-1.89,4.23-4.23Z"/>
  <path class="cls-1" d="m153.73,122.63c0,3.63-2.95,6.58-6.58,6.58h0c-3.63,0-6.58-2.95-6.58-6.58s2.95-6.58,6.58-6.58c3.63,0,6.58,2.95,6.58,6.58Zm-2.33.03c0-2.34-1.9-4.24-4.24-4.24-2.34,0-4.24,1.9-4.24,4.24h0c0,2.34,1.9,4.24,4.24,4.24h0c2.34,0,4.24-1.9,4.24-4.24Z"/>
  <path class="cls-1" d="m70.97,148.83c.08-3.77.05-8.52-.08-14.27-.13-5.53,6.56-8.27,10.29-4.33,2.58,2.73,1.99,8.67,1.62,12.36-.05.43.27.82.7.87.11.01.23,0,.34-.04,2.99-1.04,4.99.16,6.03,3.12,1.98,5.65,3.32,10.24,4.03,13.77.52,2.57-3.02,4.29-5.07,3.31-2.27-1.07-4.34-10-5.12-12.51-.08-.25-.34-.4-.6-.32-.2.06-.34.25-.34.46-.03,3.07,1.63,13.76-3.96,12.45-2.92-.69-1.98-5.92-2.12-8.24-.02-.31-.19-.46-.5-.46h-5.45c-.45,0-.68.23-.67.68.01,1.55.02,3.06.01,4.55-.02,5.08-6.07,4.11-6.07.77,0-8.25-.01-16.5-.02-24.75,0-3.47,5.98-4.3,6.16.49.16,3.97.14,7.94-.05,11.89-.01.25.11.38.36.37h.34c.11,0,.17-.06.17-.17Zm10.78-3.33c-.55,0-1.01-.44-1.03-.99-.14-3.69-.23-6.98-.26-9.87-.06-5.17-6.91-5.31-7.25.02-.26,4.01-.28,8.01-.07,12.02.08,1.54,1.04,2.31,2.88,2.31,2.95,0,5.95,0,8.98.02.34,0,.57.16.68.48,1.23,3.63,2.34,7.3,3.33,11.01.26.97.91,1.27,1.94.9.49-.18.76-.7.62-1.2l-3.99-13.61c-.19-.65-.79-1.09-1.46-1.09h-4.37Zm-13.97-8.97c0-.4-.32-.72-.72-.72h-.04c-.4,0-.72.32-.72.72v24.16c0,.4.32.72.72.72h.04c.4,0,.72-.32.72-.72h0v-24.16Zm11.74,14.72h-8.77c-.33,0-.5.17-.5.5v.44c0,.37.19.56.56.56h7.02c.6,0,1.09.48,1.11,1.08l.19,7.36c0,.22.18.39.39.39.05,0,.09,0,.14-.03,1.41-.5.85-8.21.67-9.59-.06-.47-.33-.71-.81-.71Z"/>
  <path class="cls-1" d="m134.44,166h-1.5c-2.21-.73-3.19-2.31-2.59-4.68,1.06-4.19,2.27-8.34,3.64-12.47,1-3.03,2.75-4.46,5.95-3.44.47.16.98-.1,1.14-.58.04-.11.05-.23.04-.35-.25-3.49-.96-10.45,2.19-12.76,2.83-2.07,6.83-1.63,8.76,1.3,2.09,3.18.9,13.71.93,17.78,0,.32.15.4.43.25.09-.05.19-.09.32-.14.15-.06.23-.17.24-.33.03-3.87.03-7.74,0-11.61-.04-5.16,5.99-4.59,6,.41.01,7.13.01,14.25,0,21.38,0,3.03-.4,5.23-3.95,5.01-1.12-.07-2-.99-2.02-2.12l-.09-6.15c0-.44-.23-.65-.67-.64l-5.38.2c-.41.01-.61.23-.62.64-.05,2.72,1.08,7.76-2.79,8.03-4.73.33-3.21-9.43-3.24-12.26,0-.3-.25-.55-.56-.54-.24,0-.46.17-.52.4-.94,3.23-2.41,11.36-5.71,12.67Zm16.38-29.68c-.15-3.33-4.08-4.75-6.16-2.67-1.97,1.99-1.17,9.78-1.17,12.63,0,.67-.55,1.22-1.22,1.22h-4.85c-.41,0-.68.2-.8.59l-4.27,14.29c-.17.56.04.88.61.97l.97.15c.4.06.66-.11.79-.5l3.51-11.33c.13-.39.49-.66.9-.66h9.9c1.02,0,1.86-.83,1.89-1.85.13-4.45.09-8.73-.1-12.84Zm6.93,1.95c0-.4-.32-.72-.72-.72h-.04c-.4,0-.72.32-.72.72l-.04,24.48c0,.4.32.72.72.72h.04c.4,0,.72-.32.72-.72l.04-24.48Zm-12,16.48h7.7c.37,0,.55-.19.55-.56v-.37c0-.38-.19-.57-.56-.57h-9.32c-.41,0-.62.21-.62.63v9.02c0,.43.22.63.65.62,1.35-.04.86-6.87,1.01-8.24.04-.35.24-.53.59-.53Z"/>
</svg>