<?xml version="1.0" encoding="UTF-8"?>
<svg id="_Слой_1" data-name=" Слой 1" xmlns="http://www.w3.org/2000/svg" width="227" height="166" viewBox="0 0 227 166">
  <defs>
    <style>
      .cls-1 {
        fill: none;
      }

      .cls-1, .cls-2 {
        isolation: isolate;
        opacity: .3;
      }

      .cls-3 {
        opacity: .3;
      }

      .cls-4 {
        fill: #1f201e;
      }
    </style>
  </defs>
  <path class="cls-2" d="m121.84,36.09c2.3,1.11,1.11,3.61,2.93,4.13,2.5.71,4.51,1.41,6.04,2.1,6.21,2.78,5.12,12.59,4.58,17.99-.04.39-.36.69-.75.69h-39.26c-.62,0-1.13-.51-1.13-1.14v-.06c.57-11.3-2.31-16.53,11.27-19.6.35-.08.53-.3.53-.67-.03-2.3,1.13-3.64,3.49-4.02.26-.05.38-.2.35-.45-.01-.11-.05-.21-.1-.3-.07-.12-.16-.15-.28-.08-2.44,1.35-4.58.99-6.41-1.08-.24-.27-.53-.37-.88-.32-7.08,1-4.86-5.2-7.49-8.64-.19-.26-.31-.55-.34-.86-.35-3.27,1.05-5.29,4.18-6.04.3-.07.46-.26.49-.57,1.79-20.03,29.94-20.15,31.52-.08.03.37.22.61.58.71l1.66.46c.31.08.57.23.78.46,2.48,2.58,2.5,5.25.06,8-.19.21-.26.46-.2.74.74,3.6-2.31,6.68-5.91,5.86-.33-.07-.6,0-.82.26-1.16,1.34-2.68,1.91-4.57,1.72-.27-.03-.44.05-.53.23-.11.25-.04.44.21.56h0Zm-2.37-31.45c-9.12-2.69-17.72,2.97-18.34,12.59-.03.48.16.61.58.39l3.01-1.57c.3-.15.62-.24.96-.27,6.76-.43,11.58-3.63,14.47-9.61.27-.54.04-1.19-.5-1.46-.06-.03-.12-.05-.18-.07Zm8.07,12.72l.72.42c.38.22.55.11.52-.34-.4-4.6-2.39-8.29-5.98-11.08-.21-.17-.51-.13-.68.08-.02.02-.04.05-.05.08l-2.12,4.06c-.2.38-.05.85.33,1.05.04.02.09.04.13.05l4.7,1.44c.33.1.55.31.67.63.2.55.22,1.15.06,1.79-.09.33-.04.64.15.93.15.24.35.41.58.5.6.23.92.36.97.39h0Zm-3.69-1.23c.24-1.66-3.7-2.47-4.98-3.46-.31-.25-.62-.24-.91.03-1.64,1.47-3.47,2.63-5.5,3.49-1.15.49-1.1.72.15.69l10.6-.19c.37,0,.59-.19.64-.56Zm-17.87,5.25c-.93,4.12,9.73,5.6,7.77-2.11-.09-.33-.3-.5-.64-.51l-1.36-.05c-.35-.01-.48.15-.38.49l.43,1.46c.09.32.06.62-.11.9-1.23,2.15-4.67.53-3.17-2.1.27-.47.13-.71-.41-.71h-1.54c-.55,0-.79.27-.72.82l.15,1.12c.03.23.03.46-.02.69Zm10.17-2.17c-1.92,5.07,4.03,7.37,7.08,3.99.23-.25.36-.53.39-.86l.31-2.7c.06-.51-.17-.79-.68-.84l-1.57-.16c-.61-.06-.78.18-.5.73l.38.72c.15.29.18.58.1.89-.78,2.99-5.25,1.21-3.21-1.56.33-.45.21-.67-.34-.67h-1.3c-.33,0-.55.15-.66.46Zm-12.05,1.32c.1-.52.05-1-.15-1.43-.14-.31-.51-.45-.82-.31-.11.05-.21.13-.27.23-.74,1.11-.77,2.15-.09,3.1.29.41.63.45,1.02.12.33-.29.44-.65.32-1.09-.05-.21-.05-.41-.01-.62Zm21.79-1.02l-.09,2.45c-.02.57.22.71.72.44,1.28-.72,1.41-2.47.19-3.31-.53-.36-.8-.22-.82.42Zm-24.2,11.85c3.27-1.58,3.76,4.34,6.75,1.55.27-.25.26-.48-.03-.69-2.35-1.75-3.76-4.08-4.23-6.98-.06-.37-.27-.59-.63-.66-2.18-.47-3.33-1.86-3.44-4.15-.02-.39-.22-.61-.61-.66-3.87-.55-4.53,4.21-1.14,5.77.33.16.48.42.45.79-.04.4-.19.77-.45,1.1-.19.26-.28.55-.26.87.11,1.71.96,2.76,2.56,3.16.35.09.7.06,1.03-.1Zm25.08-.48c2.82,1.85,6.08-.94,4.24-3.99-.19-.31-.18-.6.03-.89.62-.86,1.67-1.08,2.16-1.87,1.21-1.95-.44-4.86-2.81-4.33-.4.09-.63.33-.68.74-.3,2.21-1.5,3.57-3.6,4.09-.29.07-.45.25-.5.54-.45,2.87-1.82,5.17-4.11,6.9-.27.21-.35.47-.24.79.77,2.32,3.87-.48,4.64-1.78.22-.37.51-.43.87-.2h0Zm-20.23-4.13c3.41,7.93,12.68,7.39,16.72.07.41-.74.21-.96-.58-.66-2.68,1.02-5.12.68-7.32-1.01-.32-.24-.65-.25-.98-.04l-1.79,1.17c-.37.24-.36.46.03.65,1.48.74,2.97.77,4.46.09.31-.15.55-.07.7.24,1.3,2.6-6.49,3.43-5.89-.05.06-.33-.08-.5-.41-.53l-4.65-.34c-.32-.02-.42.12-.29.41h0Zm11.29,8.22c0-.39-.3-.71-.69-.71l-4.5-.09c-.39,0-.71.3-.71.69h0v.1c0,.39.3.71.69.71l4.5.09c.39,0,.71-.3.71-.69h0v-.1Zm3.82,4.37c0-1.03-.83-1.86-1.86-1.86h-9.8c-1.03,0-1.86.83-1.86,1.86h0v.26c0,1.03.83,1.86,1.86,1.86h9.8c1.03,0,1.86-.83,1.86-1.86v-.26Zm11.96,19.29c.18-9.91,1.3-14.59-10.28-16.59-.32-.05-.6.03-.84.25-1.75,1.62-12.49,1.8-15.47-.1-.27-.18-.57-.23-.89-.15-11.59,2.88-10.05,6.28-9.99,16.54,0,.48.24.71.72.69l4.31-.16c.77-.03.95-.37.54-1.02-2.15-3.39-2.07-6.71.24-9.97.2-.28.46-.36.79-.24.85.32,1.04.93.57,1.82-1.9,3.54-1.16,5.57.93,9.16.15.26.37.39.67.39h19.75c.36,0,.65-.14.87-.43,2.19-2.85,2.48-6.03.87-9.56-.31-.69-.09-1.16.66-1.41.32-.11.58-.02.77.26,2.33,3.32,2.34,6.68.05,10.07-.22.31-.14.74.18.96.12.08.25.12.39.12l4.54-.02c.41,0,.61-.2.62-.61h0Z"/>
  <path class="cls-2" d="m177.88,100.9c0,5.58-4.52,10.1-10.1,10.1H60.98c-5.58,0-10.1-4.52-10.1-10.1v-24.8c0-5.58,4.52-10.1,10.1-10.1h106.8c5.58,0,10.1,4.52,10.1,10.1h0s0,24.8,0,24.8Zm-1.99-24.72c0-4.46-3.6-8.09-8.07-8.09h0l-106.82-.19c-4.46,0-8.09,3.6-8.09,8.07h0l-.04,24.86c0,4.46,3.6,8.09,8.07,8.09h0l106.82.19c4.46,0,8.09-3.6,8.09-8.07h0l.04-24.86Z"/>
  <path class="cls-3" d="m60.25,117.26c-2.48,0-4.5,2.29-4.5,5.12s2.02,5.12,4.5,5.12,4.5-2.29,4.5-5.12-2.02-5.12-4.5-5.12Zm-2.41,5.05c0-1.54,1.06-2.79,2.37-2.79s2.37,1.25,2.37,2.79-1.06,2.79-2.37,2.79-2.37-1.25-2.37-2.79Z"/>
  <path class="cls-3" d="m98.11,117.26c-2.48,0-4.5,2.29-4.5,5.12s2.02,5.12,4.5,5.12,4.5-2.29,4.5-5.12-2.02-5.12-4.5-5.12Zm2.33,5.04c0,1.53-1.06,2.77-2.35,2.77s-2.35-1.24-2.35-2.77,1.06-2.77,2.35-2.77,2.35,1.24,2.35,2.77Z"/>
  <path class="cls-3" d="m136.77,117.26c-2.48,0-4.5,2.29-4.5,5.12s2.02,5.12,4.5,5.12,4.5-2.29,4.5-5.12-2.02-5.12-4.5-5.12Zm-2.38,5.04c0-1.53,1.06-2.77,2.35-2.77s2.35,1.24,2.35,2.77-1.06,2.77-2.35,2.77-2.35-1.24-2.35-2.77Z"/>
  <path class="cls-3" d="m174.64,117.26c-2.48,0-4.5,2.29-4.5,5.12s2.02,5.12,4.5,5.12,4.5-2.29,4.5-5.12-2.02-5.12-4.5-5.12Zm2.34,5.05c0,1.54-1.06,2.79-2.37,2.79s-2.37-1.25-2.37-2.79,1.06-2.79,2.37-2.79,2.37,1.25,2.37,2.79Z"/>
  <path class="cls-3" d="m70.75,137.96c-.51-1.62-3.53-3.38-6.33-4.89-.33-.18-.61-.33-.83-.46-.17-.1-.3-.24-.41-.45-1.3-2.62-3.86-5.43-7.17-5.43-.72,0-1.44.14-2.14.42-.27.11-.58.22-.92.34-2.05.74-4.85,1.75-5.64,3.62-.94,2.22-1.87,4.53-2.86,7.06-.67,1.73-.61,3.39.17,4.53.54.79,1.35,1.24,2.23,1.24,1.37,0,2.52-1.06,3.09-2.83.33-1.03.71-2.05,1.15-3.05-.97,4.72-2.21,10.42-4.63,14.24-.18.28-.39.6-.61.94-1.33,2.03-3.16,4.81-3.09,6.85.06,1.91,1.86,3.72,3.7,3.72.78,0,1.46-.33,1.96-.95,2.48-3.07,5.07-7.34,7.71-12.66l1.62,1.8c.11.13.18.29.19.49.05.99.02,2.11-.02,3.3-.1,3.61-.2,7.34,1.83,8.84l.1.08h.13s3.03.08,3.03.08h.28s.1-.26.1-.26c1.42-3.75,1.99-7.74,1.71-11.85-.22-3.17-2.51-6.4-4.34-9-.31-.44-.61-.86-.88-1.26-.14-.2-.17-.4-.12-.66l.6-2.79s0-.03.02-.06c.02-.04.06-.06.08-.06.23.15.46.31.72.49,1.87,1.29,5,3.45,6.8,3.45.11,0,.21,0,.31-.02.81-.12,1.53-.62,2.02-1.41.62-.99.79-2.28.44-3.38Zm-11.71-.81l-.08.11h0c-1.93,2.75-1.85,5.14.26,8.25,1.16,1.73,2.26,3.49,3.25,5.22.12.2.17.41.17.65.01,2.86.02,5.98,0,9.52,0,1.48-.4,1.78-1.49,1.89h-.06s0,0,0,0c-.48,0-.86-.46-.86-1.02-.02-1.12.02-2.19.06-3.22.16-4.45.3-8.3-4.28-11.43-.15-.11-.31-.16-.47-.16-.17,0-.48.07-.68.51-2.13,4.88-4.81,9.43-7.96,13.52l-.04.04-.03.04c-.2.22-.47.35-.75.35-.29,0-.57-.14-.78-.39-1.16-1.4,1.15-4.8,2.53-6.83.36-.53.66-.98.87-1.33,2.09-3.59,3.08-8.11,4.03-12.49.26-1.18.5-2.29.76-3.39.26-1.07.14-2.01-.33-2.67-.37-.52-.95-.83-1.66-.89-.03,0-.07,0-.1,0-.41,0-.74.24-.91.65-.12.28-.28.72-.47,1.29-.65,1.83-2.16,6.13-3.37,6.13-.1,0-.19-.03-.29-.1-.4-.27-.55-.84-.35-1.34l3.19-8.08c.1-.23.24-.38.43-.47l6.06-2.61c.07-.03.13-.04.2-.04.07,0,.13.02.2.05l3.54,1.71c.21.1.35.26.44.5,1.19,3.16,3.77,4.59,6.27,5.97.7.39,1.42.79,2.09,1.22.15.09.23.24.25.44.15,1.21-.41,1.57-.84,1.74-.07.03-.13.04-.19.04-.08,0-.16-.03-.25-.08l-6.14-3.78c-.26-.16-.55-.24-.85-.24-.54,0-1.04.27-1.39.74Z"/>
  <path class="cls-3" d="m108.6,137.95c-.59-1.83-4.45-3.87-6.53-4.97-.23-.12-.44-.23-.61-.33-.18-.1-.31-.24-.4-.44-1.61-3.39-4.37-5.49-7.19-5.49-.77,0-1.54.16-2.29.47-.27.11-.6.23-.96.37-1.99.74-4.71,1.76-5.46,3.55-.95,2.27-1.89,4.58-2.86,7.07-.67,1.73-.61,3.38.17,4.53.54.79,1.35,1.24,2.24,1.24,1.37,0,2.52-1.06,3.08-2.82.33-1.06.72-2.07,1.16-3.06-.05.24-.11.49-.16.73-.98,4.47-2.08,9.53-4.2,13.06-.25.41-.55.88-.89,1.39-1.4,2.13-3.14,4.79-3.08,6.8.05,1.97,1.76,3.76,3.59,3.76.84,0,1.57-.38,2.13-1.1,2.92-3.8,5.49-7.99,7.63-12.45,0-.01.01-.03.02-.04,2.28,1.79,2.09,4.77,1.9,7.64-.19,2.8-.36,5.44,1.75,6.8l.09.06h.11s3.03.08,3.03.08h.28s.1-.26.1-.26c1.42-3.75,1.99-7.74,1.71-11.85-.22-3.17-2.51-6.4-4.34-9-.31-.44-.61-.86-.88-1.26-.14-.2-.17-.4-.12-.66l.6-2.78h0s.01-.06.01-.06c.02-.04.05-.07.07-.07.23.14.47.31.74.49,1.88,1.29,5.02,3.44,6.78,3.44.11,0,.22,0,.32-.02.82-.13,1.54-.65,2.03-1.46.6-.99.76-2.27.41-3.35Zm-23.82,3.63c-.32,0-.44-.14-.51-.25-.84-1.34,1.62-6.71,2.42-8.48.19-.41.33-.72.4-.9.08-.21.21-.34.39-.42l6.1-2.64c.07-.03.13-.04.2-.04.07,0,.14.02.21.05l3.65,1.8c.2.09.32.25.39.48.94,3.06,3.9,4.67,6.52,6.09.67.36,1.3.71,1.87,1.06.07.05.15.12.21.19.32.39.31,1.06-.04,1.44-.16.17-.39.26-.71.26-1.56,0-4.39-1.9-6.08-3.04-.49-.33-.91-.61-1.21-.79-.03-.02-.09-.05-.15-.08-.19-.08-.35-.11-.51-.11-.5,0-.95.29-1.2.76h-.03s-.09.29-.09.29l-1.3,4.33c-.14.45-.08.89.16,1.28l4.87,7.79c.12.19.18.4.18.63,0,2.95,0,6.16-.02,9.79,0,1.44-.57,1.71-1.61,1.71-.42,0-.76-.42-.78-.93-.03-2.22-.03-4.55,0-6.92.04-4.05-1.35-5.44-3.81-7.55-.04-.04-.09-.07-.15-.11-.19-.11-.37-.16-.55-.16-.44,0-.84.28-1.02.71-2.01,4.64-4.58,9.04-7.64,13.06-.26.34-.54.51-.86.51-.23,0-.5-.09-.8-.27-.06-.04-.12-.08-.19-.14-.58-.52-.67-1.49-.22-2.16,1.38-2.03,2.69-4.15,3.91-6.31,1.92-3.43,2.88-7.78,3.81-11.99.31-1.41.61-2.75.93-4.04.1-.38.1-.78-.02-1.17-.45-1.47-1.39-1.78-2.11-1.78-.09,0-.19,0-.28.02-.3.03-.7.18-.92.74l-2.56,6.64c-.15.4-.47.64-.83.64v.2s0,0,0,0v-.2Z"/>
  <path class="cls-3" d="m147.26,137.95c-.59-1.83-4.45-3.87-6.53-4.97-.23-.12-.44-.23-.61-.33-.18-.1-.31-.24-.4-.44-1.61-3.39-4.37-5.49-7.19-5.49-.77,0-1.54.16-2.29.47-.27.11-.6.23-.96.37-1.99.74-4.71,1.76-5.46,3.55-.95,2.27-1.89,4.58-2.86,7.07-.67,1.73-.61,3.38.17,4.53.54.79,1.35,1.24,2.24,1.24,1.37,0,2.52-1.06,3.08-2.82.34-1.06.72-2.07,1.16-3.07-.06.26-.12.53-.18.8-1.05,4.68-2.13,9.53-4.43,13.4-.2.34-.47.75-.78,1.23-1.5,2.29-3.77,5.76-2.74,7.94.72,1.51,1.65,2.27,2.77,2.27,3.45,0,7.46-7.41,10.18-12.98l.24-.48c2.23,1.89,2.04,4.84,1.86,7.69-.18,2.76-.34,5.36,1.75,6.73l.1.06h.11s3.03.08,3.03.08h.28s.1-.26.1-.26c1.42-3.75,1.99-7.74,1.71-11.85-.22-3.17-2.51-6.4-4.34-9-.31-.44-.61-.86-.88-1.26-.14-.2-.17-.4-.12-.66l.6-2.78h0s.01-.06.01-.06c.02-.04.05-.07.07-.07.23.14.47.31.74.49,1.88,1.29,5.02,3.44,6.78,3.44.11,0,.22,0,.32-.02.82-.13,1.54-.65,2.03-1.46.6-.99.76-2.27.41-3.35Zm-11.99-.72l-1.31,4.33c-.14.45-.08.89.16,1.28l4.87,7.79c.12.19.18.4.18.63,0,2.95,0,6.16-.02,9.79,0,1.44-.57,1.71-1.61,1.71-.42,0-.76-.42-.78-.93-.04-2.17-.04-4.43,0-6.92.04-4.05-1.35-5.44-3.81-7.55-.04-.04-.09-.07-.15-.11-.19-.11-.37-.16-.55-.16-.44,0-.84.28-1.02.71-2.01,4.64-4.58,9.04-7.64,13.06-.26.34-.54.51-.86.51-.23,0-.5-.09-.8-.27-.06-.04-.12-.08-.18-.14-.58-.52-.67-1.49-.22-2.16,1.38-2.03,2.69-4.15,3.91-6.31,1.92-3.43,2.88-7.78,3.81-11.99.31-1.41.61-2.75.93-4.04.1-.38.1-.78-.02-1.17-.45-1.47-1.39-1.78-2.11-1.78-.09,0-.19,0-.28.02-.3.03-.7.18-.92.74l-2.56,6.64c-.15.4-.47.64-.83.64v.2s0,0,0,0v-.2c-.33,0-.45-.14-.52-.25-.84-1.34,1.62-6.71,2.42-8.48.19-.41.33-.72.4-.9.08-.21.21-.34.39-.42l6.1-2.64c.07-.03.13-.04.2-.04.07,0,.14.02.21.05l3.65,1.8c.19.09.32.25.39.48.94,3.06,3.9,4.67,6.52,6.09.67.36,1.3.71,1.87,1.06.07.05.15.12.21.19.32.39.31,1.06-.04,1.44-.16.17-.39.26-.71.26-1.56,0-4.39-1.9-6.08-3.04-.49-.33-.91-.61-1.21-.79-.03-.02-.09-.05-.15-.08-.19-.08-.35-.11-.51-.11-.59,0-1.12.42-1.32,1.04Z"/>
  <path class="cls-3" d="m179.39,133.33c-.59-.32-1.1-.6-1.49-.85-.17-.11-.31-.27-.42-.48-1.63-3.25-4.34-5.27-7.07-5.27-.68,0-1.36.12-2.03.37-.17.06-.36.13-.57.21-2.72.97-5.68,2.16-6.33,3.89-.19.49-.46,1.13-.77,1.88-1.09,2.59-2.59,6.14-2.45,7.91.16,1.89,1.73,2.9,3.13,2.9.86,0,1.62-.36,2.14-1.01.62-.76,1.06-2.06,1.52-3.44.11-.33.23-.67.34-1-1.01,4.73-2.16,10.08-4.5,13.77-.17.27-.37.58-.59.91-1.36,2.07-3.22,4.9-3.17,6.96.06,1.96,1.74,3.68,3.6,3.68.84,0,1.58-.37,2.12-1.06,2.63-3.32,5.2-7.53,7.65-12.51l1.61,1.79c.12.14.18.29.2.5.05.99.02,2.11-.02,3.29-.1,3.61-.2,7.33,1.83,8.84l.1.08h.13s2.99.06,2.99.06h.28s.1-.25.1-.25c1.45-3.71,2.04-7.68,1.76-11.81-.22-3.17-2.5-6.4-4.33-9-.32-.45-.62-.88-.9-1.29-.14-.2-.17-.41-.12-.66l.6-2.79s0-.03.02-.06c.02-.04.06-.06.08-.06.24.16.49.33.77.53,1.73,1.23,4.63,3.29,6.82,3.29,1.11,0,1.96-.54,2.44-1.55,1.82-3.82-2.57-6.21-5.47-7.79Zm-3.98,29.44h0c-.43,0-.77-.42-.77-.93-.02-1.14.02-2.22.06-3.27.16-4.48.3-8.34-4.3-11.47-.16-.11-.32-.16-.47-.16-.18,0-.5.07-.69.53-2.09,4.9-4.76,9.45-7.93,13.51-.03.05-.06.07-.07.09-.2.21-.46.33-.74.33-.3,0-.58-.14-.8-.4-1.14-1.38,1.16-4.78,2.53-6.81.36-.53.67-.98.87-1.33,2.09-3.59,3.08-8.11,4.03-12.49.26-1.18.5-2.29.76-3.39.26-1.07.14-2.01-.33-2.67-.37-.52-.95-.83-1.66-.89-.03,0-.07,0-.1,0-.41,0-.74.24-.91.65-.12.27-.28.72-.47,1.29-.65,1.83-2.16,6.13-3.37,6.13-.1,0-.19-.03-.29-.1-.39-.27-.55-.86-.35-1.35l3.23-8.14c.07-.19.18-.3.33-.36l6.12-2.64c.07-.03.13-.04.2-.04s.13.02.2.05l3.54,1.71c.21.1.35.26.44.5,1.19,3.16,3.77,4.59,6.27,5.97.7.39,1.42.79,2.09,1.22.15.09.23.24.25.44.15,1.21-.41,1.57-.84,1.74-.07.03-.13.04-.19.04-.08,0-.16-.03-.25-.08l-6.13-3.77c-.26-.16-.56-.25-.86-.25-.53,0-1.03.26-1.37.72-2.04,2.76-1.99,5.18.17,8.36,1.16,1.73,2.26,3.49,3.25,5.22.11.19.16.41.16.64.03,3.23.03,6.49,0,9.7-.01,1.44-.56,1.71-1.62,1.72Z"/>
  <g class="cls-1">
    <path class="cls-4" d="m21.12,142.72c-.23,0-.44-.09-.6-.25l-.47-.52c-.33-.37-.32-.77.03-1.11l7.58-7.47v-.16c-3.07.04-6.09.08-9.08.08-5.57,0-11.22-.13-16.81-.4h-.15s.02-1.33.02-1.33l.35-.33c.22-.21.49-.32.8-.32l24.6.02c.07,0,.14-.06.14-.13,0-.03-.02-.07-.05-.09l-7.32-7.33c-.41-.41-.41-1.09,0-1.5.08-.08.17-.14.26-.19.08-.04.18-.07.29-.07,1.28,0,4.88,3.32,10.72,9.86l.26.29c.2.22.19.56-.02.78l-9.96,9.92c-.16.16-.37.25-.6.25Z"/>
    <path d="m20.72,121.77c1.96,0,9.6,8.68,10.87,10.1.14.16.14.41-.02.57l-9.96,9.92c-.14.14-.32.21-.5.21s-.36-.07-.5-.21c0,0-.02-.02-.02-.02l-.43-.49c-.28-.31-.27-.61.02-.9l7.58-7.47c.1-.1.1-.27,0-.37-.05-.05-.12-.08-.19-.08-3,.08-6,.11-8.99.11-5.61,0-11.22-.13-16.81-.4h0s.02-1.11.02-1.11l.31-.29c.19-.19.43-.27.69-.27l24.6.02c.15,0,.28-.12.29-.27,0-.08-.03-.15-.09-.21l-7.32-7.33c-.35-.35-.35-.93,0-1.29.06-.06.14-.12.22-.16.06-.03.14-.05.22-.05m0-.3c-.14,0-.26.03-.37.09-.09.05-.19.12-.29.21-.23.23-.35.53-.35.86s.13.63.35.86l7.32,7.33-24.59-.04c-.35,0-.65.12-.9.36l-.3.29-.09.09v.13s-.02,1.11-.02,1.11h.29s-.01.3-.01.3c5.59.26,11.25.4,16.83.4,2.96,0,5.96-.04,8.92-.11l-7.53,7.4c-.41.4-.43.88-.04,1.32l.43.49h0s.03.04.03.04c.19.19.44.29.71.29s.52-.1.71-.29l9.96-9.92c.27-.28.28-.71.03-.99l-.26-.29c-5.95-6.67-9.49-9.91-10.83-9.91h0Z"/>
  </g>
  <g class="cls-1">
    <path class="cls-4" d="m214.74,142.66c-.12,0-.23-.02-.35-.06-.48-.18-.76-.44-.84-.79-.13-.59.38-1.21.7-1.52,2.31-2.31,4.62-4.62,6.94-6.9.04-.04.03-.1,0-.13-.02-.01-.05-.02-.08-.03h-24.92c-.45,0-.84-.32-.91-.76-.09-.47-.01-.86.22-1.14.22-.27.59-.41,1.06-.41h5.92c6.03,0,12.23,0,18.58.02.06,0,.11-.05.12-.11-.21-.25-.53-.55-.94-.94-3.78-3.55-7.16-6.99-6.38-8.05.21-.27.52-.43.86-.43.23,0,.46.07.65.21.04.03.08.07.12.1l9.87,9.93v.93l-9.87,9.77c-.2.19-.46.3-.73.3Z"/>
    <path d="m214.7,121.57c.19,0,.39.06.56.19.04.02.07.06.1.09l9.83,9.88h0s0,.81,0,.81l-9.83,9.72c-.17.16-.39.25-.62.25-.1,0-.2-.02-.3-.05-1.22-.44-.77-1.39-.09-2.06,2.31-2.31,4.62-4.62,6.94-6.9.1-.1.09-.25,0-.34-.05-.04-.1-.06-.17-.07h-24.94c-.38,0-.7-.27-.77-.64-.15-.85.24-1.37,1.13-1.37,1.97,0,3.96,0,5.96,0,6.02,0,12.2,0,18.53.03.14,0,.26-.11.27-.25,0-.07-.02-.14-.08-.19-1.07-1.09-8.23-7.41-7.27-8.72.18-.24.46-.37.74-.37m0-.3c-.39,0-.75.18-.98.49-.81,1.1,1.84,3.97,6.39,8.25.36.34.66.62.84.8-6.3-.02-12.45-.03-18.44-.03-2.01,0-3.99,0-5.96,0-.65,0-1,.25-1.17.46-.26.31-.34.74-.25,1.26.09.51.54.88,1.06.88h24.79c-1.97,1.94-4.08,4.04-6.83,6.79-.34.33-.88.99-.74,1.66.09.4.4.71.93.9.13.05.26.07.4.07.31,0,.61-.12.83-.34l9.83-9.73.09-.09v-1.05l-.09-.09-9.83-9.88s-.09-.09-.16-.13c-.19-.14-.44-.23-.71-.23h0Z"/>
  </g>
</svg>