<?xml version="1.0" encoding="utf-8"?>
<!-- Generator: Adobe Illustrator 25.2.1, SVG Export Plug-In . SVG Version: 6.00 Build 0)  -->
<svg version="1.1" id="Слой_1" xmlns="http://www.w3.org/2000/svg" xmlns:xlink="http://www.w3.org/1999/xlink" x="0px" y="0px"
	 viewBox="0 0 32 32" style="enable-background:new 0 0 32 32;" xml:space="preserve">
<style type="text/css">
	.st0{fill:#1C8ADB;}
</style>
<path class="st0" d="M22.4,10.2c0.2,0,0.3,0.1,0.4,0.2c0,0.1,0,0.3-0.1,0.4c-0.2,0.2-9,8.4-9.3,8.7c-0.1,0.1-0.1,0.1-0.1,0.2
	c-0.1,0.4-0.1,0.8-0.2,1.3c-0.1,0.7-0.2,1.4-0.3,2.2c0,0.1,0,0.1,0,0.2c0.1,0,0.2,0,0.3-0.1c0.4-0.3,0.8-0.7,1.2-1.1
	c0.5-0.4,0.9-0.9,1.4-1.3c0.1-0.1,0.2-0.1,0.4,0c0.2,0.1,0.4,0.3,0.6,0.4c0.3,0.2,0.6,0.5,0.9,0.7c0.4,0.3,0.9,0.6,1.3,1
	c0.4,0.3,0.8,0.7,1.3,1c0.2,0.1,0.3,0.3,0.5,0.4c0.2,0.1,0.4,0.3,0.6,0.4c0.2,0.1,0.4,0.3,0.6,0.4c0.1,0.1,0.2,0,0.2-0.1
	c0-0.2,0.1-0.3,0.1-0.5c0.1-0.4,3.2-16.4,3.3-17c0-0.1,0-0.2,0-0.2c0,0-0.1,0-0.2,0c-0.5,0.2-18.9,7.9-19.4,8.1
	c-0.1,0-0.1,0.1-0.2,0.1c0.1,0.1,0.1,0.1,0.2,0.2c0.1,0,0.2,0.1,0.3,0.1c0.7,0.2,1.4,0.5,2,0.7c0.7,0.2,1.3,0.4,2,0.7
	c0.2,0.1,0.4,0.1,0.6,0c0.5-0.3,10.9-6.8,11.2-6.9C22.1,10.2,22.3,10.2,22.4,10.2 M27.7,6.9c-0.1,0.4-3.3,17.2-3.4,17.7
	c-0.1,0.5-0.1,1.1-0.4,1.6c-0.2,0.4-0.5,0.7-0.9,0.9c-0.3,0.2-0.7,0.3-1.1,0.3c-0.5,0-1-0.1-1.4-0.4c-0.6-0.5-4-3.1-4.2-3.2
	c-0.2-0.1-0.5,0-0.6,0.1c-0.2,0.2-0.4,0.4-0.6,0.6c-0.5,0.4-0.9,0.9-1.4,1.3c-0.3,0.3-0.7,0.6-1.2,0.6c-0.7,0-1.3-0.3-1.5-0.9
	c-0.3-0.7-1.8-5.5-1.9-6c-0.1-0.3-0.3-0.4-0.5-0.5c-0.9-0.3-4.1-1.3-4.7-1.7c-0.6-0.3-1-0.9-1-1.6c0-0.4,0.1-0.8,0.4-1.1
	c0.4-0.5,2.2-1.2,2.5-1.3C6.1,13,25.1,5,25.4,4.9c0.4-0.1,0.7,0,1,0.1c0.2,0.1,0.4,0.2,0.6,0.3C27.5,5.8,27.7,6.3,27.7,6.9"/>
</svg>
