<?xml version="1.0" encoding="utf-8"?>
<!-- Generator: Adobe Illustrator 25.2.1, SVG Export Plug-In . SVG Version: 6.00 Build 0)  -->
<svg version="1.1" id="Слой_1" xmlns="http://www.w3.org/2000/svg" xmlns:xlink="http://www.w3.org/1999/xlink" x="0px" y="0px"
	 viewBox="0 0 32 32" style="enable-background:new 0 0 32 32;" xml:space="preserve">
<style type="text/css">
	.st0{fill:#29A71A;}
</style>
<path class="st0" d="M24.5,7.9c-1.9-1.9-4.4-3.1-7.1-3.3C14.7,4.4,12,5.1,9.8,6.7C7.6,8.3,6,10.6,5.4,13.2s-0.3,5.4,0.9,7.8
	l-1.2,5.9c0,0.1,0,0.1,0,0.2c0,0.1,0,0.1,0.1,0.2c0.1,0.1,0.1,0.1,0.2,0.2c0.1,0,0.2,0,0.3,0l5.7-1.4c2.4,1.2,5.2,1.5,7.8,0.9
	c2.6-0.6,4.9-2.2,6.5-4.4c1.6-2.2,2.3-4.8,2.1-7.5C27.5,12.4,26.4,9.8,24.5,7.9L24.5,7.9z M22.7,22.2c-1.3,1.3-3,2.2-4.9,2.5
	c-1.8,0.3-3.7,0-5.4-0.8l-0.8-0.4l-3.5,0.8l0,0l0.7-3.5l-0.4-0.8c-0.9-1.7-1.2-3.6-0.9-5.4c0.3-1.9,1.2-3.6,2.5-4.9
	C11.8,8,14.1,7,16.4,7c2.4,0,4.6,0.9,6.3,2.6c0,0,0,0,0,0c1.6,1.7,2.6,3.9,2.6,6.3C25.3,18.3,24.4,20.5,22.7,22.2L22.7,22.2z"/>
<path class="st0" d="M22.4,19.6c-0.4,0.7-1.1,1.5-2,1.7c-1.5,0.4-3.8,0-6.7-2.7l0,0c-2.5-2.3-3.2-4.3-3-5.8c0.1-0.9,0.8-1.7,1.4-2.2
	c0.1-0.1,0.2-0.1,0.3-0.2c0.1,0,0.3,0,0.4,0s0.2,0.1,0.3,0.2s0.2,0.2,0.2,0.3l0.9,2.1c0.1,0.1,0.1,0.3,0.1,0.4
	c0,0.1-0.1,0.3-0.2,0.4l-0.5,0.6c-0.1,0.1-0.2,0.3-0.2,0.4c0,0.2,0,0.3,0.1,0.5c0.3,0.5,0.9,1.1,1.6,1.8c0.8,0.7,1.7,1.4,2.2,1.6
	c0.1,0.1,0.3,0.1,0.5,0c0.2,0,0.3-0.1,0.4-0.2l0.5-0.5c0.1-0.1,0.2-0.2,0.4-0.2c0.1,0,0.3,0,0.4,0l2.2,0.6c0.1,0,0.2,0.1,0.3,0.2
	c0.1,0.1,0.2,0.2,0.2,0.3c0,0.1,0.1,0.2,0.1,0.4C22.5,19.4,22.5,19.5,22.4,19.6L22.4,19.6z"/>
</svg>
