<svg width="32" height="32" viewBox="0 0 32 32" fill="none" xmlns="http://www.w3.org/2000/svg">
<path d="M27.6364 0H4.36364C1.95367 0 0 1.95367 0 4.36364V27.6364C0 30.0463 1.95367 32 4.36364 32H27.6364C30.0463 32 32 30.0463 32 27.6364V4.36364C32 1.95367 30.0463 0 27.6364 0Z" fill="#29A71A"/>
<path d="M23.0544 8.94548C21.3897 7.26421 19.1791 6.23313 16.8211 6.03825C14.4632 5.84336 12.1132 6.49749 10.1951 7.88265C8.27703 9.2678 6.91703 11.2928 6.36047 13.5924C5.80391 15.892 6.08741 18.3147 7.15985 20.4237L6.10712 25.5346C6.09619 25.5855 6.09588 25.638 6.10621 25.689C6.11653 25.74 6.13727 25.7883 6.16712 25.831C6.21084 25.8956 6.27326 25.9454 6.34604 25.9737C6.41881 26.0019 6.49847 26.0073 6.57439 25.9891L11.5835 24.8019C13.6865 25.8471 16.0922 26.1124 18.3724 25.5505C20.6527 24.9885 22.6596 23.6358 24.0361 21.7331C25.4126 19.8303 26.0695 17.5009 25.8897 15.1593C25.7099 12.8177 24.7052 10.6158 23.0544 8.94548V8.94548ZM21.4926 21.4109C20.3408 22.5595 18.8577 23.3177 17.2521 23.5786C15.6466 23.8396 13.9997 23.5901 12.5435 22.8655L11.8453 22.52L8.77439 23.2473L8.78348 23.2091L9.41985 20.1182L9.07803 19.4437C8.33395 17.9823 8.07147 16.323 8.32818 14.7034C8.5849 13.0837 9.34763 11.5869 10.5071 10.4273C11.964 8.97083 13.9398 8.15264 15.9998 8.15264C18.0599 8.15264 20.0357 8.97083 21.4926 10.4273C21.505 10.4415 21.5184 10.4549 21.5326 10.4673C22.9714 11.9275 23.7747 13.8974 23.7672 15.9474C23.7597 17.9974 22.9421 19.9613 21.4926 21.4109V21.4109Z" fill="white"/>
<path d="M21.22 19.1436C20.8437 19.7364 20.2491 20.4618 19.5019 20.6418C18.1928 20.9582 16.1837 20.6527 13.6837 18.3218L13.6528 18.2945C11.4546 16.2564 10.8837 14.56 11.0219 13.2146C11.0982 12.4509 11.7346 11.76 12.271 11.3091C12.3557 11.2367 12.4563 11.1852 12.5646 11.1586C12.6729 11.1321 12.7858 11.1312 12.8945 11.1561C13.0032 11.181 13.1045 11.231 13.1904 11.3021C13.2763 11.3732 13.3443 11.4634 13.3891 11.5655L14.1982 13.3836C14.2508 13.5015 14.2703 13.6315 14.2546 13.7596C14.2389 13.8878 14.1886 14.0092 14.1091 14.1109L13.7 14.6418C13.6123 14.7514 13.5593 14.8848 13.548 15.0248C13.5366 15.1648 13.5674 15.305 13.6364 15.4273C13.8655 15.8291 14.4146 16.42 15.0237 16.9673C15.7073 17.5855 16.4655 18.1509 16.9455 18.3436C17.0739 18.3961 17.2151 18.4089 17.3509 18.3804C17.4867 18.3519 17.6108 18.2833 17.7073 18.1836L18.1819 17.7055C18.2734 17.6152 18.3873 17.5508 18.5119 17.5188C18.6364 17.4869 18.7672 17.4885 18.891 17.5236L20.8128 18.0691C20.9188 18.1016 21.016 18.1579 21.0969 18.2338C21.1778 18.3096 21.2402 18.4029 21.2795 18.5066C21.3188 18.6103 21.3339 18.7216 21.3236 18.832C21.3133 18.9424 21.2779 19.049 21.22 19.1436V19.1436Z" fill="white"/>
</svg>
