<svg width="32" height="32" fill="none" xmlns="http://www.w3.org/2000/svg"><path d="M25.232 6.573a13.246 13.246 0 00-9.426-3.907c-7.344 0-13.321 5.975-13.325 13.32 0 2.244.566 4.456 1.641 6.415l-1.723 6.292a.665.665 0 00.812.82L9.67 27.82a13.351 13.351 0 006.132 1.497c7.349 0 13.326-5.976 13.33-13.32a13.238 13.238 0 00-3.899-9.424z" fill="#fff" fill-opacity=".88"/><path d="M23.247 8.555A10.449 10.449 0 0015.81 5.47c-5.802 0-10.522 4.717-10.524 10.516a10.49 10.49 0 001.608 5.597l.251.398-1.063 3.88 3.982-1.043.384.228a10.5 10.5 0 005.355 1.466h.004c5.799 0 10.518-4.718 10.52-10.518 0-2.81-1.092-5.452-3.079-7.44z" fill="url(#paint0_linear)"/><path opacity=".05" d="M19.262 22.586c-.663 0-1.57-.17-3.391-.887-2.04-.806-4.044-2.554-5.643-4.923l-.051-.075c-.428-.572-1.422-2.072-1.422-3.667 0-1.72.859-2.635 1.226-3.027l.056-.06a1.819 1.819 0 011.335-.613c.246.002.455 0 .635.008.436.017.933.143 1.291.939.167.372.45 1.07.673 1.617.142.351.257.637.292.713.196.39.206.778.024 1.143l-.043.088a2.426 2.426 0 01-.363.575l-.156.188a6.987 6.987 0 01-.314.364c.26.427.804 1.237 1.554 1.906.93.828 1.726 1.174 2.153 1.36.085.037.155.068.211.095.27-.314.715-.848.868-1.076.514-.771 1.252-.504 1.494-.415.379.137 2.215 1.05 2.233 1.06l.17.082c.28.136.542.263.708.54.263.44.117 1.381-.129 2.07-.356 1.001-1.885 1.87-2.702 1.942l-.151.016a4.61 4.61 0 01-.558.037zm-7.785-11.92c-.093 0-.256-.038-.457.18l-.067.073c-.302.322-.865.922-.865 2.115 0 1.229.884 2.505 1.155 2.867.018.024.047.067.09.13 1.45 2.148 3.235 3.72 5.027 4.427 2.256.89 2.835.823 3.304.768l.185-.02c.406-.037 1.415-.634 1.568-1.063.139-.39.184-.725.191-.916l-.095-.045-.189-.092c-.425-.214-1.853-.911-2.087-.997a22.765 22.765 0 01-.986 1.21c-.272.31-.752.605-1.486.235-.044-.022-.104-.047-.179-.08-.46-.2-1.42-.617-2.509-1.586-.979-.875-1.649-1.937-1.892-2.353-.296-.508-.214-.997.244-1.454.08-.08.172-.194.265-.306l.175-.21c.078-.09.107-.15.178-.293l.023-.048a35.28 35.28 0 01-.335-.809c-.215-.53-.49-1.21-.652-1.57a.783.783 0 00-.092-.164c.003.01-.02.01-.039.01-.148-.008-.31-.008-.475-.008z" fill="#000"/><path opacity=".07" d="M19.26 22.256c-.565 0-1.437-.147-3.267-.868-1.978-.78-3.927-2.485-5.488-4.799l-.058-.085c-.411-.548-1.358-1.975-1.358-3.47 0-1.589.795-2.437 1.135-2.8l.06-.063c.416-.456.9-.505 1.089-.505.251.002.444 0 .62.008.328.014.705.083 1.002.743.166.37.447 1.063.667 1.606.15.37.27.668.301.732.055.11.226.449.026.85l-.044.09c-.084.17-.156.317-.317.505l-.161.193c-.116.14-.231.28-.331.38-.144.143-.144.143-.087.24.219.376.822 1.333 1.694 2.11.969.864 1.798 1.223 2.242 1.417.096.041.173.075.23.104.195.097.215.077.284-.002.192-.218.779-.909.976-1.204.369-.553.846-.38 1.102-.287.338.122 2.026.957 2.198 1.044l.174.085c.254.122.454.22.568.41.17.283.1 1.068-.156 1.787-.326.913-1.764 1.664-2.419 1.723l-.16.017c-.155.019-.318.039-.523.039zm-7.793-11.923h-.052a.844.844 0 00-.641.288l-.065.07c-.31.33-.954 1.018-.954 2.342 0 1.296.854 2.576 1.221 3.067.017.022.043.06.08.116 1.488 2.204 3.328 3.82 5.182 4.552 2.337.921 2.963.847 3.465.788l.178-.019c.462-.041 1.634-.675 1.85-1.283.222-.622.232-1.14.198-1.252a4.62 4.62 0 01-.27-.12l-.184-.091c-.416-.21-1.871-.921-2.126-1.014-.24-.087-.24-.088-.32.03-.232.348-.88 1.106-1.028 1.274-.428.49-.922.24-1.086.157a6.02 6.02 0 00-.195-.087c-.445-.194-1.371-.596-2.42-1.53-.944-.842-1.591-1.87-1.826-2.272-.317-.543.04-.898.191-1.05.087-.086.187-.208.288-.33l.17-.204a1.48 1.48 0 00.224-.365l.046-.095c.033-.066.039-.127-.026-.256-.035-.07-.164-.385-.322-.778-.218-.535-.494-1.22-.658-1.583-.153-.339-.242-.343-.422-.35-.154-.005-.324-.005-.498-.005z" fill="#000"/><path fill-rule="evenodd" clip-rule="evenodd" d="M12.69 10.554c-.237-.527-.486-.537-.712-.547-.185-.008-.395-.007-.606-.007-.21 0-.553.08-.843.396-.29.317-1.108 1.081-1.108 2.637s1.134 3.06 1.292 3.271c.158.21 2.188 3.506 5.402 4.774 2.672 1.053 3.216.844 3.796.791.58-.052 1.871-.764 2.134-1.503.264-.739.264-1.371.185-1.503-.08-.132-.29-.211-.606-.37-.316-.158-1.871-.923-2.161-1.028-.29-.106-.5-.158-.712.158-.21.316-.817 1.029-1.002 1.24-.184.211-.369.238-.685.079-.316-.159-1.335-.492-2.543-1.57-.94-.837-1.575-1.873-1.76-2.19-.184-.315-.02-.487.139-.645.142-.142.316-.369.475-.554.158-.184.21-.316.316-.527.105-.211.052-.396-.027-.554-.078-.159-.693-1.723-.974-2.348z" fill="#fff"/><defs><linearGradient id="paint0_linear" x1="10.259" y1="7.151" x2="19.242" y2="26.177" gradientUnits="userSpaceOnUse"><stop stop-color="#2ECC75"/><stop offset="1" stop-color="#0B964A"/></linearGradient></defs></svg>