<svg width="25" height="24" viewBox="0 0 25 24" fill="none" xmlns="http://www.w3.org/2000/svg">
<path d="M18.5 3.00001V3.00001C20.1569 3.00001 21.5 4.34315 21.5 6.00001L21.5 8.14286C21.5 8.47698 21.5 8.64405 21.4234 8.76602C21.3834 8.82962 21.3296 8.8834 21.266 8.92336C21.144 9 20.977 9 20.6429 9L15.5 9M18.5 3.00001V3.00001C16.8431 3.00001 15.5 4.34315 15.5 6.00001L15.5 9M18.5 3.00001L7.5 3.00001C5.61438 3.00001 4.67157 3.00001 4.08579 3.58579C3.5 4.17158 3.5 5.11439 3.5 7.00001L3.5 21L6.5 20L9.5 21L12.5 20L15.5 21L15.5 9" stroke="#FE5D26"/>
<path d="M9.32394 7.5C9.31909 7.5 9.31423 7.5 9.31423 7.5H7.73244C7.5335 7.5 7.36853 7.65575 7.36853 7.84356V11.6548H6.86391C6.66497 11.6548 6.5 11.8105 6.5 11.9983C6.5 12.1861 6.66497 12.3419 6.86391 12.3419H7.36853V12.9328H6.86391C6.66497 12.9328 6.5 13.0886 6.5 13.2764C6.5 13.4642 6.66497 13.6199 6.86391 13.6199H7.36853V15.4064C7.36853 15.5943 7.5335 15.75 7.73244 15.75C7.93138 15.75 8.09635 15.5943 8.09635 15.4064V13.6199H10.406C10.6049 13.6199 10.7699 13.4642 10.7699 13.2764C10.7699 13.0886 10.6049 12.9328 10.406 12.9328H8.09635V12.3419H9.31423C10.6583 12.3419 11.75 11.2654 11.75 9.93698C11.75 8.61313 10.6874 7.54123 9.32394 7.5ZM9.31423 11.6548H8.09635V8.18712H9.30938C10.2701 8.21918 11.0222 8.98875 11.0222 9.93698C11.0222 10.8852 10.2555 11.6548 9.31423 11.6548Z" fill="#FE5D26"/>
</svg>
