<svg width="32" height="32" viewBox="0 0 32 32" fill="none" xmlns="http://www.w3.org/2000/svg">
<path d="M27.6364 0H4.36364C1.95367 0 0 1.95367 0 4.36364V27.6364C0 30.0463 1.95367 32 4.36364 32H27.6364C30.0463 32 32 30.0463 32 27.6364V4.36364C32 1.95367 30.0463 0 27.6364 0Z" fill="#1C8ADB"/>
<path d="M24.7164 8.27273L24.3855 8.39273L6.42549 14.8636C6.29822 14.903 6.1876 14.9835 6.11097 15.0924C6.03435 15.2014 5.99605 15.3327 6.00208 15.4658C6.00811 15.5989 6.05813 15.7262 6.1443 15.8278C6.23046 15.9294 6.34791 15.9996 6.47822 16.0273L11.1273 17.3L11.9946 19.8454L12.8618 22.3909C12.9117 22.5157 12.9912 22.6264 13.0935 22.7135C13.1959 22.8006 13.3179 22.8613 13.449 22.8905C13.5802 22.9197 13.7165 22.9165 13.8461 22.8811C13.9757 22.8456 14.0947 22.7791 14.1928 22.6873L16.5946 20.4182L21.3109 23.6163C21.8873 24.0091 22.7091 23.7182 22.8564 23.0709L25.98 9.26909C26.1327 8.58545 25.4128 8.02364 24.7164 8.27273V8.27273ZM22.4237 11.3364L14.3091 17.9691L13.9273 18.2818C13.8434 18.3483 13.7887 18.4448 13.7746 18.5509L13.6891 19.2564L13.4546 21.2382C13.4565 21.2623 13.4488 21.2862 13.4331 21.3046C13.4174 21.323 13.3951 21.3344 13.3709 21.3364C13.3468 21.3383 13.3229 21.3306 13.3045 21.3149C13.2861 21.2992 13.2747 21.2768 13.2728 21.2527L12.6128 19.2727L11.9309 17.2454C11.9021 17.1543 11.9059 17.056 11.9418 16.9674C11.9776 16.8788 12.0432 16.8054 12.1273 16.76L20.5709 11.92L22.16 11.0109C22.3909 10.8764 22.6273 11.1691 22.4237 11.3364V11.3364Z" fill="white"/>
</svg>
